<?xml version="1.0" encoding="UTF-8" standalone="no"?>
<svg
   xmlns:dc="http://purl.org/dc/elements/1.1/"
   xmlns:cc="http://creativecommons.org/ns#"
   xmlns:rdf="http://www.w3.org/1999/02/22-rdf-syntax-ns#"
   xmlns:svg="http://www.w3.org/2000/svg"
   xmlns="http://www.w3.org/2000/svg"
   xmlns:sodipodi="http://sodipodi.sourceforge.net/DTD/sodipodi-0.dtd"
   xmlns:inkscape="http://www.inkscape.org/namespaces/inkscape"
   width="400"
   height="4000"
   viewBox="0 0 105.83333 1058.3334"
   version="1.1"
   id="svg8"
   inkscape:version="1.0 (4035a4f, 2020-05-01)"
   sodipodi:docname="logotipo.svg">
  <defs
     id="defs2">
    <inkscape:path-effect
       effect="fillet_chamfer"
       id="path-effect1043"
       is_visible="true"
       lpeversion="1"
       satellites_param="F,0,0,1,0,9.3079133,0,1 @ F,0,0,1,0,142.59684,0,1 @ F,0,0,1,0,8.59192,0,1 @ F,0,0,1,0,57.679619,0,1"
       unit="px"
       method="auto"
       mode="F"
       radius="0"
       chamfer_steps="1"
       flexible="false"
       use_knot_distance="true"
       apply_no_radius="true"
       apply_with_radius="true"
       only_selected="false"
       hide_knots="false" />
    <inkscape:path-effect
       effect="fillet_chamfer"
       id="path-effect1037"
       is_visible="true"
       lpeversion="1"
       satellites_param="F,0,0,1,0,9.3079133,0,1 @ F,0,0,1,0,142.59684,0,1 @ F,0,0,1,0,8.59192,0,1 @ F,0,0,1,0,57.679619,0,1"
       unit="px"
       method="auto"
       mode="F"
       radius="0"
       chamfer_steps="1"
       flexible="false"
       use_knot_distance="true"
       apply_no_radius="true"
       apply_with_radius="true"
       only_selected="false"
       hide_knots="false" />
    <inkscape:path-effect
       hide_knots="false"
       only_selected="false"
       apply_with_radius="true"
       apply_no_radius="true"
       use_knot_distance="true"
       flexible="false"
       chamfer_steps="1"
       radius="0"
       mode="F"
       method="auto"
       unit="px"
       satellites_param="F,0,0,1,0,9.3079133,0,1 @ F,0,0,1,0,142.59684,0,1 @ F,0,0,1,0,8.59192,0,1 @ F,0,0,1,0,57.679619,0,1"
       lpeversion="1"
       is_visible="true"
       id="path-effect1033"
       effect="fillet_chamfer" />
    <inkscape:path-effect
       hide_knots="false"
       only_selected="false"
       apply_with_radius="true"
       apply_no_radius="true"
       use_knot_distance="true"
       flexible="false"
       chamfer_steps="1"
       radius="0"
       mode="F"
       method="auto"
       unit="px"
       satellites_param="F,0,0,1,0,0,0,1 @ F,0,0,1,0,10.43374,0,1 @ F,0,0,1,0,12.721436,0,1 @ F,0,0,1,0,0,0,1 @ F,0,0,1,0,0,0,1"
       lpeversion="1"
       is_visible="true"
       id="path-effect988"
       effect="fillet_chamfer" />
    <inkscape:path-effect
       only_selected="false"
       apply_with_weight="true"
       apply_no_weight="true"
       helper_size="0"
       steps="2"
       weight="33.333333"
       lpeversion="1"
       is_visible="true"
       id="path-effect1104"
       effect="bspline" />
    <inkscape:path-effect
       effect="bspline"
       id="path-effect1097"
       is_visible="true"
       lpeversion="1"
       weight="33.333333"
       steps="2"
       helper_size="0"
       apply_no_weight="true"
       apply_with_weight="true"
       only_selected="false" />
    <inkscape:path-effect
       effect="bspline"
       id="path-effect1093"
       is_visible="true"
       lpeversion="1"
       weight="33.333333"
       steps="2"
       helper_size="0"
       apply_no_weight="true"
       apply_with_weight="true"
       only_selected="false" />
    <inkscape:path-effect
       effect="bspline"
       id="path-effect1081"
       is_visible="true"
       lpeversion="1"
       weight="33.333333"
       steps="2"
       helper_size="0"
       apply_no_weight="true"
       apply_with_weight="true"
       only_selected="false" />
    <inkscape:path-effect
       effect="spiro"
       id="path-effect1077"
       is_visible="true"
       lpeversion="1" />
    <inkscape:path-effect
       effect="simplify"
       id="path-effect1075"
       is_visible="true"
       lpeversion="1"
       steps="1"
       threshold="0.0229032"
       smooth_angles="360"
       helper_size="0"
       simplify_individual_paths="false"
       simplify_just_coalesce="false" />
    <inkscape:path-effect
       effect="powerstroke"
       id="path-effect1069"
       is_visible="true"
       lpeversion="1"
       offset_points="0.43216474,13.784989"
       sort_points="true"
       interpolator_type="CentripetalCatmullRom"
       interpolator_beta="0.75"
       start_linecap_type="round"
       linejoin_type="spiro"
       miter_limit="4"
       scale_width="1"
       end_linecap_type="round" />
    <inkscape:path-effect
       effect="simplify"
       id="path-effect1067"
       is_visible="true"
       lpeversion="1"
       steps="1"
       threshold="0.030074442"
       smooth_angles="0"
       helper_size="0"
       simplify_individual_paths="false"
       simplify_just_coalesce="false"
       step="1" />
    <inkscape:path-effect
       effect="spiro"
       id="path-effect1064"
       is_visible="true"
       lpeversion="1" />
    <inkscape:path-effect
       effect="simplify"
       id="path-effect1062"
       is_visible="true"
       lpeversion="1"
       steps="1"
       threshold="0.0229032"
       smooth_angles="360"
       helper_size="0"
       simplify_individual_paths="false"
       simplify_just_coalesce="false" />
    <inkscape:path-effect
       effect="simplify"
       id="path-effect1058"
       is_visible="true"
       lpeversion="1"
       steps="1"
       threshold="0.0229032"
       smooth_angles="360"
       helper_size="0"
       simplify_individual_paths="false"
       simplify_just_coalesce="false" />
    <inkscape:path-effect
       effect="simplify"
       id="path-effect1054"
       is_visible="true"
       lpeversion="1"
       steps="1"
       threshold="0.0229032"
       smooth_angles="360"
       helper_size="0"
       simplify_individual_paths="false"
       simplify_just_coalesce="false" />
    <inkscape:path-effect
       effect="simplify"
       id="path-effect1050"
       is_visible="true"
       lpeversion="1"
       steps="1"
       threshold="0.0229032"
       smooth_angles="360"
       helper_size="0"
       simplify_individual_paths="false"
       simplify_just_coalesce="false" />
    <inkscape:path-effect
       effect="fillet_chamfer"
       id="path-effect1006"
       is_visible="true"
       lpeversion="1"
       satellites_param="F,0,0,1,0,3.351223,0,1 @ F,0,0,1,0,5.2453926,0,1 @ F,0,0,1,0,5.3182452,0,1 @ F,0,0,1,0,5.3910979,0,1"
       unit="px"
       method="auto"
       mode="F"
       radius="0"
       chamfer_steps="1"
       flexible="false"
       use_knot_distance="true"
       apply_no_radius="true"
       apply_with_radius="true"
       only_selected="false"
       hide_knots="false" />
    <inkscape:path-effect
       effect="fillet_chamfer"
       id="path-effect1538"
       is_visible="true"
       lpeversion="1"
       satellites_param="F,0,0,1,0,0,0,1 @ F,0,0,1,0,0,0,1 @ F,0,0,1,0,0,0,1 @ F,0,0,1,0,13.222221,0,1 @ F,0,0,1,0,18.752829,0,1 @ F,0,0,1,0,17.171705,0,1 @ F,0,0,1,0,13.949672,0,1 @ F,0,0,1,0,0,0,1"
       unit="px"
       method="auto"
       mode="F"
       radius="0"
       chamfer_steps="1"
       flexible="false"
       use_knot_distance="true"
       apply_no_radius="true"
       apply_with_radius="true"
       only_selected="false"
       hide_knots="false" />
    <inkscape:path-effect
       effect="fillet_chamfer"
       id="path-effect843"
       is_visible="true"
       lpeversion="1"
       satellites_param="F,0,0,1,0,0,0,1 @ F,0,0,1,0,0,0,1 @ F,0,0,1,0,0,0,1 @ F,0,0,1,0,15.556727,0,1 @ F,0,0,1,0,20.868614,0,1 @ F,0,0,1,0,16.035245,0,1 @ F,0,0,1,0,5.1546947,0,1"
       unit="px"
       method="auto"
       mode="F"
       radius="0"
       chamfer_steps="1"
       flexible="false"
       use_knot_distance="true"
       apply_no_radius="true"
       apply_with_radius="true"
       only_selected="false"
       hide_knots="false" />
  </defs>
  <sodipodi:namedview
     id="base"
     pagecolor="#ffffff"
     bordercolor="#666666"
     borderopacity="1.0"
     inkscape:pageopacity="0.0"
     inkscape:pageshadow="2"
     inkscape:zoom="0.225422"
     inkscape:cx="1429.4253"
     inkscape:cy="1162.7414"
     inkscape:document-units="mm"
     inkscape:current-layer="layer1"
     inkscape:document-rotation="0"
     showgrid="false"
     units="px"
     inkscape:window-width="1280"
     inkscape:window-height="723"
     inkscape:window-x="0"
     inkscape:window-y="23"
     inkscape:window-maximized="0"
     showguides="true"
     inkscape:guide-bbox="true" />
  <metadata
     id="metadata5">
    <rdf:RDF>
      <cc:Work
         rdf:about="">
        <dc:format>image/svg+xml</dc:format>
        <dc:type
           rdf:resource="http://purl.org/dc/dcmitype/StillImage" />
        <dc:title />
      </cc:Work>
    </rdf:RDF>
  </metadata>
  <g
     inkscape:label="Layer 1"
     inkscape:groupmode="layer"
     id="layer1">
    <g
       id="g1671">
      <g
         inkscape:export-ydpi="96"
         inkscape:export-xdpi="96"
         transform="translate(150.28898,32.810552)"
         id="g219">
        <path
           inkscape:connector-curvature="0"
           d="m -110.81744,-14.599287 -0.0162,0.0094 -0.0162,0.0094 -0.63268,0.396951 -0.008,0.005 -0.0122,0.007 -0.62578,0.40894 -0.006,0.009 -0.0122,0.007 -0.615,0.41842 -0.0162,0.009 -0.0139,0.0134 -0.60351,0.43832 -0.0122,0.007 -0.008,0.005 -0.59659,0.4503 -0.0122,0.007 -0.006,0.009 -0.58982,0.46209 -0.0122,0.007 -0.0139,0.0134 -0.57669,0.47563 -0.0122,0.007 -0.0139,0.0134 -0.56359,0.48918 -0.006,0.009 -0.0122,0.007 -0.55271,0.49887 -0.006,0.009 -0.008,0.005 -0.5458,0.5108502 -0.018,0.0158 -0.0139,0.0134 -0.53047,0.52826 -0.002,0.006 -0.008,0.005 -0.52191,0.53388 -0.0139,0.0134 -0.01,0.0111 -0.50483,0.54513 -0.01,0.0111 -0.01,0.0111 -0.49563,0.56113 -0.01,0.0111 -0.006,0.009 -0.48479,0.57071 -0.01,0.0111 -0.01,0.0111 -0.47,0.57803 -0.01,0.0111 -0.01,0.0111 -0.45687,0.59159 -0.01,0.0111 -0.003,0.0128 -0.44208,0.59892 -0.01,0.0111 -0.01,0.0111 -0.43289,0.61478 -0.006,0.009 -0.006,0.009 -0.41642,0.61584 -0.007,0.0152 -0.01,0.0111 -0.40329,0.62942 -0.007,0.0152 -0.01,0.0111 -0.38852,0.63674 -0.008,0.0152 -0.006,0.009 -0.37537,0.65032 -0.007,0.0152 -0.006,0.009 -0.3589,0.65136 -0.008,0.0152 -0.007,0.0151 -0.34577,0.66496003 -0.006,0.009 -0.003,0.0128 -0.32931,0.666 -0.01,0.0111 -0.008,0.0151 -0.31618,0.67958 6.2e-4,0.0105 -0.006,0.009 -0.30366,0.68292997 -0.008,0.0151 -0.007,0.0152 -0.28492,0.68797 -0.008,0.0152 -0.005,0.0192 -0.26782,0.69925 -0.002,0.006 -0.003,0.0128 -0.25531,0.7026 -0.006,0.009 -0.007,0.0152 -0.23883,0.70365 -0.001,0.0169 -0.008,0.0152 -0.22175,0.71493 -0.003,0.0128 -0.002,0.006 -0.20923,0.71831 -0.008,0.0152 -0.003,0.0128 -0.19275,0.71936 -0.001,0.0169 -0.008,0.0152 -0.17398,0.72439 -0.001,0.0169 6.3e-4,0.0105 -0.15919,0.73169 -0.003,0.0128 -0.003,0.0128 -0.14273,0.73276 -0.003,0.0128 6.3e-4,0.0105 -0.13018,0.73611 -0.005,0.0192 -0.005,0.0192 -0.10748,0.7388698 6.3e-4,0.0105 -0.003,0.0128 -0.095,0.7422 6.3e-4,0.0105 -10e-4,0.0169 -0.0785,0.74327 -0.001,0.0169 -10e-4,0.0169 -0.058,0.74206 -0.003,0.0128 -0.002,0.006 -0.0455,0.74539 -10e-4,0.0169 0.003,0.0145 -0.029,0.74645 -0.003,0.0128 0.003,0.0145 -0.0126,0.74753 -0.001,0.0169 -0.001,0.0169 0.008,0.74631 6.3e-4,0.0105 6.3e-4,0.0105 0.0204,0.74965 -0.001,0.0169 0.003,0.0145 0.0385,0.74445 -0.003,0.0128 0.003,0.0145 0.055,0.74551 0.003,0.0145 -0.001,0.0169 0.0732,0.74032 6.2e-4,0.0105 6.3e-4,0.0105 0.0857,0.74367 0.005,0.0186 0.003,0.0145 0.10612,0.74246 -0.001,0.0169 0.003,0.0145 0.12197,0.73329 0.003,0.0145 6.2e-4,0.0105 0.13845,0.73435 0.003,0.0145 0.005,0.008 0.15266,0.73146 0.003,0.0145 6.3e-4,0.0105 0.16693,0.7285 0.005,0.0186 0.005,0.0186 0.18891,0.72109 6.3e-4,0.0105 0.005,0.008 0.19911,0.72048 0.003,0.0145 0.005,0.0186 0.21725,0.71531 0.003,0.0145 0.007,0.0122 0.23537,0.71012 0.003,0.0145 0.005,0.008 0.24735,0.70321 0.003,0.0145 0.009,0.0162 0.26548,0.69802 0.003,0.0145 0.009,0.0162 0.28361,0.69286 -0.002,0.006 0.005,0.008 0.29152,0.68826 0.009,0.0163 0.005,0.0186 0.31143,0.67679 0.007,0.0122 0.005,0.008 0.32569,0.67384 0.007,0.0122 0.005,0.0186 0.34153,0.6647 0.005,0.008 0.007,0.0122 0.3529,0.65814 0.007,0.0122 0.007,0.0122 0.28214,0.49806 0.007,0.0122 0.005,0.008 0.38133,0.64172 0.009,0.0162 0.007,0.0122 0.39696,0.63269 0.005,0.008 0.007,0.0122 0.40664,0.6218 0.009,0.006 0.007,0.0122 0.42072,0.61897 0.009,0.0163 0.0134,0.0139 0.43833,0.60353 0.005,0.008 0.005,0.008 0.44625,0.59896 0.009,0.0162 0.0134,0.0139 0.46614,0.58748 0.005,0.008 0.0111,0.01 0.47563,0.57669 0.005,0.008 0.0111,0.01 0.48532,0.56581 0.009,0.0163 0.0134,0.0139 0.50293,0.55037 0.009,0.006 0.002,0.004 0.51084,0.54578 0.0134,0.0139 0.0111,0.01 0.5244,0.53269 0.0111,0.01 0.0134,0.0139 0.53794,0.51957 0.005,0.008 0.0111,0.01 0.54514,0.50483 0.0111,0.01 0.0111,0.01 0.56109,0.49562 0.0111,0.01 0.009,0.006 0.5707,0.48479 0.0111,0.01 0.0111,0.01 0.57803,0.46998 0.0111,0.01 0.0111,0.01 0.59162,0.45688 0.0111,0.01 0.0128,0.003 0.59892,0.44208 0.0111,0.01 0.0111,0.01 0.61477,0.43291 0.009,0.006 0.009,0.006 0.61584,0.41644 0.0152,0.007 0.0111,0.01 0.62941,0.40331 0.0152,0.007 0.0111,0.01 0.63675,0.3885 0.0152,0.007 0.0152,0.007 0.64803,0.37141 0.009,0.006 0.006,0.002 0.65365,0.36286 0.0111,0.01 0.0128,0.003 0.66099,0.34806 0.0175,0.0115 0.0152,0.007 0.66997,0.32702 0.009,0.006 0.006,0.002 0.67561,0.31848 0.0192,0.005 0.0152,0.007 0.68689,0.30138 0.0111,0.01 0.0128,0.003 0.68796,0.2849 0.0128,0.003 0.0152,0.007 0.69529,0.27011 0.0128,0.003 0.0128,0.003 0.7026,0.2553 0.0152,0.007 0.0152,0.007 0.70763,0.23653 0.0105,-6.3e-4 0.009,0.006 0.71096,0.22402 0.0128,0.003 0.0128,0.003 0.7183,0.2092 0.0192,0.005 0.0128,0.003 0.72335,0.19046 0.0128,0.003 0.0128,0.003 0.72667,0.17795 0.0192,0.005 0.0169,10e-4 0.7294,0.15523 0.0087,0.006 0.01047,-6.3e-4 0.732774,0.14269 0.01281,0.003 0.01047,-6.3e-4 0.736121,0.1302 0.01922,0.005 0.01922,0.005 0.738864,0.10748 0.01047,-6.3e-4 0.01281,0.003 0.742219,0.095 0.01047,-6.2e-4 0.01687,10e-4 0.743289,0.0785 0.01687,10e-4 0.01687,10e-4 0.74202,0.058 0.01281,0.003 0.0064,0.002 0.745419,0.0455 0.01687,0.001 0.01453,-0.003 0.746469,0.0291 0.01281,0.003 0.01453,-0.003 0.747526,0.0126 0.01687,10e-4 0.01687,0.001 0.74629,-0.008 0.01047,-6.3e-4 0.01047,-6.3e-4 0.749645,-0.0204 0.01687,10e-4 0.01453,-0.003 0.744449,-0.0385 0.01281,0.003 0.01453,-0.003 0.745518,-0.055 0.01453,-0.003 0.01687,10e-4 0.740322,-0.0732 0.01047,-6.2e-4 0.01047,-6.3e-4 0.743677,-0.0857 0.01453,-0.003 0.01859,-0.005 0.738482,-0.10382 0.01687,10e-4 0.01453,-0.003 0.737253,-0.12429 0.01047,-6.2e-4 0.0081,-0.005 0.736641,-0.13449 0.02093,-10e-4 0.01859,-0.005 0.729205,-0.15651 0.0081,-0.005 0.0064,0.002 0.728496,-0.16692 0.01859,-0.005 0.01453,-0.003 0.723312,-0.18506 0.01453,-0.003 0.01859,-0.005 0.718127,-0.20317 0.0081,-0.005 0.01453,-0.003 0.715308,-0.21725 0.01453,-0.003 0.01218,-0.007 0.706026,-0.23328 0.01453,-0.003 0.0081,-0.005 0.707167,-0.24964 0.01859,-0.005 0.01218,-0.007 0.698043,-0.26548 0.01047,-6.3e-4 0.01218,-0.007 0.691127,-0.27747 0.01453,-0.003 0.01218,-0.007 0.685942,-0.29559 0.01624,-0.009 0.01453,-0.003 0.680757,-0.31371 0.01218,-0.007 0.0081,-0.005 0.669862,-0.3234 0.01218,-0.007 0.01859,-0.005 0.664678,-0.34152 0.0081,-0.005 0.01218,-0.007 0.658133,-0.3529 0.01218,-0.007 0.01218,-0.007 0.498056,-0.28214 0.01218,-0.007 0.0081,-0.005 0.645701,-0.38363 0.01624,-0.009 0.01218,-0.007 0.632695,-0.39696 0.0081,-0.005 0.01218,-0.007 0.621819,-0.40666 0.0058,-0.009 0.01218,-0.007 0.618959,-0.42071 0.01624,-0.009 0.0139,-0.0134 0.603531,-0.43833 0.01218,-0.007 0.0081,-0.005 0.596615,-0.45031 0.01218,-0.007 0.0058,-0.009 0.589815,-0.46208 0.01624,-0.009 0.0098,-0.0111 0.572733,-0.47334 0.0041,-0.002 0.125166,-0.10394 0.949506,-0.79158 -0.787506,-0.95183 -14.023109,-16.99869 7.056849,-5.81918 0.627653,-0.51561 -0.225543,-0.78453 -9.862388,-34.290765 -0.220449,-0.766334 -0.792869,-0.118583 -0.738864,-0.107476 -0.01687,-0.0011 -0.01047,6.29e-4 -0.739902,-0.09099 -0.01687,-0.0011 -0.01687,-0.0011 -0.744963,-0.07223 -0.01281,-0.0034 -0.01281,-0.0034 -0.746012,-0.05576 -0.01453,0.003 -0.01281,-0.0034 -0.743101,-0.04157 -0.01687,-0.0011 -0.01047,6.28e-4 -0.74813,-0.0228 -0.01687,-0.0011 -0.01047,6.28e-4 -0.74522,-0.0086 -0.01281,-0.0034 -0.01453,0.003 -0.746278,0.0079 -0.01687,-0.0011 -0.01047,6.28e-4 -0.74737,0.02432 -0.02093,0.0013 -0.01453,0.003 -0.746143,0.04479 -0.01047,6.28e-4 -0.01687,-0.0011 -0.743232,0.05897 -0.01047,6.28e-4 -0.01453,0.003 -0.744282,0.07544 -0.01047,6.29e-4 -0.01453,0.003 -0.741392,0.08964 -0.01687,-0.0011 -0.01859,0.0053 -0.740155,0.110066 -0.01047,6.28e-4 -0.01047,6.28e-4 -0.737254,0.124283 -0.01859,0.0053 -0.01453,0.003 -0.732069,0.142405 -0.01047,6.28e-4 -0.01453,0.003 -0.729228,0.156521 -0.0105,6.28e-4 -0.0122,0.007 -0.72627,0.170786 -0.0145,0.003 -0.0186,0.0053 -0.72506,0.191207 -0.0145,0.003 -0.0145,0.003 -0.7159,0.207032 -0.0145,0.003 -0.008,0.0047 -0.71294,0.221298 -0.0145,0.003 -0.008,0.0047 -0.71001,0.235576 -0.0145,0.003 -0.0186,0.0053 -0.70086,0.251413 -0.0122,0.007 -0.0145,0.003 -0.69568,0.269536 -0.0122,0.007 -0.0122,0.007 -0.69286,0.283611 -0.0145,0.003 -0.0122,0.007 -0.6837,0.299436 -0.0145,0.003 -0.008,0.0047 -0.68075,0.313713 -0.0122,0.007 -0.0162,0.0094 -0.66764,0.327253 -0.0145,0.003 -0.0122,0.007 -0.66247,0.345389 -0.0122,0.007 -0.008,0.0047 -0.65579,0.356962 -0.0162,0.0094 -0.0122,0.007 -0.34899,0.20149 -0.004,0.0023 -0.004,0.0023 z"
           style="opacity:1;fill:#50514f;fill-opacity:1;stroke-width:0.620327;stop-opacity:1"
           id="path70"
           inkscape:export-xdpi="96"
           inkscape:export-ydpi="96" />
        <path
           id="path72"
           style="opacity:1;fill:#f25f5c;fill-opacity:1;stroke-width:0.620327;stop-opacity:1"
           d="m -126.20045,11.874134 a 33.648041,33.648041 0 0 0 4.34006,20.18062 33.648041,33.648041 0 0 0 45.964574,12.31704 33.648041,33.648041 0 0 0 5.00526,-3.53611 l -8.196137,-9.93379 a 36.08043,36.08043 0 0 1 -45.209477,-15.22786 36.08043,36.08043 0 0 1 -1.90428,-3.7999 z"
           inkscape:connector-curvature="0" />
        <path
           sodipodi:nodetypes="ccccc"
           inkscape:connector-curvature="0"
           id="path74"
           style="opacity:1;fill:#ffd166;fill-opacity:1;stroke-width:0.665172;stop-opacity:1"
           d="m -125.73769,8.7501642 c -0.2029,1.03386 -0.35712,2.0766698 -0.46216,3.1249998 7.25873,18.733093 30.088732,28.076044 47.113755,19.02777 l -1.585889,-1.92297 C -99.622367,36.854497 -118.47058,24.610927 -125.73769,8.7501642 Z" />
      </g>
    </g>
    <g
       id="g1676"
       transform="translate(-0.40874549,21.166667)">
      <path
         d="m 60.476075,107.90582 c -19.209211,0.0556 -34.751932,15.64336 -34.751872,34.85266 2e-5,19.24858 15.604071,34.85263 34.852632,34.85265 5.82787,0 11.54334,-1.46104 16.63251,-4.22474 1.69718,-0.92166 2.20228,-3.17733 1.23624,-4.85058 l -7.69484,-13.32791 a 6.4662086,6.4662086 0 0 1 1.02761,-7.80539 l 0.44386,-0.44387 a 7.8827351,7.8827351 0 0 0 2.04321,-7.60289 l -7.31411,-27.45865 c -0.52467,-1.96972 -2.58459,-3.84442 -4.61945,-3.94704 -0.58435,-0.0295 -1.16954,-0.0442 -1.75503,-0.0442 -0.0336,-5e-5 -0.0672,-5e-5 -0.10076,0 z"
         style="fill:#50514f;fill-opacity:1;stroke:none;stroke-width:0.350232;stroke-linejoin:round;stroke-dashoffset:3.25039"
         id="path1528" />
      <path
         d="m 27.39102,140.40632 c -0.0524,0.75983 -0.079,1.52113 -0.076,2.28255 -0.0128,2.03095 0.17247,4.0588 0.53899,6.05338 l 40.595435,4.81727 c -0.14292,-0.71828 -0.17849,-1.45404 -0.11679,-2.18281 z"
         style="fill:#ffd166;fill-opacity:1;stroke:none;stroke-width:0.350232;stroke-linejoin:round;stroke-dashoffset:3.25039"
         id="path1563" />
      <path
         d="m 28.0747,149.82693 c 1.36173,6.23309 4.513397,12.07576 9.080574,16.54938 5.429617,5.41033 12.741424,8.84292 20.396161,9.50691 3.89777,0.35958 7.94037,-4.2e-4 11.73469,-1.02268 2.34153,-0.6219 4.74075,-1.60036 6.89208,-2.72438 1.25203,-0.46354 1.49403,-2.21649 0.66921,-3.1781 -2.63467,-4.70713 -5.48928,-9.29668 -8.00054,-14.06942 -0.0317,-0.0774 -0.0601,-0.15587 -0.0889,-0.2341 z"
         style="fill:#f25f5c;fill-opacity:1;stroke:none;stroke-width:0.350232;stroke-linejoin:round;stroke-dashoffset:3.25039"
         id="path1581" />
    </g>
    <g
       id="g1658"
       transform="translate(-7.1770725,132.29169)">
      <path
         id="path1595"
         style="fill:#333333;fill-opacity:0.25;stroke:none;stroke-width:0.350232;stroke-linejoin:round;stroke-dashoffset:3.25039"
         d="m 70.948586,590.79704 c -19.20922,0.0556 -34.75195,15.64335 -34.75189,34.85264 2e-5,19.24857 15.60408,34.85261 34.85265,34.85263 5.82787,0 11.54334,-1.46104 16.63251,-4.22473 1.69718,-0.92166 2.20228,-3.17733 1.23624,-4.85058 l -7.69484,-13.3279 a 6.4662086,6.4662086 0 0 1 1.02761,-7.80539 l 0.44386,-0.44387 a 7.8827351,7.8827351 0 0 0 2.04321,-7.60289 l -7.31411,-27.45863 c -0.52467,-1.96972 -2.58459,-3.84442 -4.61945,-3.94704 -0.58435,-0.0295 -1.16954,-0.0442 -1.75503,-0.0442 -0.0336,-5e-5 -0.0672,-5e-5 -0.10076,0 z" />
      <path
         d="m 67.773596,590.79704 c -19.20922,0.0556 -34.75195,15.64335 -34.75189,34.85264 2e-5,19.24857 15.60408,34.85261 34.85265,34.85263 5.82787,0 11.54334,-1.46104 16.63251,-4.22473 1.69718,-0.92166 2.20228,-3.17733 1.23624,-4.85058 l -7.69484,-13.3279 a 6.4662086,6.4662086 0 0 1 1.02761,-7.80539 l 0.44386,-0.44387 a 7.8827351,7.8827351 0 0 0 2.04321,-7.60289 l -7.31411,-27.45863 c -0.52467,-1.96972 -2.58459,-3.84442 -4.61945,-3.94704 -0.58435,-0.0295 -1.16954,-0.0442 -1.75503,-0.0442 -0.0336,-5e-5 -0.0672,-5e-5 -0.10076,0 z"
         style="fill:#333333;fill-opacity:0.5;stroke:none;stroke-width:0.350232;stroke-linejoin:round;stroke-dashoffset:3.25039"
         id="path1597" />
      <path
         id="path1599"
         style="fill:#333333;fill-opacity:1;stroke:none;stroke-width:0.350232;stroke-linejoin:round;stroke-dashoffset:3.25039"
         d="m 63.540236,590.79704 c -19.20922,0.0556 -34.75195,15.64335 -34.75189,34.85264 2e-5,19.24857 15.60408,34.85261 34.85265,34.85263 5.82787,0 11.54334,-1.46104 16.63251,-4.22473 1.69718,-0.92166 2.20228,-3.17733 1.23624,-4.85058 l -7.69484,-13.3279 a 6.4662086,6.4662086 0 0 1 1.02761,-7.80539 l 0.44386,-0.44387 a 7.8827351,7.8827351 0 0 0 2.04321,-7.60289 l -7.31411,-27.45863 c -0.52467,-1.96972 -2.58459,-3.84442 -4.61945,-3.94704 -0.58435,-0.0295 -1.16954,-0.0442 -1.75503,-0.0442 -0.0336,-5e-5 -0.0672,-5e-5 -0.10076,0 z" />
    </g>
    <path
       id="path900"
       style="fill:#fbd6d5;fill-opacity:1;stroke:none;stroke-width:0.350232;stroke-linejoin:round;stroke-dashoffset:3.25039"
       d="m 208.82474,736.52733 c -19.20922,0.0556 -34.75195,15.64335 -34.75189,34.85264 2e-5,19.24857 15.60408,34.85261 34.85265,34.85263 5.82787,0 11.54334,-1.46104 16.63251,-4.22473 1.69718,-0.92166 2.20228,-3.17733 1.23624,-4.85058 l -7.69484,-13.3279 a 6.4662086,6.4662086 0 0 1 1.02761,-7.80539 l 0.44386,-0.44387 a 7.8827351,7.8827351 0 0 0 2.04321,-7.60289 l -7.31411,-27.45863 c -0.52467,-1.96972 -2.58459,-3.84442 -4.61945,-3.94704 -0.58435,-0.0295 -1.16954,-0.0442 -1.75503,-0.0442 -0.0336,-5e-5 -0.0672,-5e-5 -0.10076,0 z" />
    <path
       d="m 203.53307,736.52733 c -19.20922,0.0556 -34.75195,15.64335 -34.75189,34.85264 2e-5,19.24857 15.60408,34.85261 34.85265,34.85263 5.82787,0 11.54334,-1.46104 16.63251,-4.22473 1.69718,-0.92166 2.20228,-3.17733 1.23624,-4.85058 l -7.69484,-13.3279 a 6.4662086,6.4662086 0 0 1 1.02761,-7.80539 l 0.44386,-0.44387 a 7.8827351,7.8827351 0 0 0 2.04321,-7.60289 l -7.31411,-27.45863 c -0.52467,-1.96972 -2.58459,-3.84442 -4.61945,-3.94704 -0.58435,-0.0295 -1.16954,-0.0442 -1.75503,-0.0442 -0.0336,-5e-5 -0.0672,-5e-5 -0.10076,0 z"
       style="fill:#f8aead;fill-opacity:1;stroke:none;stroke-width:0.350232;stroke-linejoin:round;stroke-dashoffset:3.25039"
       id="path1603" />
    <path
       id="path1605"
       style="fill:#f25f5c;fill-opacity:1;stroke:none;stroke-width:0.350232;stroke-linejoin:round;stroke-dashoffset:3.25039"
       d="m 199.29971,736.52733 c -19.20922,0.0556 -34.75195,15.64335 -34.75189,34.85264 2e-5,19.24857 15.60408,34.85261 34.85265,34.85263 5.82787,0 11.54334,-1.46104 16.63251,-4.22473 1.69718,-0.92166 2.20228,-3.17733 1.23624,-4.85058 l -7.69484,-13.3279 a 6.4662086,6.4662086 0 0 1 1.02761,-7.80539 l 0.44386,-0.44387 a 7.8827351,7.8827351 0 0 0 2.04321,-7.60289 l -7.31411,-27.45863 c -0.52467,-1.96972 -2.58459,-3.84442 -4.61945,-3.94704 -0.58435,-0.0295 -1.16954,-0.0442 -1.75503,-0.0442 -0.0336,-5e-5 -0.0672,-5e-5 -0.10076,0 z" />
    <g
       id="g1648"
       transform="translate(-7.6557335,174.62505)">
      <path
         id="path1607"
         style="fill:#ffd166;fill-opacity:0.25;stroke:none;stroke-width:0.350232;stroke-linejoin:round;stroke-dashoffset:3.25039"
         d="m 71.427247,799.90019 c -19.20922,0.0556 -34.75195,15.64335 -34.75189,34.85264 2e-5,19.24857 15.60408,34.85261 34.85265,34.85263 5.82787,0 11.54334,-1.46104 16.63251,-4.22473 1.69718,-0.92166 2.20228,-3.17733 1.23624,-4.85058 l -7.69484,-13.3279 a 6.4662086,6.4662086 0 0 1 1.02761,-7.80539 l 0.44386,-0.44387 a 7.8827351,7.8827351 0 0 0 2.04321,-7.60289 l -7.31411,-27.45863 c -0.52467,-1.96972 -2.58459,-3.84442 -4.61945,-3.94704 -0.58435,-0.0295 -1.16954,-0.0442 -1.75503,-0.0442 -0.0336,-5e-5 -0.0672,-5e-5 -0.10076,0 z" />
      <path
         d="m 68.252257,799.90019 c -19.20922,0.0556 -34.75195,15.64335 -34.75189,34.85264 2e-5,19.24857 15.60408,34.85261 34.85265,34.85263 5.82787,0 11.54334,-1.46104 16.63251,-4.22473 1.69718,-0.92166 2.20228,-3.17733 1.23624,-4.85058 l -7.69484,-13.3279 a 6.4662086,6.4662086 0 0 1 1.02761,-7.80539 l 0.44386,-0.44387 a 7.8827351,7.8827351 0 0 0 2.04321,-7.60289 l -7.31411,-27.45863 c -0.52467,-1.96972 -2.58459,-3.84442 -4.61945,-3.94704 -0.58435,-0.0295 -1.16954,-0.0442 -1.75503,-0.0442 -0.0336,-5e-5 -0.0672,-5e-5 -0.10076,0 z"
         style="fill:#ffd166;fill-opacity:0.5;stroke:none;stroke-width:0.350232;stroke-linejoin:round;stroke-dashoffset:3.25039"
         id="path1609" />
      <path
         id="path1611"
         style="fill:#ffd166;fill-opacity:1;stroke:none;stroke-width:0.350232;stroke-linejoin:round;stroke-dashoffset:3.25039"
         d="m 64.018897,799.90019 c -19.20922,0.0556 -34.75195,15.64335 -34.75189,34.85264 2e-5,19.24857 15.60408,34.85261 34.85265,34.85263 5.82787,0 11.54334,-1.46104 16.63251,-4.22473 1.69718,-0.92166 2.20228,-3.17733 1.23624,-4.85058 l -7.69484,-13.3279 a 6.4662086,6.4662086 0 0 1 1.02761,-7.80539 l 0.44386,-0.44387 a 7.8827351,7.8827351 0 0 0 2.04321,-7.60289 l -7.31411,-27.45863 c -0.52467,-1.96972 -2.58459,-3.84442 -4.61945,-3.94704 -0.58435,-0.0295 -1.16954,-0.0442 -1.75503,-0.0442 -0.0336,-5e-5 -0.0672,-5e-5 -0.10076,0 z" />
    </g>
    <path
       d="m 60.06733,245.48921 c -19.209211,0.0556 -34.751932,15.64336 -34.751872,34.85266 2e-5,19.24858 15.604071,34.85263 34.852632,34.85265 5.82787,0 11.54334,-1.46104 16.63251,-4.22474 1.69718,-0.92166 2.20228,-3.17733 1.23624,-4.85058 L 70.342,292.79129 a 6.4662086,6.4662086 0 0 1 1.02761,-7.80539 l 0.44386,-0.44387 a 7.8827351,7.8827351 0 0 0 2.04321,-7.60289 l -7.31411,-27.45865 c -0.52467,-1.96972 -2.58459,-3.84442 -4.61945,-3.94704 -0.58435,-0.0295 -1.16954,-0.0442 -1.75503,-0.0442 -0.0336,-5e-5 -0.0672,-5e-5 -0.10076,0 z"
       style="fill:#333333;fill-opacity:1;stroke:none;stroke-width:0.350232;stroke-linejoin:round;stroke-dashoffset:3.25039"
       id="path1617" />
    <path
       d="m 26.982275,277.98971 c -0.0524,0.75983 -0.079,1.52113 -0.076,2.28255 -0.0128,2.03095 0.17247,4.0588 0.53899,6.05338 l 40.595435,4.81727 c -0.14292,-0.71828 -0.17849,-1.45404 -0.11679,-2.18281 z"
       style="fill:#ffd166;fill-opacity:1;stroke:none;stroke-width:0.350232;stroke-linejoin:round;stroke-dashoffset:3.25039"
       id="path1619" />
    <path
       d="m 27.665955,287.41032 c 1.36173,6.23309 4.513397,12.07576 9.080574,16.54938 5.429617,5.41033 12.741424,8.84292 20.396161,9.50691 3.89777,0.35958 7.94037,-4.2e-4 11.73469,-1.02268 2.34153,-0.6219 4.74075,-1.60036 6.89208,-2.72438 1.25203,-0.46354 1.49403,-2.21649 0.66921,-3.1781 -2.63467,-4.70713 -5.48928,-9.29668 -8.00054,-14.06942 -0.0317,-0.0774 -0.0601,-0.15587 -0.0889,-0.2341 z"
       style="fill:#f25f5c;fill-opacity:1;stroke:none;stroke-width:0.350232;stroke-linejoin:round;stroke-dashoffset:3.25039"
       id="path1621" />
    <g
       id="g1696"
       transform="translate(-0.40874549,111.12501)">
      <path
         d="m 60.476075,488.90606 c -19.209211,0.0556 -34.751932,15.64336 -34.751872,34.85266 2e-5,19.24858 15.604071,34.85263 34.852632,34.85265 5.82787,0 11.54334,-1.46104 16.63251,-4.22474 1.69718,-0.92166 2.20228,-3.17733 1.23624,-4.85058 l -7.69484,-13.32791 a 6.4662086,6.4662086 0 0 1 1.02761,-7.80539 l 0.44386,-0.44387 a 7.8827351,7.8827351 0 0 0 2.04321,-7.60289 l -7.31411,-27.45865 c -0.52467,-1.96972 -2.58459,-3.84442 -4.61945,-3.94704 -0.58435,-0.0295 -1.16954,-0.0442 -1.75503,-0.0442 -0.0336,-5e-5 -0.0672,-5e-5 -0.10076,0 z"
         style="fill:#333333;fill-opacity:1;stroke:none;stroke-width:0.350232;stroke-linejoin:round;stroke-dashoffset:3.25039"
         id="path1627" />
    </g>
    <g
       id="g1687"
       transform="translate(-0.39396245,68.79167)">
      <path
         id="path1665"
         style="fill:#333333;fill-opacity:1;stroke:none;stroke-width:0.350232;stroke-linejoin:round;stroke-dashoffset:3.25039"
         d="m 61.46875,292.06765 c -10.435602,-0.33092 -20.878879,4.23141 -27.762986,12.07388 -6.660412,7.43426 -9.947794,17.74105 -8.840669,27.65975 0.999395,9.6766 6.153701,18.82678 13.90582,24.70449 7.791176,6.00109 18.116556,8.56491 27.80721,6.86266 4.117366,-0.72065 8.169726,-2.07777 11.748798,-4.25281 1.971172,-1.51798 2.141986,-4.61079 0.670871,-6.53181 -2.555235,-4.49457 -5.241827,-8.92024 -7.696542,-13.46831 -0.899566,-2.21139 -0.03867,-4.86439 1.796691,-6.32809 2.377569,-2.41549 3.088093,-6.19804 1.95934,-9.36608 -2.429718,-9.06192 -4.787145,-18.14671 -7.286078,-27.18781 -0.996712,-2.48723 -3.577205,-4.34657 -6.302455,-4.16587 z" />
      <path
         d="m 60.476075,293.11427 c -19.209211,0.0556 -34.751932,15.64336 -34.751872,34.85266 2e-5,19.24858 15.604071,34.85263 34.852632,34.85265 5.82787,0 11.54334,-1.46104 16.63251,-4.22474 1.69718,-0.92166 2.20228,-3.17733 1.23624,-4.85058 l -7.69484,-13.32791 a 6.4662086,6.4662086 0 0 1 1.02761,-7.80539 l 0.44386,-0.44387 a 7.8827351,7.8827351 0 0 0 2.04321,-7.60289 l -7.31411,-27.45865 c -0.52467,-1.96972 -2.58459,-3.84442 -4.61945,-3.94704 -0.58435,-0.0295 -1.16954,-0.0442 -1.75503,-0.0442 -0.0336,-5e-5 -0.0672,-5e-5 -0.10076,0 z"
         style="fill:#ffffff;fill-opacity:1;stroke:none;stroke-width:0.350232;stroke-linejoin:round;stroke-dashoffset:3.25039"
         id="path1633" />
      <path
         d="m 27.39102,325.61477 c -0.0524,0.75983 -0.079,1.52113 -0.076,2.28255 -0.0128,2.03095 0.17247,4.0588 0.53899,6.05338 l 40.595435,4.81727 c -0.14292,-0.71828 -0.17849,-1.45404 -0.11679,-2.18281 z"
         style="fill:#ffd166;fill-opacity:1;stroke:none;stroke-width:0.350232;stroke-linejoin:round;stroke-dashoffset:3.25039"
         id="path1635" />
      <path
         d="m 28.0747,335.03538 c 1.36173,6.23309 4.513397,12.07576 9.080574,16.54938 5.429617,5.41033 12.741424,8.84292 20.396161,9.50691 3.89777,0.35958 7.94037,-4.2e-4 11.73469,-1.02268 2.34153,-0.6219 4.74075,-1.60036 6.89208,-2.72438 1.25203,-0.46354 1.49403,-2.21649 0.66921,-3.1781 -2.63467,-4.70713 -5.48928,-9.29668 -8.00054,-14.06942 -0.0317,-0.0774 -0.0601,-0.15587 -0.0889,-0.2341 z"
         style="fill:#f25f5c;fill-opacity:1;stroke:none;stroke-width:0.350232;stroke-linejoin:round;stroke-dashoffset:3.25039"
         id="path1637" />
    </g>
    <g
       id="g1693"
       transform="translate(-0.39396245,89.958338)">
      <path
         d="m 61.46875,392.60938 c -10.435602,-0.33092 -20.878879,4.23141 -27.762986,12.07388 -6.660412,7.43426 -9.947794,17.74105 -8.840669,27.65975 0.999395,9.6766 6.153701,18.82678 13.90582,24.70449 7.791176,6.00109 18.116556,8.56491 27.80721,6.86266 4.117366,-0.72065 8.169726,-2.07777 11.748798,-4.25281 1.971172,-1.51798 2.141986,-4.61079 0.670871,-6.53181 -2.555235,-4.49457 -5.241827,-8.92024 -7.696542,-13.46831 -0.899566,-2.21139 -0.03867,-4.86439 1.796691,-6.32809 2.377569,-2.41549 3.088093,-6.19804 1.95934,-9.36608 -2.429718,-9.06192 -4.787145,-18.14671 -7.286078,-27.18781 -0.996712,-2.48723 -3.577205,-4.34657 -6.302455,-4.16587 z"
         style="fill:#333333;fill-opacity:1;stroke:none;stroke-width:0.350232;stroke-linejoin:round;stroke-dashoffset:3.25039"
         id="path1660" />
      <path
         id="path1639"
         style="fill:#ffffff;fill-opacity:1;stroke:none;stroke-width:0.350232;stroke-linejoin:round;stroke-dashoffset:3.25039"
         d="m 60.476075,393.656 c -19.209211,0.0556 -34.751932,15.64336 -34.751872,34.85266 2e-5,19.24858 15.604071,34.85263 34.852632,34.85265 5.82787,0 11.54334,-1.46104 16.63251,-4.22474 1.69718,-0.92166 2.20228,-3.17733 1.23624,-4.85058 l -7.69484,-13.32791 a 6.4662086,6.4662086 0 0 1 1.02761,-7.80539 l 0.44386,-0.44387 a 7.8827351,7.8827351 0 0 0 2.04321,-7.60289 l -7.31411,-27.45865 c -0.52467,-1.96972 -2.58459,-3.84442 -4.61945,-3.94704 -0.58435,-0.0295 -1.16954,-0.0442 -1.75503,-0.0442 -0.0336,-5e-5 -0.0672,-5e-5 -0.10076,0 z" />
      <path
         id="path1641"
         style="fill:#333333;fill-opacity:1;stroke:none;stroke-width:0.350232;stroke-linejoin:round;stroke-dashoffset:3.25039"
         d="m 27.39102,426.1565 c -0.0524,0.75983 -0.079,1.52113 -0.076,2.28255 -0.0128,2.03095 0.17247,4.0588 0.53899,6.05338 l 40.595435,4.81727 c -0.14292,-0.71828 -0.17849,-1.45404 -0.11679,-2.18281 z" />
      <path
         id="path1643"
         style="fill:#333333;fill-opacity:1;stroke:none;stroke-width:0.350232;stroke-linejoin:round;stroke-dashoffset:3.25039"
         d="m 28.0747,435.57711 c 1.36173,6.23309 4.513397,12.07576 9.080574,16.54938 5.429617,5.41033 12.741424,8.84292 20.396161,9.50691 3.89777,0.35958 7.94037,-4.2e-4 11.73469,-1.02268 2.34153,-0.6219 4.74075,-1.60036 6.89208,-2.72438 1.25203,-0.46354 1.49403,-2.21649 0.66921,-3.1781 -2.63467,-4.70713 -5.48928,-9.29668 -8.00054,-14.06942 -0.0317,-0.0774 -0.0601,-0.15587 -0.0889,-0.2341 z" />
    </g>
    <path
       d="m 167.48824,722.93757 h 36.04483 v 8.29809 h -36.04483 z"
       style="fill:#f25f5c;fill-opacity:1;stroke:none;stroke-width:0.36;stroke-linejoin:round;stroke-dashoffset:3.25039"
       id="rect924" />
    <path
       id="path927"
       style="fill:#f8aead;fill-opacity:1;stroke:none;stroke-width:0.209336;stroke-linejoin:round;stroke-dashoffset:3.25039"
       d="m 215.72089,722.93757 h -12.18782 v 8.29809 h 12.18782 z" />
    <text
       xml:space="preserve"
       style="font-style:normal;font-variant:normal;font-weight:normal;font-stretch:normal;font-size:52.91669999999999874px;line-height:1.25;font-family:Monda;-inkscape-font-specification:Monda;letter-spacing:-3.54805999999999999px;fill:#333333;fill-opacity:1;stroke:none;stroke-width:0.264583;"
       x="227.84247"
       y="784.27264"
       id="text878"><tspan
         sodipodi:role="line"
         id="tspan876"
         x="227.84247"
         y="784.27264"
         style="font-style:normal;font-variant:normal;font-weight:bold;font-stretch:normal;font-size:52.91669999999999874px;font-family:Monda;-inkscape-font-specification:'Monda Bold';stroke-width:0.264583;fill:#333333;fill-opacity:1;">erlimar</tspan></text>
    <text
       id="text890"
       y="800.62085"
       x="328.49396"
       style="font-style:normal;font-weight:normal;font-size:21.16669999999999874px;line-height:1.25;font-family:sans-serif;letter-spacing:0px;fill:#989898;fill-opacity:1;stroke:none;stroke-width:0.264583;"
       xml:space="preserve"><tspan
         style="font-style:normal;font-variant:normal;font-weight:normal;font-stretch:normal;font-size:21.16669999999999874px;font-family:Monda;-inkscape-font-specification:Monda;stroke-width:0.264583;fill:#989898;fill-opacity:1;"
         y="800.62085"
         x="328.49396"
         id="tspan888"
         sodipodi:role="line">.COM</tspan></text>
    <path
       d="m 215.72089,722.93757 h 17.77583 v 8.29809 h -17.77583 z"
       style="fill:#fbd6d5;fill-opacity:1;stroke:none;stroke-width:0.252811;stroke-linejoin:round;stroke-dashoffset:3.25039"
       id="path902" />
    <path
       d="m 208.82474,630.69393 c -19.20922,0.0556 -34.75195,15.64335 -34.75189,34.85264 2e-5,19.24857 15.60408,34.85261 34.85265,34.85263 5.82787,0 11.54334,-1.46104 16.63251,-4.22473 1.69718,-0.92166 2.20228,-3.17733 1.23624,-4.85058 l -7.69484,-13.3279 a 6.4662086,6.4662086 0 0 1 1.02761,-7.80539 l 0.44386,-0.44387 a 7.8827351,7.8827351 0 0 0 2.04321,-7.60289 l -7.31411,-27.45863 c -0.52467,-1.96972 -2.58459,-3.84442 -4.61945,-3.94704 -0.58435,-0.0295 -1.16954,-0.0442 -1.75503,-0.0442 -0.0336,-5e-5 -0.0672,-5e-5 -0.10076,0 z"
       style="fill:#cbcbcb;fill-opacity:1;stroke:none;stroke-width:0.350232;stroke-linejoin:round;stroke-dashoffset:3.25039"
       id="path904" />
    <path
       id="path906"
       style="fill:#989898;fill-opacity:1;stroke:none;stroke-width:0.350232;stroke-linejoin:round;stroke-dashoffset:3.25039"
       d="m 203.53307,630.69393 c -19.20922,0.0556 -34.75195,15.64335 -34.75189,34.85264 2e-5,19.24857 15.60408,34.85261 34.85265,34.85263 5.82787,0 11.54334,-1.46104 16.63251,-4.22473 1.69718,-0.92166 2.20228,-3.17733 1.23624,-4.85058 l -7.69484,-13.3279 a 6.4662086,6.4662086 0 0 1 1.02761,-7.80539 l 0.44386,-0.44387 a 7.8827351,7.8827351 0 0 0 2.04321,-7.60289 l -7.31411,-27.45863 c -0.52467,-1.96972 -2.58459,-3.84442 -4.61945,-3.94704 -0.58435,-0.0295 -1.16954,-0.0442 -1.75503,-0.0442 -0.0336,-5e-5 -0.0672,-5e-5 -0.10076,0 z" />
    <path
       d="m 199.29971,630.69393 c -19.20922,0.0556 -34.75195,15.64335 -34.75189,34.85264 2e-5,19.24857 15.60408,34.85261 34.85265,34.85263 5.82787,0 11.54334,-1.46104 16.63251,-4.22473 1.69718,-0.92166 2.20228,-3.17733 1.23624,-4.85058 l -7.69484,-13.3279 a 6.4662086,6.4662086 0 0 1 1.02761,-7.80539 l 0.44386,-0.44387 a 7.8827351,7.8827351 0 0 0 2.04321,-7.60289 l -7.31411,-27.45863 c -0.52467,-1.96972 -2.58459,-3.84442 -4.61945,-3.94704 -0.58435,-0.0295 -1.16954,-0.0442 -1.75503,-0.0442 -0.0336,-5e-5 -0.0672,-5e-5 -0.10076,0 z"
       style="fill:#333333;fill-opacity:1;stroke:none;stroke-width:0.350232;stroke-linejoin:round;stroke-dashoffset:3.25039"
       id="path908" />
    <text
       id="text912"
       y="678.4389"
       x="227.84247"
       style="font-style:normal;font-variant:normal;font-weight:normal;font-stretch:normal;font-size:52.9167px;line-height:1.25;font-family:Monda;-inkscape-font-specification:Monda;letter-spacing:-3.54806px;fill:#333333;fill-opacity:1;stroke:none;stroke-width:0.264583"
       xml:space="preserve"><tspan
         style="font-style:normal;font-variant:normal;font-weight:bold;font-stretch:normal;font-size:52.9167px;font-family:Monda;-inkscape-font-specification:'Monda Bold';fill:#333333;fill-opacity:1;stroke-width:0.264583"
         y="678.4389"
         x="227.84247"
         id="tspan910"
         sodipodi:role="line">erlimar</tspan></text>
    <text
       xml:space="preserve"
       style="font-style:normal;font-weight:normal;font-size:21.16669999999999874px;line-height:1.25;font-family:sans-serif;letter-spacing:0px;fill:#989898;fill-opacity:1;stroke:none;stroke-width:0.264583;"
       x="328.49396"
       y="694.78711"
       id="text916"><tspan
         sodipodi:role="line"
         id="tspan914"
         x="328.49396"
         y="694.78711"
         style="font-style:normal;font-variant:normal;font-weight:normal;font-stretch:normal;font-size:21.16669999999999874px;font-family:Monda;-inkscape-font-specification:Monda;fill:#989898;fill-opacity:1;stroke-width:0.264583;">.COM</tspan></text>
    <path
       d="m 208.82474,842.36073 c -19.20922,0.0556 -34.75195,15.64335 -34.75189,34.85264 2e-5,19.24857 15.60408,34.85261 34.85265,34.85263 5.82787,0 11.54334,-1.46104 16.63251,-4.22473 1.69718,-0.92166 2.20228,-3.17733 1.23624,-4.85058 l -7.69484,-13.3279 a 6.4662086,6.4662086 0 0 1 1.02761,-7.80539 l 0.44386,-0.44387 a 7.8827351,7.8827351 0 0 0 2.04321,-7.60289 l -7.31411,-27.45863 c -0.52467,-1.96972 -2.58459,-3.84442 -4.61945,-3.94704 -0.58435,-0.0295 -1.16954,-0.0442 -1.75503,-0.0442 -0.0336,-5e-5 -0.0672,-5e-5 -0.10076,0 z"
       style="fill:#fff2cb;fill-opacity:1;stroke:none;stroke-width:0.350232;stroke-linejoin:round;stroke-dashoffset:3.25039"
       id="path918" />
    <path
       id="path920"
       style="fill:#ffe598;fill-opacity:1;stroke:none;stroke-width:0.350232;stroke-linejoin:round;stroke-dashoffset:3.25039"
       d="m 203.53307,842.36073 c -19.20922,0.0556 -34.75195,15.64335 -34.75189,34.85264 2e-5,19.24857 15.60408,34.85261 34.85265,34.85263 5.82787,0 11.54334,-1.46104 16.63251,-4.22473 1.69718,-0.92166 2.20228,-3.17733 1.23624,-4.85058 l -7.69484,-13.3279 a 6.4662086,6.4662086 0 0 1 1.02761,-7.80539 l 0.44386,-0.44387 a 7.8827351,7.8827351 0 0 0 2.04321,-7.60289 l -7.31411,-27.45863 c -0.52467,-1.96972 -2.58459,-3.84442 -4.61945,-3.94704 -0.58435,-0.0295 -1.16954,-0.0442 -1.75503,-0.0442 -0.0336,-5e-5 -0.0672,-5e-5 -0.10076,0 z" />
    <path
       d="m 199.29971,842.36073 c -19.20922,0.0556 -34.75195,15.64335 -34.75189,34.85264 2e-5,19.24857 15.60408,34.85261 34.85265,34.85263 5.82787,0 11.54334,-1.46104 16.63251,-4.22473 1.69718,-0.92166 2.20228,-3.17733 1.23624,-4.85058 l -7.69484,-13.3279 a 6.4662086,6.4662086 0 0 1 1.02761,-7.80539 l 0.44386,-0.44387 a 7.8827351,7.8827351 0 0 0 2.04321,-7.60289 l -7.31411,-27.45863 c -0.52467,-1.96972 -2.58459,-3.84442 -4.61945,-3.94704 -0.58435,-0.0295 -1.16954,-0.0442 -1.75503,-0.0442 -0.0336,-5e-5 -0.0672,-5e-5 -0.10076,0 z"
       style="fill:#ffcc32;fill-opacity:1;stroke:none;stroke-width:0.350232;stroke-linejoin:round;stroke-dashoffset:3.25039"
       id="path922" />
    <text
       id="text926"
       y="890.10638"
       x="227.84247"
       style="font-style:normal;font-variant:normal;font-weight:normal;font-stretch:normal;font-size:52.9167px;line-height:1.25;font-family:Monda;-inkscape-font-specification:Monda;letter-spacing:-3.54806px;fill:#333333;fill-opacity:1;stroke:none;stroke-width:0.264583"
       xml:space="preserve"><tspan
         style="font-style:normal;font-variant:normal;font-weight:bold;font-stretch:normal;font-size:52.9167px;font-family:Monda;-inkscape-font-specification:'Monda Bold';fill:#333333;fill-opacity:1;stroke-width:0.264583"
         y="890.10638"
         x="227.84247"
         id="tspan924"
         sodipodi:role="line">erlimar</tspan></text>
    <text
       xml:space="preserve"
       style="font-style:normal;font-weight:normal;font-size:21.16669999999999874px;line-height:1.25;font-family:sans-serif;letter-spacing:0px;fill:#989898;fill-opacity:1;stroke:none;stroke-width:0.264583;"
       x="328.49396"
       y="906.45459"
       id="text930"><tspan
         sodipodi:role="line"
         id="tspan928"
         x="328.49396"
         y="906.45459"
         style="font-style:normal;font-variant:normal;font-weight:normal;font-stretch:normal;font-size:21.16669999999999874px;font-family:Monda;-inkscape-font-specification:Monda;fill:#989898;fill-opacity:1;stroke-width:0.264583;">.COM</tspan></text>
    <path
       id="path932"
       style="fill:#ffcc32;fill-opacity:1;stroke:none;stroke-width:0.36;stroke-linejoin:round;stroke-dashoffset:3.25039"
       d="m 167.48824,828.77097 h 36.04483 v 8.29809 h -36.04483 z" />
    <path
       d="m 215.72089,828.77097 h -12.18782 v 8.29809 h 12.18782 z"
       style="fill:#ffe598;fill-opacity:1;stroke:none;stroke-width:0.209336;stroke-linejoin:round;stroke-dashoffset:3.25039"
       id="path934" />
    <path
       id="path936"
       style="fill:#fff2cb;fill-opacity:1;stroke:none;stroke-width:0.252811;stroke-linejoin:round;stroke-dashoffset:3.25039"
       d="m 215.72089,828.77097 h 17.77583 v 8.29809 h -17.77583 z" />
    <path
       id="path938"
       style="fill:#333333;fill-opacity:1;stroke:none;stroke-width:0.36;stroke-linejoin:round;stroke-dashoffset:3.25039"
       d="m 167.48824,617.10417 h 36.04483 v 8.29809 h -36.04483 z" />
    <path
       d="m 215.72089,617.10417 h -12.18782 v 8.29809 h 12.18782 z"
       style="fill:#989898;fill-opacity:1;stroke:none;stroke-width:0.209336;stroke-linejoin:round;stroke-dashoffset:3.25039"
       id="path940" />
    <path
       id="path942"
       style="fill:#cbcbcb;fill-opacity:1;stroke:none;stroke-width:0.252811;stroke-linejoin:round;stroke-dashoffset:3.25039"
       d="m 215.72089,617.10417 h 17.77583 v 8.29809 h -17.77583 z" />
    <path
       id="path948"
       style="font-style:normal;font-variant:normal;font-weight:bold;font-stretch:normal;font-size:52.9167px;line-height:1.25;font-family:Monda;-inkscape-font-specification:'Monda Bold';letter-spacing:-3.54806px;fill:#333333;fill-opacity:1;stroke:none;stroke-width:0.366286"
       d="m 307.34336,450.38875 v 41.56495 c 0,4.69781 1.06117,8.04827 3.18355,10.05142 2.12237,2.00311 5.38935,3.00469 9.80102,3.00469 h 4.07779 v -7e-4 h 8.95974 v -26.43417 c 0,-1.74081 0.84656,-3.11201 2.53969,-4.11358 1.69312,-1.02542 3.46968,-1.53811 5.32976,-1.53811 1.88388,0 3.33852,0.34577 4.36394,1.03732 1.02542,0.66771 1.53811,1.93161 1.53811,3.79165 v 27.25689 h 9.72948 v -26.82763 c 0.14311,-1.59775 1.04927,-2.87356 2.71855,-3.82744 1.69312,-0.95385 3.44584,-1.43079 5.25822,-1.43079 1.8362,0 3.23124,0.34577 4.18512,1.03732 0.97769,0.66771 1.46658,1.93161 1.46658,3.79165 v 27.25689 h 9.72948 v -28.40153 c 0,-3.24318 -1.1208,-5.8544 -3.3624,-7.83366 -2.21775,-2.00315 -5.16284,-3.00469 -8.83523,-3.00469 -5.34171,0 -9.59832,1.5858 -12.76996,4.75741 -1.90773,-3.17161 -5.42515,-4.75741 -10.55221,-4.75741 -1.95542,0 -4.00626,0.36962 -6.15247,1.10886 -2.12234,0.7154 -3.85125,1.76466 -5.18666,3.14776 v -3.43394 h -9.72949 v 31.18517 c -2.40789,-0.0356 -4.10028,-0.4831 -5.06076,-1.35212 -1.00157,-0.93003 -1.50236,-2.46811 -1.50236,-4.61433 v -41.42188 z m 16.29261,0.0666 v 8.62059 h 9.72949 v -8.62059 z m -57.94625,14.88538 c -5.05553,0 -9.04986,1.07311 -11.98301,3.21933 -2.93316,2.14622 -4.39974,5.1509 -4.39974,9.01409 v 14.98768 c 0,4.81707 1.59774,8.20331 4.79321,10.15874 1.5262,0.95388 3.24316,1.63349 5.1509,2.03889 1.90775,0.42922 4.54281,0.63192 7.90521,0.60811 3.3624,0 6.22402,-0.45309 8.58484,-1.35929 4.03011,-1.57386 6.1167,-5.31782 6.25978,-11.23181 h -9.01408 c -0.0477,1.3831 -0.22654,2.5039 -0.53655,3.3624 -0.31001,0.83462 -1.00157,1.55002 -2.07468,2.14618 -0.45308,0.23849 -1.93159,0.35772 -4.43549,0.35772 -2.50393,0 -4.2805,-0.32193 -5.32976,-0.96579 -1.04926,-0.6677 -1.57389,-2.06274 -1.57389,-4.18511 v -6.25977 h 23.00022 v -9.30027 c 0,-8.39408 -5.44898,-12.5911 -16.34696,-12.5911 z m 39.75067,0.21464 c -2.9093,0 -5.92593,0.75115 -9.04984,2.25351 -1.81238,0.8585 -3.00471,1.83619 -3.57703,2.93315 v -4.57859 h -9.72949 v 38.41717 h 9.72949 v -25.75453 c 0.23847,-0.95385 1.14465,-1.81235 2.71853,-2.57543 2.81392,-1.3831 6.35515,-2.18197 10.62374,-2.39662 l 0.21464,-8.26291 c -0.28618,-0.0238 -0.59616,-0.0358 -0.93004,-0.0358 z m 92.46447,0.21391 c -5.29397,0 -9.21679,1.08498 -11.76838,3.25508 -2.55163,2.14618 -3.8274,5.13897 -3.8274,8.97831 v 1.14464 h 9.12137 v -1.50236 c 0,-1.64543 0.42929,-2.89736 1.28772,-3.75586 0.8585,-0.88231 2.42046,-1.32351 4.68591,-1.32351 4.0301,-0.0238 6.04515,1.44273 6.04515,4.39976 0,1.43079 -0.6558,2.55163 -1.96736,3.36237 -1.28772,0.81081 -3.54122,1.72891 -6.76055,2.75433 -5.29398,1.66928 -8.88296,3.41009 -10.76681,5.22244 -1.86011,1.81235 -2.79008,4.22086 -2.79008,7.22559 0,3.00465 1.02538,5.47279 3.07622,7.40441 2.07469,1.93157 4.60243,2.89736 7.58327,2.8974 2.98088,0 5.50858,-0.47694 7.5833,-1.43083 2.09846,-0.97773 3.70814,-2.19391 4.82898,-3.64854 0.71539,1.57386 1.81235,2.73044 3.29083,3.46968 1.47851,0.71543 3.54122,1.07311 6.18826,1.07311 h 2.0389 l 0.39347,-7.08248 c -1.21619,0 -2.0389,-0.27424 -2.46815,-0.82271 -0.42925,-0.54848 -0.64386,-1.68119 -0.64386,-3.39819 v -15.08855 c 0.35412,-0.81462 1.21999,-1.55592 2.59833,-2.22421 2.81392,-1.38309 6.35521,-2.18196 10.62373,-2.39661 l 0.21465,-8.26291 c -0.28618,-0.0233 -0.59617,-0.0358 -0.93004,-0.0358 -2.9093,0 -5.92593,0.75118 -9.04984,2.2535 -1.81235,0.85851 -3.00469,1.83624 -3.57701,2.93315 v -4.57858 h -8.22786 c -1.90597,-0.54767 -4.16596,-0.82268 -6.78275,-0.82268 z m -132.32246,6.36778 c 2.00314,-0.0238 3.49357,0.10733 4.47128,0.39347 1.86005,0.52463 2.79007,1.94352 2.79007,4.25665 v 4.50705 h -13.80729 v -4.32819 c 0,-1.88388 0.59617,-3.1597 1.78851,-3.8274 1.19234,-0.6677 2.77815,-1.00158 4.75743,-1.00158 z m 137.86683,13.41313 v 9.58638 c -0.83462,1.2639 -1.97926,2.2416 -3.43393,2.93314 -1.45464,0.69159 -2.83777,1.03737 -4.14934,1.03737 -3.33855,0 -5.00783,-1.53812 -5.00783,-4.61437 0,-1.1208 0.36962,-2.12234 1.1089,-3.00469 0.7392,-0.90619 2.55159,-1.88388 5.43705,-2.93315 2.88545,-1.07311 4.90051,-2.07472 6.04515,-3.00468 z" />
    <g
       id="g987"
       transform="translate(14.281489,-287.04127)">
      <path
         id="path978"
         style="fill:#fbd6d5;fill-opacity:1;stroke:none;stroke-width:0.350232;stroke-linejoin:round;stroke-dashoffset:3.25039"
         d="m 208.82474,736.52733 c -19.20922,0.0556 -34.75195,15.64335 -34.75189,34.85264 2e-5,19.24857 15.60408,34.85261 34.85265,34.85263 5.82787,0 11.54334,-1.46104 16.63251,-4.22473 1.69718,-0.92166 2.20228,-3.17733 1.23624,-4.85058 l -7.69484,-13.3279 a 6.4662086,6.4662086 0 0 1 1.02761,-7.80539 l 0.44386,-0.44387 a 7.8827351,7.8827351 0 0 0 2.04321,-7.60289 l -7.31411,-27.45863 c -0.52467,-1.96972 -2.58459,-3.84442 -4.61945,-3.94704 -0.58435,-0.0295 -1.16954,-0.0442 -1.75503,-0.0442 -0.0336,-5e-5 -0.0672,-5e-5 -0.10076,0 z" />
      <path
         d="m 203.53307,736.52733 c -19.20922,0.0556 -34.75195,15.64335 -34.75189,34.85264 2e-5,19.24857 15.60408,34.85261 34.85265,34.85263 5.82787,0 11.54334,-1.46104 16.63251,-4.22473 1.69718,-0.92166 2.20228,-3.17733 1.23624,-4.85058 l -7.69484,-13.3279 a 6.4662086,6.4662086 0 0 1 1.02761,-7.80539 l 0.44386,-0.44387 a 7.8827351,7.8827351 0 0 0 2.04321,-7.60289 l -7.31411,-27.45863 c -0.52467,-1.96972 -2.58459,-3.84442 -4.61945,-3.94704 -0.58435,-0.0295 -1.16954,-0.0442 -1.75503,-0.0442 -0.0336,-5e-5 -0.0672,-5e-5 -0.10076,0 z"
         style="fill:#f8aead;fill-opacity:1;stroke:none;stroke-width:0.350232;stroke-linejoin:round;stroke-dashoffset:3.25039"
         id="path980" />
      <path
         id="path982"
         style="fill:#f25f5c;fill-opacity:1;stroke:none;stroke-width:0.350232;stroke-linejoin:round;stroke-dashoffset:3.25039"
         d="m 199.29971,736.52733 c -19.20922,0.0556 -34.75195,15.64335 -34.75189,34.85264 2e-5,19.24857 15.60408,34.85261 34.85265,34.85263 5.82787,0 11.54334,-1.46104 16.63251,-4.22473 1.69718,-0.92166 2.20228,-3.17733 1.23624,-4.85058 l -7.69484,-13.3279 a 6.4662086,6.4662086 0 0 1 1.02761,-7.80539 l 0.44386,-0.44387 a 7.8827351,7.8827351 0 0 0 2.04321,-7.60289 l -7.31411,-27.45863 c -0.52467,-1.96972 -2.58459,-3.84442 -4.61945,-3.94704 -0.58435,-0.0295 -1.16954,-0.0442 -1.75503,-0.0442 -0.0336,-5e-5 -0.0672,-5e-5 -0.10076,0 z" />
    </g>
    <path
       id="path995"
       style="font-style:normal;font-variant:normal;font-weight:normal;font-stretch:normal;font-size:54.6806px;line-height:1.25;font-family:Monda;-inkscape-font-specification:Monda;letter-spacing:-3.54806px;fill:#989898;fill-opacity:1;stroke:none;stroke-width:0.999999"
       d="M 1675.502 1760.6387 C 1657.6742 1760.6387 1644.0836 1763.9021 1634.7324 1770.4277 C 1623.6994 1778.1643 1618.1836 1792.6612 1618.1836 1813.9199 L 1618.1836 1859.7344 C 1618.1836 1863.5018 1618.3792 1867.066 1618.752 1870.4434 A 22.46938 22.46938 0 0 0 1605.248 1865.9336 A 22.46938 22.46938 0 0 0 1582.7793 1888.4023 A 22.46938 22.46938 0 0 0 1605.248 1910.873 A 22.46938 22.46938 0 0 0 1626.9258 1894.3203 C 1630.0627 1898.2763 1634.312 1901.649 1639.6777 1904.4375 C 1648.2888 1908.8103 1661.7767 1910.9961 1680.1426 1910.9961 C 1702.0067 1910.9961 1716.8426 1905.4803 1724.6465 1894.4473 C 1728.8848 1888.5271 1731.0039 1878.2342 1731.0039 1863.5684 L 1711.7285 1863.5684 C 1711.7285 1868.2775 1711.4924 1872.314 1711.0215 1875.6777 C 1710.1469 1881.867 1707.826 1886.5755 1704.0586 1889.8047 C 1700.2912 1893.0339 1691.5462 1894.6484 1677.8223 1894.6484 C 1664.1656 1894.6484 1654.2096 1892.5293 1647.9531 1888.291 C 1641.6966 1883.9855 1638.5684 1875.5089 1638.5684 1862.8613 L 1638.5684 1810.1855 C 1638.5684 1797.4034 1641.6623 1788.6241 1647.8516 1783.8477 C 1651.0807 1781.3585 1654.982 1779.6107 1659.5566 1778.6016 C 1664.1313 1777.5252 1670.4221 1776.9863 1678.4277 1776.9863 C 1686.4334 1776.9863 1692.3205 1777.5575 1696.0879 1778.7012 C 1699.8553 1779.7776 1702.5456 1781.0571 1704.1602 1782.5371 C 1705.842 1784.0171 1707.5232 1786.5057 1709.2051 1790.0039 C 1710.8869 1793.4349 1711.7285 1800.0608 1711.7285 1809.8828 L 1731.0039 1808.168 C 1731.0039 1801.6423 1730.5317 1796.0256 1729.5898 1791.3164 C 1727.5716 1780.7543 1722.526 1773.0165 1714.4531 1768.1055 C 1706.3802 1763.1272 1693.3969 1760.6387 1675.502 1760.6387 z M 1792.248 1760.6387 C 1773.5458 1760.6387 1759.4182 1763.8678 1749.8652 1770.3262 C 1738.025 1778.3991 1732.1055 1792.896 1732.1055 1813.8184 L 1732.1055 1859.7344 C 1732.1055 1870.0946 1733.6858 1879.0071 1736.8477 1886.4746 C 1740.0096 1893.942 1745.9976 1899.8958 1754.8105 1904.3359 C 1763.6235 1908.7761 1776.5401 1910.9961 1793.5605 1910.9961 C 1810.581 1910.9961 1823.7661 1907.7003 1833.1172 1901.1074 C 1844.7556 1892.9 1850.5742 1878.6372 1850.5742 1858.3203 L 1850.5742 1815.1309 C 1850.5742 1808.6053 1850.0697 1802.7524 1849.0605 1797.5723 C 1844.2841 1772.9499 1825.347 1760.6387 1792.248 1760.6387 z M 1852.1348 1762.8594 L 1852.1348 1908.7773 L 1871.5098 1908.7773 L 1871.5098 1796.0586 L 1912.4805 1862.5586 L 1927.5156 1862.5586 L 1968.3848 1795.6543 L 1968.3848 1908.7773 L 1987.5586 1908.7773 L 1987.5586 1762.8594 L 1969.5957 1762.8594 L 1919.9473 1844.3945 L 1870.8027 1762.8594 L 1852.1348 1762.8594 z M 1792.248 1776.9863 C 1805.4338 1776.9863 1815.0547 1779.3416 1821.1094 1784.0508 C 1827.2313 1788.76 1830.291 1797.4384 1830.291 1810.0859 L 1830.291 1862.8613 C 1830.291 1875.5089 1827.2637 1883.9855 1821.209 1888.291 C 1815.1543 1892.5293 1805.4668 1894.6484 1792.1465 1894.6484 C 1778.8934 1894.6484 1768.9718 1892.497 1762.3789 1888.1914 C 1755.786 1883.8858 1752.4883 1875.4416 1752.4883 1862.8613 L 1752.4883 1810.0859 C 1752.4883 1803.6276 1753.3299 1798.245 1755.0117 1793.9395 C 1759.3845 1782.6374 1771.7966 1776.9863 1792.248 1776.9863 z "
       transform="scale(0.26458333)" />
    <g
       id="g1637">
      <path
         id="path1006"
         style="font-style:normal;font-variant:normal;font-weight:bold;font-stretch:normal;font-size:52.9167px;line-height:1.25;font-family:Monda;-inkscape-font-specification:'Monda Bold';letter-spacing:-3.54806px;fill:#333333;fill-opacity:1;stroke:none;stroke-width:0.366286"
         d="m 307.34336,318.097 v 41.56495 c 0,4.69781 1.06117,8.04827 3.18355,10.05142 2.12237,2.00311 5.38935,3.00469 9.80102,3.00469 h 4.07779 v -7e-4 h 8.95974 v -26.43417 c 0,-1.74081 0.84656,-3.11201 2.53969,-4.11358 1.69312,-1.02542 3.46968,-1.53811 5.32976,-1.53811 1.88388,0 3.33852,0.34577 4.36394,1.03732 1.02542,0.66771 1.53811,1.93161 1.53811,3.79165 v 27.25689 h 9.72948 v -26.82763 c 0.14311,-1.59775 1.04927,-2.87356 2.71855,-3.82744 1.69312,-0.95385 3.44584,-1.43079 5.25822,-1.43079 1.8362,0 3.23124,0.34577 4.18512,1.03732 0.97769,0.66771 1.46658,1.93161 1.46658,3.79165 v 27.25689 h 9.72948 v -28.40153 c 0,-3.24318 -1.1208,-5.8544 -3.3624,-7.83366 -2.21775,-2.00315 -5.16284,-3.00469 -8.83523,-3.00469 -5.34171,0 -9.59832,1.5858 -12.76996,4.75741 -1.90773,-3.17161 -5.42515,-4.75741 -10.55221,-4.75741 -1.95542,0 -4.00626,0.36962 -6.15247,1.10886 -2.12234,0.7154 -3.85125,1.76466 -5.18666,3.14776 v -3.43394 h -9.72949 v 31.18517 c -2.40789,-0.0356 -4.10028,-0.4831 -5.06076,-1.35212 -1.00157,-0.93003 -1.50236,-2.46811 -1.50236,-4.61433 V 318.097 Z m 16.29261,0.0666 v 8.62059 h 9.72949 v -8.62059 z m -57.94625,14.88538 c -5.05553,0 -9.04986,1.07311 -11.98301,3.21933 -2.93316,2.14622 -4.39974,5.1509 -4.39974,9.01409 v 14.98768 c 0,4.81707 1.59774,8.20331 4.79321,10.15874 1.5262,0.95388 3.24316,1.63349 5.1509,2.03889 1.90775,0.42922 4.54281,0.63192 7.90521,0.60811 3.3624,0 6.22402,-0.45309 8.58484,-1.35929 4.03011,-1.57386 6.1167,-5.31782 6.25978,-11.23181 h -9.01408 c -0.0477,1.3831 -0.22654,2.5039 -0.53655,3.3624 -0.31001,0.83462 -1.00157,1.55002 -2.07468,2.14618 -0.45308,0.23849 -1.93159,0.35772 -4.43549,0.35772 -2.50393,0 -4.2805,-0.32193 -5.32976,-0.96579 -1.04926,-0.6677 -1.57389,-2.06274 -1.57389,-4.18511 v -6.25977 h 23.00022 v -9.30027 c 0,-8.39408 -5.44898,-12.5911 -16.34696,-12.5911 z m 39.75067,0.21464 c -2.9093,0 -5.92593,0.75115 -9.04984,2.25351 -1.81238,0.8585 -3.00471,1.83619 -3.57703,2.93315 v -4.57859 h -9.72949 v 38.41717 h 9.72949 v -25.75453 c 0.23847,-0.95385 1.14465,-1.81235 2.71853,-2.57543 2.81392,-1.3831 6.35515,-2.18197 10.62374,-2.39662 l 0.21464,-8.26291 c -0.28618,-0.0238 -0.59616,-0.0358 -0.93004,-0.0358 z m 92.46447,0.21391 c -5.29397,0 -9.21679,1.08498 -11.76838,3.25508 -2.55163,2.14618 -3.8274,5.13897 -3.8274,8.97831 v 1.14464 h 9.12137 v -1.50236 c 0,-1.64543 0.42929,-2.89736 1.28772,-3.75586 0.8585,-0.88231 2.42046,-1.32351 4.68591,-1.32351 4.0301,-0.0238 6.04515,1.44273 6.04515,4.39976 0,1.43079 -0.6558,2.55163 -1.96736,3.36237 -1.28772,0.81081 -3.54122,1.72891 -6.76055,2.75433 -5.29398,1.66928 -8.88296,3.41009 -10.76681,5.22244 -1.86011,1.81235 -2.79008,4.22086 -2.79008,7.22559 0,3.00465 1.02538,5.47279 3.07622,7.40441 2.07469,1.93157 4.60243,2.89736 7.58327,2.8974 2.98088,0 5.50858,-0.47694 7.5833,-1.43083 2.09846,-0.97773 3.70814,-2.19391 4.82898,-3.64854 0.71539,1.57386 1.81235,2.73044 3.29083,3.46968 1.47851,0.71543 3.54122,1.07311 6.18826,1.07311 h 2.0389 l 0.39347,-7.08248 c -1.21619,0 -2.0389,-0.27424 -2.46815,-0.82271 -0.42925,-0.54848 -0.64386,-1.68119 -0.64386,-3.39819 v -15.08855 c 0.35412,-0.81462 1.21999,-1.55592 2.59833,-2.22421 2.81392,-1.38309 6.35521,-2.18196 10.62373,-2.39661 l 0.21465,-8.26291 c -0.28618,-0.0233 -0.59617,-0.0358 -0.93004,-0.0358 -2.9093,0 -5.92593,0.75118 -9.04984,2.2535 -1.81235,0.85851 -3.00469,1.83624 -3.57701,2.93315 v -4.57858 h -8.22786 c -1.90597,-0.54767 -4.16596,-0.82268 -6.78275,-0.82268 z m -132.32246,6.36778 c 2.00314,-0.0238 3.49357,0.10733 4.47128,0.39347 1.86005,0.52463 2.79007,1.94352 2.79007,4.25665 v 4.50705 h -13.80729 v -4.32819 c 0,-1.88388 0.59617,-3.1597 1.78851,-3.8274 1.19234,-0.6677 2.77815,-1.00158 4.75743,-1.00158 z m 137.86683,13.41313 v 9.58638 c -0.83462,1.2639 -1.97926,2.2416 -3.43393,2.93314 -1.45464,0.69159 -2.83777,1.03737 -4.14934,1.03737 -3.33855,0 -5.00783,-1.53812 -5.00783,-4.61437 0,-1.1208 0.36962,-2.12234 1.1089,-3.00469 0.7392,-0.90619 2.55159,-1.88388 5.43705,-2.93315 2.88545,-1.07311 4.90051,-2.07472 6.04515,-3.00468 z" />
      <path
         d="m 213.5812,317.19431 c -19.20922,0.0556 -34.75195,15.64335 -34.75189,34.85264 2e-5,19.24857 15.60408,34.85261 34.85265,34.85263 5.82787,0 11.54334,-1.46104 16.63251,-4.22473 1.69718,-0.92166 2.20228,-3.17733 1.23624,-4.85058 l -7.69484,-13.3279 a 6.4662086,6.4662086 0 0 1 1.02761,-7.80539 l 0.44386,-0.44387 a 7.8827351,7.8827351 0 0 0 2.04321,-7.60289 l -7.31411,-27.45863 c -0.52467,-1.96972 -2.58459,-3.84442 -4.61945,-3.94704 -0.58435,-0.0295 -1.16954,-0.0442 -1.75503,-0.0442 -0.0336,-5e-5 -0.0672,-5e-5 -0.10076,0 z"
         style="fill:#f25f5c;fill-opacity:1;stroke:none;stroke-width:0.350232;stroke-linejoin:round;stroke-dashoffset:3.25039"
         id="path1012" />
      <path
         id="path1016"
         style="font-style:normal;font-variant:normal;font-weight:normal;font-stretch:normal;font-size:54.68059999999999832px;line-height:1.25;font-family:Monda;-inkscape-font-specification:Monda;letter-spacing:-3.54805999999999999px;fill:#989898;fill-opacity:1;stroke:none;stroke-width:0.264583"
         d="m 443.3099,333.5439 c -4.71694,0 -8.31279,0.86344 -10.78696,2.59001 -2.91915,2.04698 -4.37853,5.88261 -4.37853,11.50731 v 12.12175 c 0,0.9968 0.0518,1.93982 0.15038,2.83343 a 5.9450234,5.9450234 0 0 0 -3.57293,-1.19322 5.9450234,5.9450234 0 0 0 -5.94484,5.94484 5.9450234,5.9450234 0 0 0 5.94484,5.94537 5.9450234,5.9450234 0 0 0 5.73559,-4.37956 c 0.82997,1.04669 1.95426,1.93905 3.37394,2.67684 2.27835,1.15697 5.84702,1.7353 10.70633,1.7353 5.78488,0 9.71021,-1.45939 11.77499,-4.37854 1.12139,-1.56639 1.68207,-4.28972 1.68207,-8.17004 h -5.09995 c 0,1.24595 -0.0625,2.31394 -0.18706,3.20392 -0.23141,1.63758 -0.84548,2.88337 -1.84227,3.73776 -0.99679,0.8544 -3.31057,1.28157 -6.94169,1.28157 -3.61333,0 -6.24753,-0.56068 -7.90289,-1.68207 -1.65537,-1.13916 -2.48304,-3.38193 -2.48304,-6.72827 v -13.93714 c 0,-3.38193 0.8186,-5.70479 2.45618,-6.96854 0.85437,-0.6586 1.88659,-1.12104 3.09695,-1.38803 1.21039,-0.2848 2.87483,-0.42738 4.99298,-0.42738 2.11817,0 3.6758,0.15113 4.67259,0.45373 0.9968,0.2848 1.7086,0.62333 2.1358,1.01492 0.44498,0.39158 0.88979,1.05002 1.3348,1.97559 0.44497,0.90778 0.66765,2.66088 0.66765,5.25962 l 5.09995,-0.45371 c 0,-1.72659 -0.12494,-3.21267 -0.37415,-4.45865 -0.53398,-2.79455 -1.86896,-4.84185 -4.00492,-6.14122 -2.13595,-1.31717 -5.57112,-1.97559 -10.30581,-1.97559 z m 30.88904,0 c -4.94829,0 -8.68621,0.85437 -11.21378,2.56315 -3.13272,2.13596 -4.69892,5.9716 -4.69892,11.50732 v 12.1486 c 0,2.74114 0.41812,5.09924 1.25471,7.07501 0.83658,1.97575 2.42091,3.55103 4.75266,4.72581 2.33177,1.1748 5.74929,1.76218 10.2526,1.76218 4.50334,0 7.9919,-0.87202 10.46604,-2.61639 3.07933,-2.17154 4.61883,-5.94524 4.61883,-11.32075 v -11.4272 c 0,-1.72656 -0.13348,-3.27514 -0.4005,-4.64571 -1.26375,-6.51468 -6.27419,-9.77202 -15.03164,-9.77202 z m 15.84505,0.58756 v 38.60745 h 5.12631 v -29.82349 l 10.84016,17.59479 h 3.97804 l 10.81331,-17.70176 v 29.93046 h 5.07306 v -38.60745 h -4.75268 l -13.13614,21.57283 -13.00284,-21.57283 z m -15.84505,3.73775 c 3.48875,0 6.03428,0.62317 7.63625,1.86914 1.61975,1.24598 2.4293,3.54214 2.4293,6.88846 v 13.96349 c 0,3.34634 -0.80098,5.58911 -2.40295,6.72827 -1.60197,1.12139 -4.16512,1.68207 -7.68945,1.68207 -3.50655,0 -6.13164,-0.56923 -7.87601,-1.70842 -1.74437,-1.13919 -2.61689,-3.37338 -2.61689,-6.70192 v -13.96349 c 0,-1.70876 0.22267,-3.13291 0.66765,-4.27207 1.15697,-2.99035 4.441,-4.48553 9.8521,-4.48553 z" />
    </g>
    <path
       style="fill:#fbd6d5;fill-opacity:1;stroke:none;stroke-width:0.36;stroke-linejoin:round;stroke-dashoffset:3.25039"
       id="path1035"
       width="390.51785"
       height="472.34064"
       x="802.77673"
       y="152.44278"
       inkscape:path-effect="#path-effect1037"
       d="m 812.08465,152.44278 h 238.61305 a 142.59684,142.59684 45 0 1 142.5969,142.59684 V 616.1915 a 8.59192,8.59192 135 0 1 -8.5919,8.59192 H 860.45635 A 57.679619,57.679619 45 0 1 802.77673,567.1038 V 161.75069 a 9.3079133,9.3079133 135 0 1 9.30792,-9.30791 z"
       sodipodi:type="rect" />
    <path
       sodipodi:type="rect"
       d="m 801.50127,141.33028 h 238.61313 a 142.59684,142.59684 45 0 1 142.5968,142.59684 v 321.15187 a 8.59192,8.59192 135 0 1 -8.5919,8.59192 H 849.87298 a 57.679619,57.679619 45 0 1 -57.67962,-57.67962 v -405.3531 a 9.3079133,9.3079133 135 0 1 9.30791,-9.30791 z"
       inkscape:path-effect="#path-effect1033"
       y="141.33028"
       x="792.19336"
       height="472.34064"
       width="390.51785"
       id="rect1031"
       style="fill:#f25f5c;fill-opacity:1;stroke:none;stroke-width:0.36;stroke-linejoin:round;stroke-dashoffset:3.25039" />
    <path
       d="m 1030.6836,148.74609 c -76.4974,0.01 -152.9948,0.0195 -229.49219,0.0293 -1.38822,0.29229 -1.92128,1.98885 -1.57422,3.23047 8.4e-4,135.38221 -0.0337,270.76477 0.0675,406.14675 0.49667,13.14933 6.45536,25.99709 16.20035,34.84565 5.66319,5.22029 12.62761,9.15666 20.00555,11.26736 5.05942,1.45637 10.29063,2.07281 15.57657,1.95524 66.71561,0.0521 133.43125,0.0107 200.14691,0.0225 40.4386,0.006 80.8779,-0.0144 121.3161,0.009 0.8263,0.0473 2.1727,0.0957 2.296,-1.00246 0.2828,-1.7605 -0.1024,-3.54416 0.059,-5.31435 -10e-4,-104.3444 -8e-4,-208.68883 -0.049,-313.03319 10e-5,-6.18226 -0.083,-12.34149 -0.8543,-18.45853 -2.5355,-21.90827 -10.4605,-43.12516 -23.0149,-61.27195 -11.4349,-16.54705 -26.5872,-30.5601 -44.0863,-40.5475 -17.3174,-9.89801 -36.8539,-15.96225 -56.7697,-17.44851 -6.5752,-0.52963 -13.2136,-0.42136 -19.8276,-0.42978 z"
       style="fill:#ffffff;fill-opacity:1;stroke:none;stroke-width:0.36;stroke-linejoin:round;stroke-dashoffset:3.25039"
       id="path1041" />
    <path
       d="m 1020.7439,194.87492 c -78.485,0.22717 -141.98941,63.91557 -141.98919,142.40083 10e-5,78.64569 63.75511,142.40059 142.40089,142.40067 23.8114,0 47.1637,-5.96952 67.957,-17.26138 6.9344,-3.76573 8.998,-12.98193 5.051,-19.81849 l -31.4395,-54.45504 a 26.419609,26.419609 0 0 1 4.1986,-31.89121 l 1.8135,-1.81358 a 32.207247,32.207247 0 0 0 8.3481,-31.06384 l -29.8839,-112.1904 c -2.1437,-8.04788 -10.5601,-15.70752 -18.8741,-16.1268 -2.3876,-0.12053 -4.7785,-0.18059 -7.1707,-0.18059 -0.1373,-2e-4 -0.2746,-2e-4 -0.4117,0 z"
       style="fill:#f25f5c;fill-opacity:1;stroke:none;stroke-width:1.43097;stroke-linejoin:round;stroke-dashoffset:3.25039"
       id="path1023" />
    <path
       id="path1021"
       style="font-style:normal;font-variant:normal;font-weight:bold;font-stretch:normal;font-size:52.9167px;line-height:1.25;font-family:Monda;-inkscape-font-specification:'Monda Bold';letter-spacing:-3.54806px;fill:#333333;fill-opacity:1;stroke:none;stroke-width:0.438433"
       d="m 891.39847,505.63985 v 49.75194 c 0,5.62313 1.27019,9.63353 3.81061,12.03123 2.54041,2.39766 6.45088,3.59652 11.73151,3.59652 h 4.88099 v -8.4e-4 h 10.72453 v -31.64087 c 0,-2.08369 1.0133,-3.72498 3.03993,-4.92382 2.02661,-1.2274 4.1531,-1.84107 6.37955,-1.84107 2.25495,0 3.99611,0.41387 5.2235,1.24164 1.2274,0.79922 1.84107,2.31207 1.84107,4.53848 v 32.62564 h 11.64588 v -32.11183 c 0.1713,-1.91245 1.25595,-3.43956 3.25402,-4.58132 2.02661,-1.14173 4.12456,-1.71261 6.29393,-1.71261 2.19787,0 3.86769,0.41387 5.00945,1.24164 1.17027,0.79922 1.75545,2.31207 1.75545,4.53848 v 32.62564 h 11.64589 v -33.99574 c 0,-3.88198 -1.34157,-7.00753 -4.02469,-9.37664 -2.65458,-2.39771 -6.17976,-3.59652 -10.57549,-3.59652 -6.39386,0 -11.48889,1.89815 -15.28525,5.69447 -2.28349,-3.79632 -6.49373,-5.69447 -12.63066,-5.69447 -2.34058,0 -4.79537,0.44242 -7.36431,1.32727 -2.54038,0.85631 -4.60983,2.11224 -6.20827,3.76777 v -4.11032 h -11.6459 v 37.32767 c -2.88216,-0.0426 -4.9079,-0.57825 -6.05757,-1.61844 -1.19884,-1.11322 -1.79827,-2.95425 -1.79827,-5.52321 v -49.58069 z m 19.50174,0.0797 v 10.31857 h 11.6459 v -10.31857 z m -69.35984,17.81733 c -6.05131,0 -10.8324,1.28448 -14.34328,3.85344 -3.5109,2.56895 -5.26636,6.16546 -5.26636,10.78958 v 17.93978 c 0,5.76588 1.91245,9.81911 5.73733,12.15969 1.82681,1.14177 3.88196,1.95524 6.16546,2.44049 2.28352,0.51376 5.4376,0.75639 9.46229,0.72789 4.02469,0 7.44996,-0.54233 10.27578,-1.62703 4.82392,-1.88386 7.3215,-6.36526 7.49276,-13.44412 h -10.78957 c -0.0571,1.65553 -0.27116,2.99709 -0.64223,4.02469 -0.37107,0.99901 -1.19885,1.85532 -2.48333,2.56891 -0.54232,0.28546 -2.31205,0.42818 -5.30914,0.42818 -2.99712,0 -5.12362,-0.38534 -6.37955,-1.15602 -1.25594,-0.79922 -1.8839,-2.46904 -1.8839,-5.00945 v -7.49275 h 27.53054 v -11.13213 c 0,-10.04745 -6.52226,-15.07115 -19.5668,-15.07115 z m 47.58031,0.25692 c -3.48234,0 -7.09316,0.8991 -10.83238,2.69738 -2.16936,1.02759 -3.59654,2.19786 -4.28159,3.51089 v -5.48041 h -11.64589 v 45.98414 h 11.64589 v -30.82736 c 0.28544,-1.14173 1.37011,-2.16933 3.25399,-3.08271 3.36818,-1.65553 7.60692,-2.61175 12.71629,-2.86868 l 0.25691,-9.89044 c -0.34254,-0.0285 -0.71358,-0.0428 -1.11322,-0.0428 z m 110.67706,0.25604 c -6.33671,0 -11.03221,1.29869 -14.08638,3.89623 -3.05422,2.56891 -4.58128,6.15118 -4.58128,10.74675 v 1.3701 h 10.918 v -1.79826 c 0,-1.96952 0.51384,-3.46804 1.54136,-4.49564 1.0276,-1.0561 2.89721,-1.5842 5.60889,-1.5842 4.82387,-0.0285 7.23587,1.7269 7.23587,5.26637 0,1.71261 -0.785,3.05422 -2.3549,4.02465 -1.5413,0.97052 -4.23872,2.06945 -8.09215,3.29685 -6.33673,1.99808 -10.63263,4.08177 -12.88754,6.2511 -2.22649,2.16932 -3.33964,5.05223 -3.33964,8.6488 0,3.59647 1.22735,6.55076 3.68214,8.86285 2.48334,2.31203 5.50897,3.46805 9.07694,3.46809 3.56802,0 6.5936,-0.57088 9.07695,-1.71265 2.5118,-1.17032 4.4385,-2.62605 5.7802,-4.36719 0.8563,1.88386 2.1693,3.26825 3.939,4.1531 1.7697,0.85634 4.2387,1.28447 7.4071,1.28447 h 2.4405 l 0.471,-8.4775 c -1.4557,0 -2.4405,-0.32826 -2.9543,-0.98476 -0.5138,-0.65651 -0.7707,-2.01233 -0.7707,-4.06753 v -18.06052 c 0.4239,-0.97507 1.4603,-1.86238 3.1101,-2.66231 3.3682,-1.65551 7.607,-2.61173 12.7163,-2.86866 l 0.2569,-9.89045 c -0.3425,-0.0279 -0.7136,-0.0428 -1.1132,-0.0428 -3.4823,0 -7.0931,0.89914 -10.8324,2.69737 -2.1693,1.02761 -3.5965,2.19792 -4.2815,3.51089 v -5.48042 h -9.8485 c -2.2814,-0.65554 -4.9865,-0.98472 -8.11876,-0.98472 z m -158.38583,7.62203 c 2.3977,-0.0285 4.1817,0.12847 5.35199,0.47097 2.22642,0.62797 3.33962,2.32634 3.33962,5.09508 v 5.3948 h -16.52689 v -5.18071 c 0,-2.25494 0.7136,-3.78206 2.14079,-4.58128 1.42719,-0.79921 3.32536,-1.19886 5.69449,-1.19886 z m 165.02229,16.0551 v 11.47459 c -0.999,1.51285 -2.3691,2.68313 -4.1103,3.51088 -1.7412,0.82781 -3.39675,1.2417 -4.96666,1.2417 -3.99614,0 -5.99421,-1.84108 -5.99421,-5.52326 0,-1.34156 0.44242,-2.54037 1.32732,-3.59652 0.8848,-1.08468 3.05417,-2.25494 6.50798,-3.51088 3.45377,-1.28448 5.86577,-2.48338 7.23587,-3.59651 z" />
    <path
       id="path1025"
       style="font-style:normal;font-variant:normal;font-weight:normal;font-stretch:normal;font-size:54.6806px;line-height:1.25;font-family:Monda;-inkscape-font-specification:Monda;letter-spacing:-3.54806px;fill:#989898;fill-opacity:1;stroke:none;stroke-width:0.316698"
       d="m 1054.1462,524.1293 c -5.6461,0 -9.9502,1.03351 -12.9117,3.10016 -3.4941,2.45017 -5.241,7.0413 -5.241,13.77389 v 14.50936 c 0,1.19313 0.062,2.3219 0.18,3.39152 a 7.1160063,7.1160063 0 0 0 -4.2766,-1.42824 7.1160063,7.1160063 0 0 0 -7.1158,7.11578 7.1160063,7.1160063 0 0 0 7.1158,7.11642 7.1160063,7.1160063 0 0 0 6.8653,-5.24219 c 0.9934,1.25285 2.3392,2.32098 4.0385,3.20409 2.7271,1.38486 6.9987,2.0771 12.8151,2.0771 6.9243,0 11.6228,-1.74684 14.0943,-5.24097 1.3423,-1.87492 2.0134,-5.13466 2.0134,-9.77928 h -6.1045 c 0,1.49136 -0.075,2.76971 -0.2239,3.83499 -0.277,1.96013 -1.012,3.4513 -2.2051,4.47398 -1.1932,1.02269 -3.9627,1.534 -8.309,1.534 -4.3251,0 -7.4781,-0.67112 -9.4595,-2.01339 -1.9815,-1.36354 -2.9722,-4.04806 -2.9722,-8.05353 v -16.68231 c 0,-4.04807 0.9799,-6.82846 2.94,-8.34113 1.0227,-0.78832 2.2582,-1.34185 3.707,-1.66143 1.4488,-0.34089 3.4411,-0.51156 5.9764,-0.51156 2.5354,0 4.3998,0.1809 5.593,0.5431 1.1931,0.3409 2.0451,0.74611 2.5564,1.21483 0.5327,0.46871 1.0651,1.25684 1.5978,2.36472 0.5326,1.08658 0.7991,3.18499 0.7991,6.2956 l 6.1045,-0.54308 c 0,-2.06667 -0.1496,-3.84546 -0.4479,-5.33686 -0.6391,-3.34499 -2.237,-5.79554 -4.7937,-7.35085 -2.5567,-1.57661 -6.6685,-2.36472 -12.3357,-2.36472 z m 36.9732,0 c -5.923,0 -10.3972,1.02266 -13.4226,3.06801 -3.7497,2.55668 -5.6244,7.14782 -5.6244,13.7739 v 14.5415 c 0,3.28105 0.5004,6.10363 1.5018,8.46856 1.0014,2.36491 2.8978,4.25047 5.6888,5.65665 2.791,1.4062 6.8817,2.10927 12.272,2.10927 5.3904,0 9.5661,-1.04378 12.5276,-3.13174 3.6858,-2.59926 5.5285,-7.11626 5.5285,-13.55058 v -13.678 c 0,-2.06664 -0.1597,-3.92024 -0.4793,-5.56077 -1.5127,-7.79786 -7.51,-11.6968 -17.9924,-11.6968 z m 18.966,0.70329 v 46.21191 h 6.136 v -35.69778 l 12.9754,21.06041 h 4.7615 l 12.9432,-21.18845 v 35.82582 h 6.0723 v -46.21191 h -5.6888 l -15.7235,25.822 -15.564,-25.822 z m -18.966,4.47397 c 4.1759,0 7.2228,0.74592 9.1403,2.23731 1.9388,1.49139 2.9078,4.23983 2.9078,8.24527 v 16.71385 c 0,4.00547 -0.9587,6.68999 -2.8762,8.05353 -1.9176,1.34227 -4.9856,2.01339 -9.2041,2.01339 -4.1972,0 -7.3394,-0.68135 -9.4273,-2.04493 -2.088,-1.36357 -3.1323,-4.03783 -3.1323,-8.02199 v -16.71385 c 0,-2.04534 0.2665,-3.75 0.7991,-5.11354 1.3849,-3.57935 5.3157,-5.36904 11.7927,-5.36904 z" />
  </g>
</svg>
