<?xml version="1.0" encoding="UTF-8" standalone="no"?>
<svg
   xmlns:dc="http://purl.org/dc/elements/1.1/"
   xmlns:cc="http://creativecommons.org/ns#"
   xmlns:rdf="http://www.w3.org/1999/02/22-rdf-syntax-ns#"
   xmlns:svg="http://www.w3.org/2000/svg"
   xmlns="http://www.w3.org/2000/svg"
   xmlns:sodipodi="http://sodipodi.sourceforge.net/DTD/sodipodi-0.dtd"
   xmlns:inkscape="http://www.inkscape.org/namespaces/inkscape"
   sodipodi:docname="logotipo-a.svg"
   inkscape:version="1.0 (4035a4f, 2020-05-01)"
   id="svg1071"
   version="1.1"
   viewBox="0 0 197.11458 39.687503"
   height="150"
   width="745">
  <defs
     id="defs1065" />
  <sodipodi:namedview
     inkscape:window-maximized="0"
     inkscape:window-y="23"
     inkscape:window-x="0"
     inkscape:window-height="723"
     inkscape:window-width="1280"
     units="px"
     showgrid="false"
     inkscape:document-rotation="0"
     inkscape:current-layer="layer1"
     inkscape:document-units="mm"
     inkscape:cy="128.68097"
     inkscape:cx="364.22229"
     inkscape:zoom="0.66935333"
     inkscape:pageshadow="2"
     inkscape:pageopacity="0.0"
     borderopacity="1.0"
     bordercolor="#666666"
     pagecolor="#ffffff"
     id="base" />
  <metadata
     id="metadata1068">
    <rdf:RDF>
      <cc:Work
         rdf:about="">
        <dc:format>image/svg+xml</dc:format>
        <dc:type
           rdf:resource="http://purl.org/dc/dcmitype/StillImage" />
        <dc:title></dc:title>
      </cc:Work>
    </rdf:RDF>
  </metadata>
  <g
     id="layer1"
     inkscape:groupmode="layer"
     inkscape:label="Layer 1">
    <g
       transform="matrix(0.56797898,0,0,0.56797898,-101.57129,-180.11151)"
       id="g1637">
      <path
         d="m 307.34336,318.097 v 41.56495 c 0,4.69781 1.06117,8.04827 3.18355,10.05142 2.12237,2.00311 5.38935,3.00469 9.80102,3.00469 h 4.07779 v -7e-4 h 8.95974 v -26.43417 c 0,-1.74081 0.84656,-3.11201 2.53969,-4.11358 1.69312,-1.02542 3.46968,-1.53811 5.32976,-1.53811 1.88388,0 3.33852,0.34577 4.36394,1.03732 1.02542,0.66771 1.53811,1.93161 1.53811,3.79165 v 27.25689 h 9.72948 v -26.82763 c 0.14311,-1.59775 1.04927,-2.87356 2.71855,-3.82744 1.69312,-0.95385 3.44584,-1.43079 5.25822,-1.43079 1.8362,0 3.23124,0.34577 4.18512,1.03732 0.97769,0.66771 1.46658,1.93161 1.46658,3.79165 v 27.25689 h 9.72948 v -28.40153 c 0,-3.24318 -1.1208,-5.8544 -3.3624,-7.83366 -2.21775,-2.00315 -5.16284,-3.00469 -8.83523,-3.00469 -5.34171,0 -9.59832,1.5858 -12.76996,4.75741 -1.90773,-3.17161 -5.42515,-4.75741 -10.55221,-4.75741 -1.95542,0 -4.00626,0.36962 -6.15247,1.10886 -2.12234,0.7154 -3.85125,1.76466 -5.18666,3.14776 v -3.43394 h -9.72949 v 31.18517 c -2.40789,-0.0356 -4.10028,-0.4831 -5.06076,-1.35212 -1.00157,-0.93003 -1.50236,-2.46811 -1.50236,-4.61433 V 318.097 Z m 16.29261,0.0666 v 8.62059 h 9.72949 v -8.62059 z m -57.94625,14.88538 c -5.05553,0 -9.04986,1.07311 -11.98301,3.21933 -2.93316,2.14622 -4.39974,5.1509 -4.39974,9.01409 v 14.98768 c 0,4.81707 1.59774,8.20331 4.79321,10.15874 1.5262,0.95388 3.24316,1.63349 5.1509,2.03889 1.90775,0.42922 4.54281,0.63192 7.90521,0.60811 3.3624,0 6.22402,-0.45309 8.58484,-1.35929 4.03011,-1.57386 6.1167,-5.31782 6.25978,-11.23181 h -9.01408 c -0.0477,1.3831 -0.22654,2.5039 -0.53655,3.3624 -0.31001,0.83462 -1.00157,1.55002 -2.07468,2.14618 -0.45308,0.23849 -1.93159,0.35772 -4.43549,0.35772 -2.50393,0 -4.2805,-0.32193 -5.32976,-0.96579 -1.04926,-0.6677 -1.57389,-2.06274 -1.57389,-4.18511 v -6.25977 h 23.00022 v -9.30027 c 0,-8.39408 -5.44898,-12.5911 -16.34696,-12.5911 z m 39.75067,0.21464 c -2.9093,0 -5.92593,0.75115 -9.04984,2.25351 -1.81238,0.8585 -3.00471,1.83619 -3.57703,2.93315 v -4.57859 h -9.72949 v 38.41717 h 9.72949 v -25.75453 c 0.23847,-0.95385 1.14465,-1.81235 2.71853,-2.57543 2.81392,-1.3831 6.35515,-2.18197 10.62374,-2.39662 l 0.21464,-8.26291 c -0.28618,-0.0238 -0.59616,-0.0358 -0.93004,-0.0358 z m 92.46447,0.21391 c -5.29397,0 -9.21679,1.08498 -11.76838,3.25508 -2.55163,2.14618 -3.8274,5.13897 -3.8274,8.97831 v 1.14464 h 9.12137 v -1.50236 c 0,-1.64543 0.42929,-2.89736 1.28772,-3.75586 0.8585,-0.88231 2.42046,-1.32351 4.68591,-1.32351 4.0301,-0.0238 6.04515,1.44273 6.04515,4.39976 0,1.43079 -0.6558,2.55163 -1.96736,3.36237 -1.28772,0.81081 -3.54122,1.72891 -6.76055,2.75433 -5.29398,1.66928 -8.88296,3.41009 -10.76681,5.22244 -1.86011,1.81235 -2.79008,4.22086 -2.79008,7.22559 0,3.00465 1.02538,5.47279 3.07622,7.40441 2.07469,1.93157 4.60243,2.89736 7.58327,2.8974 2.98088,0 5.50858,-0.47694 7.5833,-1.43083 2.09846,-0.97773 3.70814,-2.19391 4.82898,-3.64854 0.71539,1.57386 1.81235,2.73044 3.29083,3.46968 1.47851,0.71543 3.54122,1.07311 6.18826,1.07311 h 2.0389 l 0.39347,-7.08248 c -1.21619,0 -2.0389,-0.27424 -2.46815,-0.82271 -0.42925,-0.54848 -0.64386,-1.68119 -0.64386,-3.39819 v -15.08855 c 0.35412,-0.81462 1.21999,-1.55592 2.59833,-2.22421 2.81392,-1.38309 6.35521,-2.18196 10.62373,-2.39661 l 0.21465,-8.26291 c -0.28618,-0.0233 -0.59617,-0.0358 -0.93004,-0.0358 -2.9093,0 -5.92593,0.75118 -9.04984,2.2535 -1.81235,0.85851 -3.00469,1.83624 -3.57701,2.93315 v -4.57858 h -8.22786 c -1.90597,-0.54767 -4.16596,-0.82268 -6.78275,-0.82268 z m -132.32246,6.36778 c 2.00314,-0.0238 3.49357,0.10733 4.47128,0.39347 1.86005,0.52463 2.79007,1.94352 2.79007,4.25665 v 4.50705 h -13.80729 v -4.32819 c 0,-1.88388 0.59617,-3.1597 1.78851,-3.8274 1.19234,-0.6677 2.77815,-1.00158 4.75743,-1.00158 z m 137.86683,13.41313 v 9.58638 c -0.83462,1.2639 -1.97926,2.2416 -3.43393,2.93314 -1.45464,0.69159 -2.83777,1.03737 -4.14934,1.03737 -3.33855,0 -5.00783,-1.53812 -5.00783,-4.61437 0,-1.1208 0.36962,-2.12234 1.1089,-3.00469 0.7392,-0.90619 2.55159,-1.88388 5.43705,-2.93315 2.88545,-1.07311 4.90051,-2.07472 6.04515,-3.00468 z"
         style="font-style:normal;font-variant:normal;font-weight:bold;font-stretch:normal;font-size:52.9167px;line-height:1.25;font-family:Monda;-inkscape-font-specification:'Monda Bold';letter-spacing:-3.54806px;fill:#333333;fill-opacity:1;stroke:none;stroke-width:0.366286"
         id="path1006" />
      <path
         id="path1012"
         style="fill:#f25f5c;fill-opacity:1;stroke:none;stroke-width:0.350232;stroke-linejoin:round;stroke-dashoffset:3.25039"
         d="m 213.5812,317.19431 c -19.20922,0.0556 -34.75195,15.64335 -34.75189,34.85264 2e-5,19.24857 15.60408,34.85261 34.85265,34.85263 5.82787,0 11.54334,-1.46104 16.63251,-4.22473 1.69718,-0.92166 2.20228,-3.17733 1.23624,-4.85058 l -7.69484,-13.3279 a 6.4662086,6.4662086 0 0 1 1.02761,-7.80539 l 0.44386,-0.44387 a 7.8827351,7.8827351 0 0 0 2.04321,-7.60289 l -7.31411,-27.45863 c -0.52467,-1.96972 -2.58459,-3.84442 -4.61945,-3.94704 -0.58435,-0.0295 -1.16954,-0.0442 -1.75503,-0.0442 -0.0336,-5e-5 -0.0672,-5e-5 -0.10076,0 z" />
      <path
         d="m 443.3099,333.5439 c -4.71694,0 -8.31279,0.86344 -10.78696,2.59001 -2.91915,2.04698 -4.37853,5.88261 -4.37853,11.50731 v 12.12175 c 0,0.9968 0.0518,1.93982 0.15038,2.83343 a 5.9450234,5.9450234 0 0 0 -3.57293,-1.19322 5.9450234,5.9450234 0 0 0 -5.94484,5.94484 5.9450234,5.9450234 0 0 0 5.94484,5.94537 5.9450234,5.9450234 0 0 0 5.73559,-4.37956 c 0.82997,1.04669 1.95426,1.93905 3.37394,2.67684 2.27835,1.15697 5.84702,1.7353 10.70633,1.7353 5.78488,0 9.71021,-1.45939 11.77499,-4.37854 1.12139,-1.56639 1.68207,-4.28972 1.68207,-8.17004 h -5.09995 c 0,1.24595 -0.0625,2.31394 -0.18706,3.20392 -0.23141,1.63758 -0.84548,2.88337 -1.84227,3.73776 -0.99679,0.8544 -3.31057,1.28157 -6.94169,1.28157 -3.61333,0 -6.24753,-0.56068 -7.90289,-1.68207 -1.65537,-1.13916 -2.48304,-3.38193 -2.48304,-6.72827 v -13.93714 c 0,-3.38193 0.8186,-5.70479 2.45618,-6.96854 0.85437,-0.6586 1.88659,-1.12104 3.09695,-1.38803 1.21039,-0.2848 2.87483,-0.42738 4.99298,-0.42738 2.11817,0 3.6758,0.15113 4.67259,0.45373 0.9968,0.2848 1.7086,0.62333 2.1358,1.01492 0.44498,0.39158 0.88979,1.05002 1.3348,1.97559 0.44497,0.90778 0.66765,2.66088 0.66765,5.25962 l 5.09995,-0.45371 c 0,-1.72659 -0.12494,-3.21267 -0.37415,-4.45865 -0.53398,-2.79455 -1.86896,-4.84185 -4.00492,-6.14122 -2.13595,-1.31717 -5.57112,-1.97559 -10.30581,-1.97559 z m 30.88904,0 c -4.94829,0 -8.68621,0.85437 -11.21378,2.56315 -3.13272,2.13596 -4.69892,5.9716 -4.69892,11.50732 v 12.1486 c 0,2.74114 0.41812,5.09924 1.25471,7.07501 0.83658,1.97575 2.42091,3.55103 4.75266,4.72581 2.33177,1.1748 5.74929,1.76218 10.2526,1.76218 4.50334,0 7.9919,-0.87202 10.46604,-2.61639 3.07933,-2.17154 4.61883,-5.94524 4.61883,-11.32075 v -11.4272 c 0,-1.72656 -0.13348,-3.27514 -0.4005,-4.64571 -1.26375,-6.51468 -6.27419,-9.77202 -15.03164,-9.77202 z m 15.84505,0.58756 v 38.60745 h 5.12631 v -29.82349 l 10.84016,17.59479 h 3.97804 l 10.81331,-17.70176 v 29.93046 h 5.07306 v -38.60745 h -4.75268 l -13.13614,21.57283 -13.00284,-21.57283 z m -15.84505,3.73775 c 3.48875,0 6.03428,0.62317 7.63625,1.86914 1.61975,1.24598 2.4293,3.54214 2.4293,6.88846 v 13.96349 c 0,3.34634 -0.80098,5.58911 -2.40295,6.72827 -1.60197,1.12139 -4.16512,1.68207 -7.68945,1.68207 -3.50655,0 -6.13164,-0.56923 -7.87601,-1.70842 -1.74437,-1.13919 -2.61689,-3.37338 -2.61689,-6.70192 v -13.96349 c 0,-1.70876 0.22267,-3.13291 0.66765,-4.27207 1.15697,-2.99035 4.441,-4.48553 9.8521,-4.48553 z"
         style="font-style:normal;font-variant:normal;font-weight:normal;font-stretch:normal;font-size:54.6806px;line-height:1.25;font-family:Monda;-inkscape-font-specification:Monda;letter-spacing:-3.54806px;fill:#989898;fill-opacity:1;stroke:none;stroke-width:0.264583"
         id="path1016" />
    </g>
  </g>
</svg>
