<?xml version="1.0" encoding="UTF-8" standalone="no"?>
<svg
   xmlns:dc="http://purl.org/dc/elements/1.1/"
   xmlns:cc="http://creativecommons.org/ns#"
   xmlns:rdf="http://www.w3.org/1999/02/22-rdf-syntax-ns#"
   xmlns:svg="http://www.w3.org/2000/svg"
   xmlns="http://www.w3.org/2000/svg"
   xmlns:sodipodi="http://sodipodi.sourceforge.net/DTD/sodipodi-0.dtd"
   xmlns:inkscape="http://www.inkscape.org/namespaces/inkscape"
   inkscape:export-ydpi="343.70999"
   inkscape:export-xdpi="343.70999"
   inkscape:export-filename="/Users/erlimar/Projects/erlimar-miv/logotipo-b.png"
   width="745"
   height="150"
   viewBox="0 0 197.11458 39.687503"
   version="1.1"
   id="svg1071"
   inkscape:version="1.0 (4035a4f, 2020-05-01)"
   sodipodi:docname="logotipo-b.svg">
  <defs
     id="defs1065" />
  <sodipodi:namedview
     id="base"
     pagecolor="#ffffff"
     bordercolor="#666666"
     borderopacity="1.0"
     inkscape:pageopacity="0.0"
     inkscape:pageshadow="2"
     inkscape:zoom="0.81027404"
     inkscape:cx="366.77973"
     inkscape:cy="61.378176"
     inkscape:document-units="mm"
     inkscape:current-layer="layer1"
     inkscape:document-rotation="0"
     showgrid="false"
     units="px"
     inkscape:window-width="1280"
     inkscape:window-height="723"
     inkscape:window-x="0"
     inkscape:window-y="23"
     inkscape:window-maximized="0" />
  <metadata
     id="metadata1068">
    <rdf:RDF>
      <cc:Work
         rdf:about="">
        <dc:format>image/svg+xml</dc:format>
        <dc:type
           rdf:resource="http://purl.org/dc/dcmitype/StillImage" />
        <dc:title />
      </cc:Work>
    </rdf:RDF>
  </metadata>
  <g
     inkscape:label="Layer 1"
     inkscape:groupmode="layer"
     id="layer1">
    <g
       id="g166">
      <g
         transform="matrix(0.54859607,0,0,0.54859607,-86.696719,-403.04669)"
         id="g987"
         inkscape:export-xdpi="343"
         inkscape:export-ydpi="343">
        <path
           d="m 208.82474,736.52733 c -19.20922,0.0556 -34.75195,15.64335 -34.75189,34.85264 2e-5,19.24857 15.60408,34.85261 34.85265,34.85263 5.82787,0 11.54334,-1.46104 16.63251,-4.22473 1.69718,-0.92166 2.20228,-3.17733 1.23624,-4.85058 l -7.69484,-13.3279 a 6.4662086,6.4662086 0 0 1 1.02761,-7.80539 l 0.44386,-0.44387 a 7.8827351,7.8827351 0 0 0 2.04321,-7.60289 l -7.31411,-27.45863 c -0.52467,-1.96972 -2.58459,-3.84442 -4.61945,-3.94704 -0.58435,-0.0295 -1.16954,-0.0442 -1.75503,-0.0442 -0.0336,-5e-5 -0.0672,-5e-5 -0.10076,0 z"
           style="fill:#fbd6d5;fill-opacity:1;stroke:none;stroke-width:0.350232;stroke-linejoin:round;stroke-dashoffset:3.25039"
           id="path978" />
        <path
           id="path980"
           style="fill:#f8aead;fill-opacity:1;stroke:none;stroke-width:0.350232;stroke-linejoin:round;stroke-dashoffset:3.25039"
           d="m 203.53307,736.52733 c -19.20922,0.0556 -34.75195,15.64335 -34.75189,34.85264 2e-5,19.24857 15.60408,34.85261 34.85265,34.85263 5.82787,0 11.54334,-1.46104 16.63251,-4.22473 1.69718,-0.92166 2.20228,-3.17733 1.23624,-4.85058 l -7.69484,-13.3279 a 6.4662086,6.4662086 0 0 1 1.02761,-7.80539 l 0.44386,-0.44387 a 7.8827351,7.8827351 0 0 0 2.04321,-7.60289 l -7.31411,-27.45863 c -0.52467,-1.96972 -2.58459,-3.84442 -4.61945,-3.94704 -0.58435,-0.0295 -1.16954,-0.0442 -1.75503,-0.0442 -0.0336,-5e-5 -0.0672,-5e-5 -0.10076,0 z" />
        <path
           d="m 199.29971,736.52733 c -19.20922,0.0556 -34.75195,15.64335 -34.75189,34.85264 2e-5,19.24857 15.60408,34.85261 34.85265,34.85263 5.82787,0 11.54334,-1.46104 16.63251,-4.22473 1.69718,-0.92166 2.20228,-3.17733 1.23624,-4.85058 l -7.69484,-13.3279 a 6.4662086,6.4662086 0 0 1 1.02761,-7.80539 l 0.44386,-0.44387 a 7.8827351,7.8827351 0 0 0 2.04321,-7.60289 l -7.31411,-27.45863 c -0.52467,-1.96972 -2.58459,-3.84442 -4.61945,-3.94704 -0.58435,-0.0295 -1.16954,-0.0442 -1.75503,-0.0442 -0.0336,-5e-5 -0.0672,-5e-5 -0.10076,0 z"
           style="fill:#f25f5c;fill-opacity:1;stroke:none;stroke-width:0.350232;stroke-linejoin:round;stroke-dashoffset:3.25039"
           id="path982" />
      </g>
      <path
         id="path1006"
         style="font-style:normal;font-variant:normal;font-weight:bold;font-stretch:normal;font-size:52.9167px;line-height:1.25;font-family:Monda;-inkscape-font-specification:'Monda Bold';letter-spacing:-3.54806px;fill:#333333;fill-opacity:1;stroke:none;stroke-width:0.201172"
         d="M 73.84296,1.7189004 V 24.547187 c 0,2.580129 0.582815,4.420267 1.748469,5.520436 1.165646,1.100147 2.959936,1.650235 5.382912,1.650235 h 2.239602 v -3.85e-4 h 4.920865 V 17.199309 c 0,-0.956087 0.464947,-1.709177 1.394847,-2.259259 0.929895,-0.563181 1.905617,-0.84476 2.927209,-0.84476 1.034664,0 1.83358,0.189903 2.396761,0.569716 0.563181,0.366719 0.84476,1.060878 0.84476,2.082448 v 14.970019 h 5.343625 v -14.73426 c 0.0786,-0.877516 0.57628,-1.578216 1.49308,-2.102105 0.92989,-0.523873 1.89252,-0.785818 2.88791,-0.785818 1.00849,0 1.77467,0.189903 2.29855,0.569716 0.53697,0.366719 0.80548,1.060878 0.80548,2.082448 v 14.970019 h 5.34362 V 16.118796 c 0,-1.781218 -0.61556,-3.215351 -1.84669,-4.302399 -1.21804,-1.10017 -2.83554,-1.650235 -4.85249,-1.650235 -2.93377,0 -5.27158,0.870952 -7.01351,2.612863 -1.047762,-1.741911 -2.979597,-2.612863 -5.79548,-2.612863 -1.073955,0 -2.200316,0.203002 -3.379057,0.609007 -1.165631,0.392912 -2.115182,0.969186 -2.848615,1.728812 V 10.617994 H 82.791181 V 27.745501 C 81.46872,27.725948 80.539227,27.480172 80.011713,27.00289 79.46163,26.492099 79.186587,25.647356 79.186587,24.468609 V 1.7189004 Z m 8.948221,0.036578 v 4.7345971 h 5.343627 V 1.7554784 Z M 50.965964,9.930821 c -2.776596,0 -4.97036,0.589373 -6.581304,1.768119 -1.610949,1.178747 -2.416423,2.828976 -2.416423,4.950715 v 8.231528 c 0,2.645629 0.87751,4.505418 2.632525,5.579379 0.838219,0.52389 1.781207,0.897145 2.828975,1.119799 1.047774,0.235736 2.495001,0.347062 4.341696,0.333986 1.846697,0 3.418354,-0.248847 4.714963,-0.746549 2.213416,-0.864395 3.359412,-2.920651 3.437993,-6.16873 H 54.97368 c -0.0262,0.759625 -0.12442,1.37519 -0.294684,1.846695 -0.170263,0.45839 -0.550082,0.851302 -1.139454,1.178724 -0.248841,0.130984 -1.060868,0.196468 -2.436059,0.196468 -1.375207,0 -2.350935,-0.176811 -2.927208,-0.530432 C 47.6,27.32381 47.311863,26.557626 47.311863,25.391979 V 21.953991 H 59.944035 V 16.8461 c 0,-4.610193 -2.992686,-6.915279 -8.978071,-6.915279 z m 21.831848,0.117885 c -1.597845,0 -3.254638,0.412546 -4.97035,1.237671 -0.995394,0.471505 -1.650246,1.008472 -1.964575,1.610944 v -2.514652 h -5.343626 v 21.099464 h 5.343626 V 17.337239 c 0.130972,-0.523872 0.628665,-0.995377 1.49307,-1.414476 1.54546,-0.759626 3.490373,-1.198381 5.834766,-1.316271 l 0.117885,-4.538152 c -0.157176,-0.01307 -0.327423,-0.01966 -0.510796,-0.01966 z m 50.783308,0.117483 c -2.90756,0 -5.06205,0.595892 -6.46344,1.787753 -1.4014,1.178725 -2.10208,2.822424 -2.10208,4.931065 v 0.628658 h 5.00964 V 16.68854 c 0,-0.903702 0.23578,-1.591287 0.70724,-2.062792 0.47151,-0.484582 1.32937,-0.726898 2.57359,-0.726898 2.21342,-0.01307 3.32012,0.792376 3.32012,2.416435 0,0.785818 -0.36018,1.401405 -1.08052,1.84668 -0.70723,0.445312 -1.94491,0.949551 -3.71302,1.512731 -2.90756,0.916802 -4.87869,1.872889 -5.91334,2.868267 -1.02161,0.995378 -1.53237,2.318179 -1.53237,3.968435 0,1.650214 0.56316,3.005764 1.68952,4.066648 1.13946,1.060856 2.52775,1.591286 4.16488,1.591309 1.63716,0 3.02542,-0.261945 4.1649,-0.78584 1.15252,-0.536988 2.03658,-1.204939 2.65216,-2.00385 0.39291,0.864395 0.99539,1.499611 1.8074,1.905616 0.81202,0.392928 1.94491,0.589374 3.39871,0.589374 h 1.1198 l 0.2161,-3.889838 c -0.66795,0 -1.1198,-0.150617 -1.35555,-0.451848 -0.23575,-0.301236 -0.35362,-0.923342 -0.35362,-1.866352 v -8.286929 c 0.19449,-0.447405 0.67005,-0.85454 1.42705,-1.221579 1.54546,-0.75962 3.49041,-1.198376 5.83476,-1.316265 l 0.1179,-4.538152 c -0.15718,-0.0128 -0.32744,-0.01966 -0.51081,-0.01966 -1.59784,0 -3.25463,0.412563 -4.97035,1.237667 -0.99537,0.47151 -1.65023,1.008499 -1.96455,1.610943 v -2.514645 h -4.5189 c -1.0468,-0.300792 -2.28803,-0.451832 -3.72522,-0.451832 z m -72.674098,3.49731 c 1.100164,-0.01307 1.918737,0.05895 2.455715,0.216101 1.021576,0.288137 1.532361,1.06742 1.532361,2.337836 v 2.47536 H 47.311863 V 16.31567 c 0,-1.034665 0.327428,-1.73537 0.982285,-2.102084 0.654856,-0.366714 1.525814,-0.550087 2.612874,-0.550087 z m 75.719168,7.366753 v 5.265029 c -0.45839,0.694158 -1.08705,1.23113 -1.88598,1.610938 -0.79892,0.379834 -1.55856,0.569744 -2.27891,0.569744 -1.83359,0 -2.75039,-0.844766 -2.75039,-2.534303 0,-0.615565 0.203,-1.165631 0.60903,-1.650235 0.40598,-0.497697 1.40138,-1.034663 2.98613,-1.610943 1.58475,-0.589373 2.69146,-1.139477 3.32012,-1.65023 z" />
      <path
         id="path1016"
         style="font-style:normal;font-variant:normal;font-weight:normal;font-stretch:normal;font-size:54.6806px;line-height:1.25;font-family:Monda;-inkscape-font-specification:Monda;letter-spacing:-3.54806px;fill:#989898;fill-opacity:1;stroke:none;stroke-width:0.145315"
         d="m 148.51845,10.202641 c -2.59064,0 -4.56555,0.474218 -5.92441,1.422484 -1.60326,1.124242 -2.40477,3.230845 -2.40477,6.320041 v 6.657502 c 0,0.547462 0.0284,1.065388 0.0826,1.556175 a 3.2651234,3.2651234 0 0 0 -1.96232,-0.655339 3.2651234,3.2651234 0 0 0 -3.26503,3.265023 3.2651234,3.2651234 0 0 0 3.26503,3.265313 3.2651234,3.2651234 0 0 0 3.15009,-2.40534 c 0.45584,0.574863 1.07332,1.064965 1.85304,1.470173 1.25132,0.63543 3.21129,0.953061 5.88012,0.953061 3.17717,0 5.33305,-0.801526 6.46706,-2.40478 0.61588,-0.860293 0.92383,-2.355999 0.92383,-4.487146 h -2.801 c 0,0.684299 -0.0343,1.270861 -0.10273,1.759655 -0.1271,0.899391 -0.46436,1.583604 -1.01181,2.052851 -0.54746,0.469254 -1.81824,0.703864 -3.81252,0.703864 -1.98451,0 -3.43126,-0.307936 -4.34042,-0.923826 -0.90916,-0.625649 -1.36374,-1.857422 -1.36374,-3.695298 v -7.654551 c 0,-1.857422 0.4496,-3.133183 1.34899,-3.827258 0.46924,-0.361716 1.03615,-0.615697 1.7009,-0.762334 0.66477,-0.156417 1.57892,-0.234725 2.74224,-0.234725 1.16335,0 2.01883,0.083 2.56628,0.249197 0.54747,0.156418 0.9384,0.342346 1.17302,0.557415 0.2444,0.215063 0.4887,0.576691 0.7331,1.085032 0.2444,0.49857 0.36669,1.461407 0.36669,2.888687 l 2.801,-0.249187 c 0,-0.948277 -0.0687,-1.764461 -0.20549,-2.448778 -0.29328,-1.534822 -1.02647,-2.659239 -2.19958,-3.372878 -1.17312,-0.723416 -3.05977,-1.085033 -5.66016,-1.085033 z m 16.96487,0 c -2.7177,0 -4.77064,0.469237 -6.15883,1.407732 -1.72055,1.173111 -2.58074,3.27972 -2.58074,6.320046 v 6.672249 c 0,1.505488 0.22964,2.800603 0.68911,3.885735 0.45947,1.08512 1.32962,1.950295 2.61025,2.595507 1.28066,0.645223 3.15763,0.967824 5.63093,0.967824 2.47332,0 4.38931,-0.47893 5.74816,-1.436973 1.69123,-1.192652 2.53675,-3.265242 2.53675,-6.217578 v -6.276042 c 0,-0.948261 -0.0733,-1.798771 -0.21996,-2.551515 -0.69408,-3.57799 -3.44591,-5.366985 -8.25567,-5.366985 z m 8.70241,0.322699 v 21.203969 h 2.81547 V 15.349663 l 5.95362,9.663404 h 2.18483 l 5.93888,-9.722153 v 16.438395 h 2.78622 V 10.52534 h -2.61026 l -7.21463,11.848222 -7.14141,-11.848222 z m -8.70241,2.052846 c 1.91609,0 3.31414,0.342257 4.19398,1.026568 0.88959,0.684317 1.33421,1.945413 1.33421,3.783278 v 7.669022 c 0,1.837876 -0.43991,3.069649 -1.31974,3.695298 -0.87984,0.61589 -2.28756,0.923826 -4.2232,0.923826 -1.92587,0 -3.36761,-0.312633 -4.32566,-0.938299 -0.95804,-0.625664 -1.43725,-1.852725 -1.43725,-3.680825 v -7.669022 c 0,-0.938485 0.1223,-1.720656 0.36669,-2.346305 0.63543,-1.642359 2.43909,-2.463541 5.41097,-2.463541 z" />
    </g>
  </g>
</svg>
