<?xml version="1.0" encoding="UTF-8" standalone="no"?>
<svg
   xmlns:dc="http://purl.org/dc/elements/1.1/"
   xmlns:cc="http://creativecommons.org/ns#"
   xmlns:rdf="http://www.w3.org/1999/02/22-rdf-syntax-ns#"
   xmlns:svg="http://www.w3.org/2000/svg"
   xmlns="http://www.w3.org/2000/svg"
   xmlns:sodipodi="http://sodipodi.sourceforge.net/DTD/sodipodi-0.dtd"
   xmlns:inkscape="http://www.inkscape.org/namespaces/inkscape"
   sodipodi:docname="simbolo.svg"
   inkscape:version="1.0 (4035a4f, 2020-05-01)"
   id="svg8"
   version="1.1"
   viewBox="0 0 105.83333 1058.3334"
   height="4000"
   width="400">
  <defs
     id="defs2">
    <inkscape:path-effect
       hide_knots="false"
       only_selected="false"
       apply_with_radius="true"
       apply_no_radius="true"
       use_knot_distance="true"
       flexible="false"
       chamfer_steps="1"
       radius="0"
       mode="F"
       method="auto"
       unit="px"
       satellites_param="F,0,0,1,0,0,0,1 @ F,0,0,1,0,0,0,1 @ F,0,0,1,0,0,0,1 @ F,0,0,1,0,13.222221,0,1 @ F,0,0,1,0,18.752829,0,1 @ F,0,0,1,0,17.171705,0,1 @ F,0,0,1,0,13.949672,0,1 @ F,0,0,1,0,0,0,1"
       lpeversion="1"
       is_visible="true"
       id="path-effect1538"
       effect="fillet_chamfer" />
    <inkscape:path-effect
       hide_knots="false"
       only_selected="false"
       apply_with_radius="true"
       apply_no_radius="true"
       use_knot_distance="true"
       flexible="false"
       chamfer_steps="1"
       radius="0"
       mode="F"
       method="auto"
       unit="px"
       satellites_param="F,0,0,1,0,0,0,1 @ F,0,0,1,0,0,0,1 @ F,0,0,1,0,0,0,1 @ F,0,0,1,0,15.556727,0,1 @ F,0,0,1,0,20.868614,0,1 @ F,0,0,1,0,16.035245,0,1 @ F,0,0,1,0,5.1546947,0,1"
       lpeversion="1"
       is_visible="true"
       id="path-effect843"
       effect="fillet_chamfer" />
  </defs>
  <sodipodi:namedview
     inkscape:window-maximized="0"
     inkscape:window-y="23"
     inkscape:window-x="0"
     inkscape:window-height="723"
     inkscape:window-width="1280"
     units="px"
     showgrid="false"
     inkscape:document-rotation="0"
     inkscape:current-layer="layer1"
     inkscape:document-units="mm"
     inkscape:cy="2095.4073"
     inkscape:cx="-617.11265"
     inkscape:zoom="0.10378989"
     inkscape:pageshadow="2"
     inkscape:pageopacity="0.0"
     borderopacity="1.0"
     bordercolor="#666666"
     pagecolor="#ffffff"
     id="base" />
  <metadata
     id="metadata5">
    <rdf:RDF>
      <cc:Work
         rdf:about="">
        <dc:format>image/svg+xml</dc:format>
        <dc:type
           rdf:resource="http://purl.org/dc/dcmitype/StillImage" />
        <dc:title></dc:title>
      </cc:Work>
    </rdf:RDF>
  </metadata>
  <g
     id="layer1"
     inkscape:groupmode="layer"
     inkscape:label="Layer 1">
    <g
       id="g1671">
      <g
         id="g219"
         transform="translate(150.28898,32.810552)"
         inkscape:export-xdpi="96"
         inkscape:export-ydpi="96">
        <path
           inkscape:export-ydpi="96"
           inkscape:export-xdpi="96"
           id="path70"
           style="opacity:1;fill:#50514f;fill-opacity:1;stroke-width:0.620327;stop-opacity:1"
           d="m -110.81744,-14.599287 -0.0162,0.0094 -0.0162,0.0094 -0.63268,0.396951 -0.008,0.005 -0.0122,0.007 -0.62578,0.40894 -0.006,0.009 -0.0122,0.007 -0.615,0.41842 -0.0162,0.009 -0.0139,0.0134 -0.60351,0.43832 -0.0122,0.007 -0.008,0.005 -0.59659,0.4503 -0.0122,0.007 -0.006,0.009 -0.58982,0.46209 -0.0122,0.007 -0.0139,0.0134 -0.57669,0.47563 -0.0122,0.007 -0.0139,0.0134 -0.56359,0.48918 -0.006,0.009 -0.0122,0.007 -0.55271,0.49887 -0.006,0.009 -0.008,0.005 -0.5458,0.5108502 -0.018,0.0158 -0.0139,0.0134 -0.53047,0.52826 -0.002,0.006 -0.008,0.005 -0.52191,0.53388 -0.0139,0.0134 -0.01,0.0111 -0.50483,0.54513 -0.01,0.0111 -0.01,0.0111 -0.49563,0.56113 -0.01,0.0111 -0.006,0.009 -0.48479,0.57071 -0.01,0.0111 -0.01,0.0111 -0.47,0.57803 -0.01,0.0111 -0.01,0.0111 -0.45687,0.59159 -0.01,0.0111 -0.003,0.0128 -0.44208,0.59892 -0.01,0.0111 -0.01,0.0111 -0.43289,0.61478 -0.006,0.009 -0.006,0.009 -0.41642,0.61584 -0.007,0.0152 -0.01,0.0111 -0.40329,0.62942 -0.007,0.0152 -0.01,0.0111 -0.38852,0.63674 -0.008,0.0152 -0.006,0.009 -0.37537,0.65032 -0.007,0.0152 -0.006,0.009 -0.3589,0.65136 -0.008,0.0152 -0.007,0.0151 -0.34577,0.66496003 -0.006,0.009 -0.003,0.0128 -0.32931,0.666 -0.01,0.0111 -0.008,0.0151 -0.31618,0.67958 6.2e-4,0.0105 -0.006,0.009 -0.30366,0.68292997 -0.008,0.0151 -0.007,0.0152 -0.28492,0.68797 -0.008,0.0152 -0.005,0.0192 -0.26782,0.69925 -0.002,0.006 -0.003,0.0128 -0.25531,0.7026 -0.006,0.009 -0.007,0.0152 -0.23883,0.70365 -0.001,0.0169 -0.008,0.0152 -0.22175,0.71493 -0.003,0.0128 -0.002,0.006 -0.20923,0.71831 -0.008,0.0152 -0.003,0.0128 -0.19275,0.71936 -0.001,0.0169 -0.008,0.0152 -0.17398,0.72439 -0.001,0.0169 6.3e-4,0.0105 -0.15919,0.73169 -0.003,0.0128 -0.003,0.0128 -0.14273,0.73276 -0.003,0.0128 6.3e-4,0.0105 -0.13018,0.73611 -0.005,0.0192 -0.005,0.0192 -0.10748,0.7388698 6.3e-4,0.0105 -0.003,0.0128 -0.095,0.7422 6.3e-4,0.0105 -10e-4,0.0169 -0.0785,0.74327 -0.001,0.0169 -10e-4,0.0169 -0.058,0.74206 -0.003,0.0128 -0.002,0.006 -0.0455,0.74539 -10e-4,0.0169 0.003,0.0145 -0.029,0.74645 -0.003,0.0128 0.003,0.0145 -0.0126,0.74753 -0.001,0.0169 -0.001,0.0169 0.008,0.74631 6.3e-4,0.0105 6.3e-4,0.0105 0.0204,0.74965 -0.001,0.0169 0.003,0.0145 0.0385,0.74445 -0.003,0.0128 0.003,0.0145 0.055,0.74551 0.003,0.0145 -0.001,0.0169 0.0732,0.74032 6.2e-4,0.0105 6.3e-4,0.0105 0.0857,0.74367 0.005,0.0186 0.003,0.0145 0.10612,0.74246 -0.001,0.0169 0.003,0.0145 0.12197,0.73329 0.003,0.0145 6.2e-4,0.0105 0.13845,0.73435 0.003,0.0145 0.005,0.008 0.15266,0.73146 0.003,0.0145 6.3e-4,0.0105 0.16693,0.7285 0.005,0.0186 0.005,0.0186 0.18891,0.72109 6.3e-4,0.0105 0.005,0.008 0.19911,0.72048 0.003,0.0145 0.005,0.0186 0.21725,0.71531 0.003,0.0145 0.007,0.0122 0.23537,0.71012 0.003,0.0145 0.005,0.008 0.24735,0.70321 0.003,0.0145 0.009,0.0162 0.26548,0.69802 0.003,0.0145 0.009,0.0162 0.28361,0.69286 -0.002,0.006 0.005,0.008 0.29152,0.68826 0.009,0.0163 0.005,0.0186 0.31143,0.67679 0.007,0.0122 0.005,0.008 0.32569,0.67384 0.007,0.0122 0.005,0.0186 0.34153,0.6647 0.005,0.008 0.007,0.0122 0.3529,0.65814 0.007,0.0122 0.007,0.0122 0.28214,0.49806 0.007,0.0122 0.005,0.008 0.38133,0.64172 0.009,0.0162 0.007,0.0122 0.39696,0.63269 0.005,0.008 0.007,0.0122 0.40664,0.6218 0.009,0.006 0.007,0.0122 0.42072,0.61897 0.009,0.0163 0.0134,0.0139 0.43833,0.60353 0.005,0.008 0.005,0.008 0.44625,0.59896 0.009,0.0162 0.0134,0.0139 0.46614,0.58748 0.005,0.008 0.0111,0.01 0.47563,0.57669 0.005,0.008 0.0111,0.01 0.48532,0.56581 0.009,0.0163 0.0134,0.0139 0.50293,0.55037 0.009,0.006 0.002,0.004 0.51084,0.54578 0.0134,0.0139 0.0111,0.01 0.5244,0.53269 0.0111,0.01 0.0134,0.0139 0.53794,0.51957 0.005,0.008 0.0111,0.01 0.54514,0.50483 0.0111,0.01 0.0111,0.01 0.56109,0.49562 0.0111,0.01 0.009,0.006 0.5707,0.48479 0.0111,0.01 0.0111,0.01 0.57803,0.46998 0.0111,0.01 0.0111,0.01 0.59162,0.45688 0.0111,0.01 0.0128,0.003 0.59892,0.44208 0.0111,0.01 0.0111,0.01 0.61477,0.43291 0.009,0.006 0.009,0.006 0.61584,0.41644 0.0152,0.007 0.0111,0.01 0.62941,0.40331 0.0152,0.007 0.0111,0.01 0.63675,0.3885 0.0152,0.007 0.0152,0.007 0.64803,0.37141 0.009,0.006 0.006,0.002 0.65365,0.36286 0.0111,0.01 0.0128,0.003 0.66099,0.34806 0.0175,0.0115 0.0152,0.007 0.66997,0.32702 0.009,0.006 0.006,0.002 0.67561,0.31848 0.0192,0.005 0.0152,0.007 0.68689,0.30138 0.0111,0.01 0.0128,0.003 0.68796,0.2849 0.0128,0.003 0.0152,0.007 0.69529,0.27011 0.0128,0.003 0.0128,0.003 0.7026,0.2553 0.0152,0.007 0.0152,0.007 0.70763,0.23653 0.0105,-6.3e-4 0.009,0.006 0.71096,0.22402 0.0128,0.003 0.0128,0.003 0.7183,0.2092 0.0192,0.005 0.0128,0.003 0.72335,0.19046 0.0128,0.003 0.0128,0.003 0.72667,0.17795 0.0192,0.005 0.0169,10e-4 0.7294,0.15523 0.0087,0.006 0.01047,-6.3e-4 0.732774,0.14269 0.01281,0.003 0.01047,-6.3e-4 0.736121,0.1302 0.01922,0.005 0.01922,0.005 0.738864,0.10748 0.01047,-6.3e-4 0.01281,0.003 0.742219,0.095 0.01047,-6.2e-4 0.01687,10e-4 0.743289,0.0785 0.01687,10e-4 0.01687,10e-4 0.74202,0.058 0.01281,0.003 0.0064,0.002 0.745419,0.0455 0.01687,0.001 0.01453,-0.003 0.746469,0.0291 0.01281,0.003 0.01453,-0.003 0.747526,0.0126 0.01687,10e-4 0.01687,0.001 0.74629,-0.008 0.01047,-6.3e-4 0.01047,-6.3e-4 0.749645,-0.0204 0.01687,10e-4 0.01453,-0.003 0.744449,-0.0385 0.01281,0.003 0.01453,-0.003 0.745518,-0.055 0.01453,-0.003 0.01687,10e-4 0.740322,-0.0732 0.01047,-6.2e-4 0.01047,-6.3e-4 0.743677,-0.0857 0.01453,-0.003 0.01859,-0.005 0.738482,-0.10382 0.01687,10e-4 0.01453,-0.003 0.737253,-0.12429 0.01047,-6.2e-4 0.0081,-0.005 0.736641,-0.13449 0.02093,-10e-4 0.01859,-0.005 0.729205,-0.15651 0.0081,-0.005 0.0064,0.002 0.728496,-0.16692 0.01859,-0.005 0.01453,-0.003 0.723312,-0.18506 0.01453,-0.003 0.01859,-0.005 0.718127,-0.20317 0.0081,-0.005 0.01453,-0.003 0.715308,-0.21725 0.01453,-0.003 0.01218,-0.007 0.706026,-0.23328 0.01453,-0.003 0.0081,-0.005 0.707167,-0.24964 0.01859,-0.005 0.01218,-0.007 0.698043,-0.26548 0.01047,-6.3e-4 0.01218,-0.007 0.691127,-0.27747 0.01453,-0.003 0.01218,-0.007 0.685942,-0.29559 0.01624,-0.009 0.01453,-0.003 0.680757,-0.31371 0.01218,-0.007 0.0081,-0.005 0.669862,-0.3234 0.01218,-0.007 0.01859,-0.005 0.664678,-0.34152 0.0081,-0.005 0.01218,-0.007 0.658133,-0.3529 0.01218,-0.007 0.01218,-0.007 0.498056,-0.28214 0.01218,-0.007 0.0081,-0.005 0.645701,-0.38363 0.01624,-0.009 0.01218,-0.007 0.632695,-0.39696 0.0081,-0.005 0.01218,-0.007 0.621819,-0.40666 0.0058,-0.009 0.01218,-0.007 0.618959,-0.42071 0.01624,-0.009 0.0139,-0.0134 0.603531,-0.43833 0.01218,-0.007 0.0081,-0.005 0.596615,-0.45031 0.01218,-0.007 0.0058,-0.009 0.589815,-0.46208 0.01624,-0.009 0.0098,-0.0111 0.572733,-0.47334 0.0041,-0.002 0.125166,-0.10394 0.949506,-0.79158 -0.787506,-0.95183 -14.023109,-16.99869 7.056849,-5.81918 0.627653,-0.51561 -0.225543,-0.78453 -9.862388,-34.290765 -0.220449,-0.766334 -0.792869,-0.118583 -0.738864,-0.107476 -0.01687,-0.0011 -0.01047,6.29e-4 -0.739902,-0.09099 -0.01687,-0.0011 -0.01687,-0.0011 -0.744963,-0.07223 -0.01281,-0.0034 -0.01281,-0.0034 -0.746012,-0.05576 -0.01453,0.003 -0.01281,-0.0034 -0.743101,-0.04157 -0.01687,-0.0011 -0.01047,6.28e-4 -0.74813,-0.0228 -0.01687,-0.0011 -0.01047,6.28e-4 -0.74522,-0.0086 -0.01281,-0.0034 -0.01453,0.003 -0.746278,0.0079 -0.01687,-0.0011 -0.01047,6.28e-4 -0.74737,0.02432 -0.02093,0.0013 -0.01453,0.003 -0.746143,0.04479 -0.01047,6.28e-4 -0.01687,-0.0011 -0.743232,0.05897 -0.01047,6.28e-4 -0.01453,0.003 -0.744282,0.07544 -0.01047,6.29e-4 -0.01453,0.003 -0.741392,0.08964 -0.01687,-0.0011 -0.01859,0.0053 -0.740155,0.110066 -0.01047,6.28e-4 -0.01047,6.28e-4 -0.737254,0.124283 -0.01859,0.0053 -0.01453,0.003 -0.732069,0.142405 -0.01047,6.28e-4 -0.01453,0.003 -0.729228,0.156521 -0.0105,6.28e-4 -0.0122,0.007 -0.72627,0.170786 -0.0145,0.003 -0.0186,0.0053 -0.72506,0.191207 -0.0145,0.003 -0.0145,0.003 -0.7159,0.207032 -0.0145,0.003 -0.008,0.0047 -0.71294,0.221298 -0.0145,0.003 -0.008,0.0047 -0.71001,0.235576 -0.0145,0.003 -0.0186,0.0053 -0.70086,0.251413 -0.0122,0.007 -0.0145,0.003 -0.69568,0.269536 -0.0122,0.007 -0.0122,0.007 -0.69286,0.283611 -0.0145,0.003 -0.0122,0.007 -0.6837,0.299436 -0.0145,0.003 -0.008,0.0047 -0.68075,0.313713 -0.0122,0.007 -0.0162,0.0094 -0.66764,0.327253 -0.0145,0.003 -0.0122,0.007 -0.66247,0.345389 -0.0122,0.007 -0.008,0.0047 -0.65579,0.356962 -0.0162,0.0094 -0.0122,0.007 -0.34899,0.20149 -0.004,0.0023 -0.004,0.0023 z"
           inkscape:connector-curvature="0" />
        <path
           inkscape:connector-curvature="0"
           d="m -126.20045,11.874134 a 33.648041,33.648041 0 0 0 4.34006,20.18062 33.648041,33.648041 0 0 0 45.964574,12.31704 33.648041,33.648041 0 0 0 5.00526,-3.53611 l -8.196137,-9.93379 a 36.08043,36.08043 0 0 1 -45.209477,-15.22786 36.08043,36.08043 0 0 1 -1.90428,-3.7999 z"
           style="opacity:1;fill:#f25f5c;fill-opacity:1;stroke-width:0.620327;stop-opacity:1"
           id="path72" />
        <path
           d="m -125.73769,8.7501642 c -0.2029,1.03386 -0.35712,2.0766698 -0.46216,3.1249998 7.25873,18.733093 30.088732,28.076044 47.113755,19.02777 l -1.585889,-1.92297 C -99.622367,36.854497 -118.47058,24.610927 -125.73769,8.7501642 Z"
           style="opacity:1;fill:#ffd166;fill-opacity:1;stroke-width:0.665172;stop-opacity:1"
           id="path74"
           inkscape:connector-curvature="0"
           sodipodi:nodetypes="ccccc" />
      </g>
    </g>
    <g
       transform="translate(-0.40874549,21.166667)"
       id="g1676">
      <path
         id="path1528"
         style="fill:#50514f;fill-opacity:1;stroke:none;stroke-width:0.350232;stroke-linejoin:round;stroke-dashoffset:3.25039"
         d="m 60.476075,107.90582 c -19.209211,0.0556 -34.751932,15.64336 -34.751872,34.85266 2e-5,19.24858 15.604071,34.85263 34.852632,34.85265 5.82787,0 11.54334,-1.46104 16.63251,-4.22474 1.69718,-0.92166 2.20228,-3.17733 1.23624,-4.85058 l -7.69484,-13.32791 a 6.4662086,6.4662086 0 0 1 1.02761,-7.80539 l 0.44386,-0.44387 a 7.8827351,7.8827351 0 0 0 2.04321,-7.60289 l -7.31411,-27.45865 c -0.52467,-1.96972 -2.58459,-3.84442 -4.61945,-3.94704 -0.58435,-0.0295 -1.16954,-0.0442 -1.75503,-0.0442 -0.0336,-5e-5 -0.0672,-5e-5 -0.10076,0 z" />
      <path
         id="path1563"
         style="fill:#ffd166;fill-opacity:1;stroke:none;stroke-width:0.350232;stroke-linejoin:round;stroke-dashoffset:3.25039"
         d="m 27.39102,140.40632 c -0.0524,0.75983 -0.079,1.52113 -0.076,2.28255 -0.0128,2.03095 0.17247,4.0588 0.53899,6.05338 l 40.595435,4.81727 c -0.14292,-0.71828 -0.17849,-1.45404 -0.11679,-2.18281 z" />
      <path
         id="path1581"
         style="fill:#f25f5c;fill-opacity:1;stroke:none;stroke-width:0.350232;stroke-linejoin:round;stroke-dashoffset:3.25039"
         d="m 28.0747,149.82693 c 1.36173,6.23309 4.513397,12.07576 9.080574,16.54938 5.429617,5.41033 12.741424,8.84292 20.396161,9.50691 3.89777,0.35958 7.94037,-4.2e-4 11.73469,-1.02268 2.34153,-0.6219 4.74075,-1.60036 6.89208,-2.72438 1.25203,-0.46354 1.49403,-2.21649 0.66921,-3.1781 -2.63467,-4.70713 -5.48928,-9.29668 -8.00054,-14.06942 -0.0317,-0.0774 -0.0601,-0.15587 -0.0889,-0.2341 z" />
    </g>
    <g
       transform="translate(-7.1770725,132.29169)"
       id="g1658">
      <path
         d="m 70.948586,590.79704 c -19.20922,0.0556 -34.75195,15.64335 -34.75189,34.85264 2e-5,19.24857 15.60408,34.85261 34.85265,34.85263 5.82787,0 11.54334,-1.46104 16.63251,-4.22473 1.69718,-0.92166 2.20228,-3.17733 1.23624,-4.85058 l -7.69484,-13.3279 a 6.4662086,6.4662086 0 0 1 1.02761,-7.80539 l 0.44386,-0.44387 a 7.8827351,7.8827351 0 0 0 2.04321,-7.60289 l -7.31411,-27.45863 c -0.52467,-1.96972 -2.58459,-3.84442 -4.61945,-3.94704 -0.58435,-0.0295 -1.16954,-0.0442 -1.75503,-0.0442 -0.0336,-5e-5 -0.0672,-5e-5 -0.10076,0 z"
         style="fill:#333333;fill-opacity:0.25;stroke:none;stroke-width:0.350232;stroke-linejoin:round;stroke-dashoffset:3.25039"
         id="path1595" />
      <path
         id="path1597"
         style="fill:#333333;fill-opacity:0.5;stroke:none;stroke-width:0.350232;stroke-linejoin:round;stroke-dashoffset:3.25039"
         d="m 67.773596,590.79704 c -19.20922,0.0556 -34.75195,15.64335 -34.75189,34.85264 2e-5,19.24857 15.60408,34.85261 34.85265,34.85263 5.82787,0 11.54334,-1.46104 16.63251,-4.22473 1.69718,-0.92166 2.20228,-3.17733 1.23624,-4.85058 l -7.69484,-13.3279 a 6.4662086,6.4662086 0 0 1 1.02761,-7.80539 l 0.44386,-0.44387 a 7.8827351,7.8827351 0 0 0 2.04321,-7.60289 l -7.31411,-27.45863 c -0.52467,-1.96972 -2.58459,-3.84442 -4.61945,-3.94704 -0.58435,-0.0295 -1.16954,-0.0442 -1.75503,-0.0442 -0.0336,-5e-5 -0.0672,-5e-5 -0.10076,0 z" />
      <path
         d="m 63.540236,590.79704 c -19.20922,0.0556 -34.75195,15.64335 -34.75189,34.85264 2e-5,19.24857 15.60408,34.85261 34.85265,34.85263 5.82787,0 11.54334,-1.46104 16.63251,-4.22473 1.69718,-0.92166 2.20228,-3.17733 1.23624,-4.85058 l -7.69484,-13.3279 a 6.4662086,6.4662086 0 0 1 1.02761,-7.80539 l 0.44386,-0.44387 a 7.8827351,7.8827351 0 0 0 2.04321,-7.60289 l -7.31411,-27.45863 c -0.52467,-1.96972 -2.58459,-3.84442 -4.61945,-3.94704 -0.58435,-0.0295 -1.16954,-0.0442 -1.75503,-0.0442 -0.0336,-5e-5 -0.0672,-5e-5 -0.10076,0 z"
         style="fill:#333333;fill-opacity:1;stroke:none;stroke-width:0.350232;stroke-linejoin:round;stroke-dashoffset:3.25039"
         id="path1599" />
    </g>
    <g
       transform="translate(-9.1493015,153.45837)"
       id="g1653">
      <path
         id="path1601"
         style="fill:#f25f5c;fill-opacity:0.25;stroke:none;stroke-width:0.350232;stroke-linejoin:round;stroke-dashoffset:3.25039"
         d="m 72.920815,701.70258 c -19.20922,0.0556 -34.75195,15.64335 -34.75189,34.85264 2e-5,19.24857 15.60408,34.85261 34.85265,34.85263 5.82787,0 11.54334,-1.46104 16.63251,-4.22473 1.69718,-0.92166 2.20228,-3.17733 1.23624,-4.85058 l -7.69484,-13.3279 a 6.4662086,6.4662086 0 0 1 1.02761,-7.80539 l 0.44386,-0.44387 a 7.8827351,7.8827351 0 0 0 2.04321,-7.60289 l -7.31411,-27.45863 c -0.52467,-1.96972 -2.58459,-3.84442 -4.61945,-3.94704 -0.58435,-0.0295 -1.16954,-0.0442 -1.75503,-0.0442 -0.0336,-5e-5 -0.0672,-5e-5 -0.10076,0 z" />
      <path
         d="m 69.745825,701.70258 c -19.20922,0.0556 -34.75195,15.64335 -34.75189,34.85264 2e-5,19.24857 15.60408,34.85261 34.85265,34.85263 5.82787,0 11.54334,-1.46104 16.63251,-4.22473 1.69718,-0.92166 2.20228,-3.17733 1.23624,-4.85058 l -7.69484,-13.3279 a 6.4662086,6.4662086 0 0 1 1.02761,-7.80539 l 0.44386,-0.44387 a 7.8827351,7.8827351 0 0 0 2.04321,-7.60289 l -7.31411,-27.45863 c -0.52467,-1.96972 -2.58459,-3.84442 -4.61945,-3.94704 -0.58435,-0.0295 -1.16954,-0.0442 -1.75503,-0.0442 -0.0336,-5e-5 -0.0672,-5e-5 -0.10076,0 z"
         style="fill:#f25f5c;fill-opacity:0.5;stroke:none;stroke-width:0.350232;stroke-linejoin:round;stroke-dashoffset:3.25039"
         id="path1603" />
      <path
         id="path1605"
         style="fill:#f25f5c;fill-opacity:1;stroke:none;stroke-width:0.350232;stroke-linejoin:round;stroke-dashoffset:3.25039"
         d="m 65.512465,701.70258 c -19.20922,0.0556 -34.75195,15.64335 -34.75189,34.85264 2e-5,19.24857 15.60408,34.85261 34.85265,34.85263 5.82787,0 11.54334,-1.46104 16.63251,-4.22473 1.69718,-0.92166 2.20228,-3.17733 1.23624,-4.85058 l -7.69484,-13.3279 a 6.4662086,6.4662086 0 0 1 1.02761,-7.80539 l 0.44386,-0.44387 a 7.8827351,7.8827351 0 0 0 2.04321,-7.60289 l -7.31411,-27.45863 c -0.52467,-1.96972 -2.58459,-3.84442 -4.61945,-3.94704 -0.58435,-0.0295 -1.16954,-0.0442 -1.75503,-0.0442 -0.0336,-5e-5 -0.0672,-5e-5 -0.10076,0 z" />
    </g>
    <g
       transform="translate(-7.6557335,174.62505)"
       id="g1648">
      <path
         d="m 71.427247,799.90019 c -19.20922,0.0556 -34.75195,15.64335 -34.75189,34.85264 2e-5,19.24857 15.60408,34.85261 34.85265,34.85263 5.82787,0 11.54334,-1.46104 16.63251,-4.22473 1.69718,-0.92166 2.20228,-3.17733 1.23624,-4.85058 l -7.69484,-13.3279 a 6.4662086,6.4662086 0 0 1 1.02761,-7.80539 l 0.44386,-0.44387 a 7.8827351,7.8827351 0 0 0 2.04321,-7.60289 l -7.31411,-27.45863 c -0.52467,-1.96972 -2.58459,-3.84442 -4.61945,-3.94704 -0.58435,-0.0295 -1.16954,-0.0442 -1.75503,-0.0442 -0.0336,-5e-5 -0.0672,-5e-5 -0.10076,0 z"
         style="fill:#ffd166;fill-opacity:0.25;stroke:none;stroke-width:0.350232;stroke-linejoin:round;stroke-dashoffset:3.25039"
         id="path1607" />
      <path
         id="path1609"
         style="fill:#ffd166;fill-opacity:0.5;stroke:none;stroke-width:0.350232;stroke-linejoin:round;stroke-dashoffset:3.25039"
         d="m 68.252257,799.90019 c -19.20922,0.0556 -34.75195,15.64335 -34.75189,34.85264 2e-5,19.24857 15.60408,34.85261 34.85265,34.85263 5.82787,0 11.54334,-1.46104 16.63251,-4.22473 1.69718,-0.92166 2.20228,-3.17733 1.23624,-4.85058 l -7.69484,-13.3279 a 6.4662086,6.4662086 0 0 1 1.02761,-7.80539 l 0.44386,-0.44387 a 7.8827351,7.8827351 0 0 0 2.04321,-7.60289 l -7.31411,-27.45863 c -0.52467,-1.96972 -2.58459,-3.84442 -4.61945,-3.94704 -0.58435,-0.0295 -1.16954,-0.0442 -1.75503,-0.0442 -0.0336,-5e-5 -0.0672,-5e-5 -0.10076,0 z" />
      <path
         d="m 64.018897,799.90019 c -19.20922,0.0556 -34.75195,15.64335 -34.75189,34.85264 2e-5,19.24857 15.60408,34.85261 34.85265,34.85263 5.82787,0 11.54334,-1.46104 16.63251,-4.22473 1.69718,-0.92166 2.20228,-3.17733 1.23624,-4.85058 l -7.69484,-13.3279 a 6.4662086,6.4662086 0 0 1 1.02761,-7.80539 l 0.44386,-0.44387 a 7.8827351,7.8827351 0 0 0 2.04321,-7.60289 l -7.31411,-27.45863 c -0.52467,-1.96972 -2.58459,-3.84442 -4.61945,-3.94704 -0.58435,-0.0295 -1.16954,-0.0442 -1.75503,-0.0442 -0.0336,-5e-5 -0.0672,-5e-5 -0.10076,0 z"
         style="fill:#ffd166;fill-opacity:1;stroke:none;stroke-width:0.350232;stroke-linejoin:round;stroke-dashoffset:3.25039"
         id="path1611" />
    </g>
    <g
       transform="translate(-0.40874549,47.625002)"
       id="g1681">
      <path
         d="m 60.476075,197.86421 c -19.209211,0.0556 -34.751932,15.64336 -34.751872,34.85266 2e-5,19.24858 15.604071,34.85263 34.852632,34.85265 5.82787,0 11.54334,-1.46104 16.63251,-4.22474 1.69718,-0.92166 2.20228,-3.17733 1.23624,-4.85058 l -7.69484,-13.32791 a 6.4662086,6.4662086 0 0 1 1.02761,-7.80539 l 0.44386,-0.44387 a 7.8827351,7.8827351 0 0 0 2.04321,-7.60289 l -7.31411,-27.45865 c -0.52467,-1.96972 -2.58459,-3.84442 -4.61945,-3.94704 -0.58435,-0.0295 -1.16954,-0.0442 -1.75503,-0.0442 -0.0336,-5e-5 -0.0672,-5e-5 -0.10076,0 z"
         style="fill:#333333;fill-opacity:1;stroke:none;stroke-width:0.350232;stroke-linejoin:round;stroke-dashoffset:3.25039"
         id="path1617" />
      <path
         d="m 27.39102,230.36471 c -0.0524,0.75983 -0.079,1.52113 -0.076,2.28255 -0.0128,2.03095 0.17247,4.0588 0.53899,6.05338 l 40.595435,4.81727 c -0.14292,-0.71828 -0.17849,-1.45404 -0.11679,-2.18281 z"
         style="fill:#ffd166;fill-opacity:1;stroke:none;stroke-width:0.350232;stroke-linejoin:round;stroke-dashoffset:3.25039"
         id="path1619" />
      <path
         d="m 28.0747,239.78532 c 1.36173,6.23309 4.513397,12.07576 9.080574,16.54938 5.429617,5.41033 12.741424,8.84292 20.396161,9.50691 3.89777,0.35958 7.94037,-4.2e-4 11.73469,-1.02268 2.34153,-0.6219 4.74075,-1.60036 6.89208,-2.72438 1.25203,-0.46354 1.49403,-2.21649 0.66921,-3.1781 -2.63467,-4.70713 -5.48928,-9.29668 -8.00054,-14.06942 -0.0317,-0.0774 -0.0601,-0.15587 -0.0889,-0.2341 z"
         style="fill:#f25f5c;fill-opacity:1;stroke:none;stroke-width:0.350232;stroke-linejoin:round;stroke-dashoffset:3.25039"
         id="path1621" />
    </g>
    <g
       transform="translate(-0.40874549,111.12501)"
       id="g1696">
      <path
         id="path1627"
         style="fill:#333333;fill-opacity:1;stroke:none;stroke-width:0.350232;stroke-linejoin:round;stroke-dashoffset:3.25039"
         d="m 60.476075,488.90606 c -19.209211,0.0556 -34.751932,15.64336 -34.751872,34.85266 2e-5,19.24858 15.604071,34.85263 34.852632,34.85265 5.82787,0 11.54334,-1.46104 16.63251,-4.22474 1.69718,-0.92166 2.20228,-3.17733 1.23624,-4.85058 l -7.69484,-13.32791 a 6.4662086,6.4662086 0 0 1 1.02761,-7.80539 l 0.44386,-0.44387 a 7.8827351,7.8827351 0 0 0 2.04321,-7.60289 l -7.31411,-27.45865 c -0.52467,-1.96972 -2.58459,-3.84442 -4.61945,-3.94704 -0.58435,-0.0295 -1.16954,-0.0442 -1.75503,-0.0442 -0.0336,-5e-5 -0.0672,-5e-5 -0.10076,0 z" />
    </g>
    <g
       transform="translate(-0.39396245,68.79167)"
       id="g1687">
      <path
         d="m 61.46875,292.06765 c -10.435602,-0.33092 -20.878879,4.23141 -27.762986,12.07388 -6.660412,7.43426 -9.947794,17.74105 -8.840669,27.65975 0.999395,9.6766 6.153701,18.82678 13.90582,24.70449 7.791176,6.00109 18.116556,8.56491 27.80721,6.86266 4.117366,-0.72065 8.169726,-2.07777 11.748798,-4.25281 1.971172,-1.51798 2.141986,-4.61079 0.670871,-6.53181 -2.555235,-4.49457 -5.241827,-8.92024 -7.696542,-13.46831 -0.899566,-2.21139 -0.03867,-4.86439 1.796691,-6.32809 2.377569,-2.41549 3.088093,-6.19804 1.95934,-9.36608 -2.429718,-9.06192 -4.787145,-18.14671 -7.286078,-27.18781 -0.996712,-2.48723 -3.577205,-4.34657 -6.302455,-4.16587 z"
         style="fill:#333333;fill-opacity:1;stroke:none;stroke-width:0.350232;stroke-linejoin:round;stroke-dashoffset:3.25039"
         id="path1665" />
      <path
         id="path1633"
         style="fill:#ffffff;fill-opacity:1;stroke:none;stroke-width:0.350232;stroke-linejoin:round;stroke-dashoffset:3.25039"
         d="m 60.476075,293.11427 c -19.209211,0.0556 -34.751932,15.64336 -34.751872,34.85266 2e-5,19.24858 15.604071,34.85263 34.852632,34.85265 5.82787,0 11.54334,-1.46104 16.63251,-4.22474 1.69718,-0.92166 2.20228,-3.17733 1.23624,-4.85058 l -7.69484,-13.32791 a 6.4662086,6.4662086 0 0 1 1.02761,-7.80539 l 0.44386,-0.44387 a 7.8827351,7.8827351 0 0 0 2.04321,-7.60289 l -7.31411,-27.45865 c -0.52467,-1.96972 -2.58459,-3.84442 -4.61945,-3.94704 -0.58435,-0.0295 -1.16954,-0.0442 -1.75503,-0.0442 -0.0336,-5e-5 -0.0672,-5e-5 -0.10076,0 z" />
      <path
         id="path1635"
         style="fill:#ffd166;fill-opacity:1;stroke:none;stroke-width:0.350232;stroke-linejoin:round;stroke-dashoffset:3.25039"
         d="m 27.39102,325.61477 c -0.0524,0.75983 -0.079,1.52113 -0.076,2.28255 -0.0128,2.03095 0.17247,4.0588 0.53899,6.05338 l 40.595435,4.81727 c -0.14292,-0.71828 -0.17849,-1.45404 -0.11679,-2.18281 z" />
      <path
         id="path1637"
         style="fill:#f25f5c;fill-opacity:1;stroke:none;stroke-width:0.350232;stroke-linejoin:round;stroke-dashoffset:3.25039"
         d="m 28.0747,335.03538 c 1.36173,6.23309 4.513397,12.07576 9.080574,16.54938 5.429617,5.41033 12.741424,8.84292 20.396161,9.50691 3.89777,0.35958 7.94037,-4.2e-4 11.73469,-1.02268 2.34153,-0.6219 4.74075,-1.60036 6.89208,-2.72438 1.25203,-0.46354 1.49403,-2.21649 0.66921,-3.1781 -2.63467,-4.70713 -5.48928,-9.29668 -8.00054,-14.06942 -0.0317,-0.0774 -0.0601,-0.15587 -0.0889,-0.2341 z" />
    </g>
    <g
       transform="translate(-0.39396245,89.958338)"
       id="g1693">
      <path
         id="path1660"
         style="fill:#333333;fill-opacity:1;stroke:none;stroke-width:0.350232;stroke-linejoin:round;stroke-dashoffset:3.25039"
         d="m 61.46875,392.60938 c -10.435602,-0.33092 -20.878879,4.23141 -27.762986,12.07388 -6.660412,7.43426 -9.947794,17.74105 -8.840669,27.65975 0.999395,9.6766 6.153701,18.82678 13.90582,24.70449 7.791176,6.00109 18.116556,8.56491 27.80721,6.86266 4.117366,-0.72065 8.169726,-2.07777 11.748798,-4.25281 1.971172,-1.51798 2.141986,-4.61079 0.670871,-6.53181 -2.555235,-4.49457 -5.241827,-8.92024 -7.696542,-13.46831 -0.899566,-2.21139 -0.03867,-4.86439 1.796691,-6.32809 2.377569,-2.41549 3.088093,-6.19804 1.95934,-9.36608 -2.429718,-9.06192 -4.787145,-18.14671 -7.286078,-27.18781 -0.996712,-2.48723 -3.577205,-4.34657 -6.302455,-4.16587 z" />
      <path
         d="m 60.476075,393.656 c -19.209211,0.0556 -34.751932,15.64336 -34.751872,34.85266 2e-5,19.24858 15.604071,34.85263 34.852632,34.85265 5.82787,0 11.54334,-1.46104 16.63251,-4.22474 1.69718,-0.92166 2.20228,-3.17733 1.23624,-4.85058 l -7.69484,-13.32791 a 6.4662086,6.4662086 0 0 1 1.02761,-7.80539 l 0.44386,-0.44387 a 7.8827351,7.8827351 0 0 0 2.04321,-7.60289 l -7.31411,-27.45865 c -0.52467,-1.96972 -2.58459,-3.84442 -4.61945,-3.94704 -0.58435,-0.0295 -1.16954,-0.0442 -1.75503,-0.0442 -0.0336,-5e-5 -0.0672,-5e-5 -0.10076,0 z"
         style="fill:#ffffff;fill-opacity:1;stroke:none;stroke-width:0.350232;stroke-linejoin:round;stroke-dashoffset:3.25039"
         id="path1639" />
      <path
         d="m 27.39102,426.1565 c -0.0524,0.75983 -0.079,1.52113 -0.076,2.28255 -0.0128,2.03095 0.17247,4.0588 0.53899,6.05338 l 40.595435,4.81727 c -0.14292,-0.71828 -0.17849,-1.45404 -0.11679,-2.18281 z"
         style="fill:#333333;fill-opacity:1;stroke:none;stroke-width:0.350232;stroke-linejoin:round;stroke-dashoffset:3.25039"
         id="path1641" />
      <path
         d="m 28.0747,435.57711 c 1.36173,6.23309 4.513397,12.07576 9.080574,16.54938 5.429617,5.41033 12.741424,8.84292 20.396161,9.50691 3.89777,0.35958 7.94037,-4.2e-4 11.73469,-1.02268 2.34153,-0.6219 4.74075,-1.60036 6.89208,-2.72438 1.25203,-0.46354 1.49403,-2.21649 0.66921,-3.1781 -2.63467,-4.70713 -5.48928,-9.29668 -8.00054,-14.06942 -0.0317,-0.0774 -0.0601,-0.15587 -0.0889,-0.2341 z"
         style="fill:#333333;fill-opacity:1;stroke:none;stroke-width:0.350232;stroke-linejoin:round;stroke-dashoffset:3.25039"
         id="path1643" />
    </g>
  </g>
</svg>
