<?xml version="1.0" encoding="UTF-8" standalone="no"?>
<svg
   xmlns:dc="http://purl.org/dc/elements/1.1/"
   xmlns:cc="http://creativecommons.org/ns#"
   xmlns:rdf="http://www.w3.org/1999/02/22-rdf-syntax-ns#"
   xmlns:svg="http://www.w3.org/2000/svg"
   xmlns="http://www.w3.org/2000/svg"
   xmlns:sodipodi="http://sodipodi.sourceforge.net/DTD/sodipodi-0.dtd"
   xmlns:inkscape="http://www.inkscape.org/namespaces/inkscape"
   sodipodi:docname="all-elements-screen.svg"
   inkscape:version="1.0beta2 (323fbac, 2019-12-30)"
   id="svg2272"
   version="1.1"
   viewBox="0 0 507.99999 285.75001"
   height="1080"
   width="1920">
  <defs
     id="defs2266" />
  <sodipodi:namedview
     inkscape:window-maximized="1"
     inkscape:window-y="-8"
     inkscape:window-x="-8"
     inkscape:window-height="1017"
     inkscape:window-width="1920"
     units="px"
     showgrid="false"
     inkscape:document-rotation="0"
     inkscape:current-layer="layer1"
     inkscape:document-units="mm"
     inkscape:cy="372.99694"
     inkscape:cx="692.28756"
     inkscape:zoom="0.49497475"
     inkscape:pageshadow="2"
     inkscape:pageopacity="0.0"
     borderopacity="1.0"
     bordercolor="#666666"
     pagecolor="#ffffff"
     id="base"
     showguides="true"
     inkscape:guide-bbox="true" />
  <metadata
     id="metadata2269">
    <rdf:RDF>
      <cc:Work
         rdf:about="">
        <dc:format>image/svg+xml</dc:format>
        <dc:type
           rdf:resource="http://purl.org/dc/dcmitype/StillImage" />
        <dc:title />
      </cc:Work>
    </rdf:RDF>
  </metadata>
  <g
     id="layer1"
     inkscape:groupmode="layer"
     inkscape:label="Camada 1">
    <rect
       style="fill:#1dcc1b;fill-opacity:1;stroke:none;stroke-width:10.3813;stroke-opacity:1"
       id="rect891"
       width="508"
       height="285.75"
       x="-7.1054274e-15"
       y="-7.1054274e-15" />
    <g
       id="g1140"
       transform="matrix(0.66298048,0,0,0.66298048,238.15656,68.240718)">
      <path
         inkscape:connector-curvature="0"
         d="m -100.18388,83.381406 -0.0162,0.0094 -0.0162,0.0094 -0.63268,0.396951 -0.008,0.005 -0.0122,0.007 -0.62578,0.40894 -0.006,0.009 -0.0122,0.007 -0.615,0.41842 -0.0162,0.009 -0.0139,0.0134 -0.60351,0.43832 -0.0122,0.007 -0.008,0.005 -0.59659,0.4503 -0.0122,0.007 -0.006,0.009 -0.58982,0.46209 -0.0122,0.007 -0.0139,0.0134 -0.57669,0.47563 -0.0122,0.007 -0.0139,0.0134 -0.56359,0.48918 -0.006,0.009 -0.0122,0.007 -0.55271,0.49887 -0.006,0.009 -0.008,0.005 -0.5458,0.51085 -0.018,0.0158 -0.0139,0.0134 -0.53047,0.52826 -0.002,0.006 -0.008,0.005 -0.52191,0.53388 -0.0139,0.0134 -0.01,0.0111 -0.50483,0.54513 -0.01,0.0111 -0.01,0.0111 -0.49563,0.56113 -0.01,0.0111 -0.006,0.009 -0.48479,0.57071 -0.01,0.0111 -0.01,0.0111 -0.47,0.57803 -0.01,0.0111 -0.01,0.0111 -0.45687,0.59159 -0.01,0.0111 -0.003,0.0128 -0.44208,0.59892 -0.01,0.0111 -0.01,0.0111 -0.43289,0.61478 -0.006,0.009 -0.006,0.009 -0.41642,0.61584 -0.007,0.0152 -0.01,0.0111 -0.40329,0.62942 -0.007,0.0152 -0.01,0.0111 -0.38852,0.63674 -0.008,0.0152 -0.006,0.009 -0.37537,0.65032 -0.007,0.0152 -0.006,0.009 -0.3589,0.65136 -0.008,0.0152 -0.007,0.0151 -0.34577,0.66496 -0.006,0.009 -0.003,0.0128 -0.32931,0.666 -0.01,0.0111 -0.008,0.0151 -0.31618,0.67958 6.2e-4,0.0105 -0.006,0.009 -0.30366,0.68293 -0.008,0.0151 -0.007,0.0152 -0.28492,0.687973 -0.008,0.0152 -0.005,0.0192 -0.26782,0.69925 -0.002,0.006 -0.003,0.0128 -0.25531,0.7026 -0.006,0.009 -0.007,0.0152 -0.23883,0.70365 -0.001,0.0169 -0.008,0.0152 -0.22175,0.71493 -0.003,0.0128 -0.002,0.006 -0.20923,0.71831 -0.008,0.0152 -0.003,0.0128 -0.19275,0.71936 -0.001,0.0169 -0.008,0.0152 -0.17398,0.72439 -0.001,0.0169 6.3e-4,0.0105 -0.15919,0.73169 -0.003,0.0128 -0.003,0.0128 -0.14273,0.73276 -0.003,0.0128 6.3e-4,0.0105 -0.13018,0.73611 -0.005,0.0192 -0.005,0.0192 -0.10748,0.73887 6.3e-4,0.0105 -0.003,0.0128 -0.095,0.7422 6.3e-4,0.0105 -10e-4,0.0169 -0.0785,0.74327 -0.001,0.0169 -10e-4,0.0169 -0.058,0.74206 -0.003,0.0128 -0.002,0.006 -0.0455,0.74539 -0.001,0.0169 0.003,0.0145 -0.029,0.74645 -0.003,0.0128 0.003,0.0145 -0.0126,0.74753 -0.001,0.0169 -0.001,0.0169 0.008,0.74631 6.3e-4,0.0105 6.3e-4,0.0105 0.0204,0.74965 -0.001,0.0169 0.003,0.0145 0.0385,0.74445 -0.003,0.0128 0.003,0.0145 0.055,0.74551 0.003,0.0145 -0.001,0.0169 0.0732,0.74032 6.2e-4,0.0105 6.3e-4,0.0105 0.0857,0.74367 0.005,0.0186 0.003,0.0145 0.10612,0.74246 -0.001,0.0169 0.003,0.0145 0.12197,0.73329 0.003,0.0145 6.2e-4,0.0105 0.13845,0.73435 0.003,0.0145 0.005,0.008 0.15266,0.73146 0.003,0.0145 6.3e-4,0.0105 0.16693,0.7285 0.005,0.0186 0.005,0.0186 0.18891,0.72109 6.3e-4,0.0105 0.005,0.008 0.19911,0.72048 0.003,0.0145 0.005,0.0186 0.21725,0.71531 0.003,0.0145 0.007,0.0122 0.23537,0.71012 0.003,0.0145 0.005,0.008 0.24735,0.70321 0.003,0.0145 0.009,0.0162 0.26548,0.69802 0.003,0.0145 0.009,0.0162 0.28361,0.69286 -0.002,0.006 0.005,0.008 0.29152,0.68826 0.009,0.0163 0.005,0.0186 0.31143,0.67679 0.007,0.0122 0.005,0.008 0.32569,0.67384 0.007,0.0122 0.005,0.0186 0.34153,0.6647 0.005,0.008 0.007,0.0122 0.3529,0.65814 0.007,0.0122 0.007,0.0122 0.28214,0.49806 0.007,0.0122 0.005,0.008 0.38133,0.64172 0.009,0.0162 0.007,0.0122 0.39696,0.63269 0.005,0.008 0.007,0.0122 0.40664,0.6218 0.009,0.006 0.007,0.0122 0.42072,0.61897 0.009,0.0163 0.0134,0.0139 0.43833,0.60353 0.005,0.008 0.005,0.008 0.44625,0.59896 0.009,0.0162 0.0134,0.0139 0.46614,0.58748 0.005,0.008 0.0111,0.01 0.47563,0.57669 0.005,0.008 0.0111,0.01 0.48532,0.56581 0.009,0.0163 0.0134,0.0139 0.50293,0.55037 0.009,0.006 0.002,0.004 0.51084,0.54578 0.0134,0.0139 0.0111,0.01 0.5244,0.53269 0.0111,0.01 0.0134,0.0139 0.53794,0.51957 0.005,0.008 0.0111,0.01 0.54514,0.50483 0.0111,0.01 0.0111,0.01 0.56109,0.49562 0.0111,0.01 0.009,0.006 0.5707,0.48479 0.0111,0.01 0.0111,0.01 0.57803,0.46998 0.0111,0.01 0.0111,0.01 0.59162,0.45688 0.0111,0.01 0.0128,0.003 0.59892,0.44208 0.0111,0.01 0.0111,0.01 0.61477,0.43291 0.009,0.006 0.009,0.006 0.61584,0.41644 0.0152,0.007 0.0111,0.01 0.62941,0.40331 0.0152,0.007 0.0111,0.01 0.636754,0.3885 0.0152,0.007 0.0152,0.007 0.64803,0.37141 0.009,0.006 0.006,0.002 0.65365,0.36286 0.0111,0.01 0.0128,0.003 0.66099,0.34806 0.0175,0.0115 0.0152,0.007 0.66997,0.32702 0.009,0.006 0.006,0.002 0.67561,0.31848 0.0192,0.005 0.0152,0.007 0.68689,0.30138 0.0111,0.01 0.0128,0.003 0.68796,0.2849 0.0128,0.003 0.0152,0.007 0.69529,0.27011 0.0128,0.003 0.0128,0.003 0.7026,0.2553 0.0152,0.007 0.0152,0.007 0.70763,0.23653 0.0105,-6.3e-4 0.009,0.006 0.71096,0.22402 0.0128,0.003 0.0128,0.003 0.7183,0.2092 0.0192,0.005 0.0128,0.003 0.72335,0.19046 0.0128,0.003 0.0128,0.003 0.72667,0.17795 0.0192,0.005 0.0169,10e-4 0.7294,0.15523 0.0087,0.006 0.01047,-6.3e-4 0.732774,0.14269 0.01281,0.003 0.01047,-6.3e-4 0.736121,0.1302 0.01922,0.005 0.01922,0.005 0.738864,0.10748 0.01047,-6.3e-4 0.01281,0.003 0.742219,0.095 0.01047,-6.2e-4 0.01687,0.001 0.743289,0.0785 0.01687,0.001 0.01687,0.001 0.74202,0.058 0.01281,0.003 0.0064,0.002 0.745419,0.0455 0.01687,0.001 0.01453,-0.003 0.746469,0.0291 0.01281,0.003 0.01453,-0.003 0.747526,0.0126 0.01687,0.001 0.01687,0.001 0.74629,-0.008 0.01047,-6.3e-4 0.01047,-6.3e-4 0.749645,-0.0204 0.01687,0.001 0.01453,-0.003 0.744449,-0.0385 0.01281,0.003 0.01453,-0.003 0.745518,-0.055 0.01453,-0.003 0.01687,0.001 0.740322,-0.0732 0.01047,-6.2e-4 0.01047,-6.3e-4 0.743677,-0.0857 0.01453,-0.003 0.01859,-0.005 0.738482,-0.10382 0.01687,0.001 0.01453,-0.003 0.737253,-0.12429 0.01047,-6.2e-4 0.0081,-0.005 0.736641,-0.13449 0.02093,-0.001 0.01859,-0.005 0.729205,-0.15651 0.0081,-0.005 0.0064,0.002 0.728496,-0.16692 0.01859,-0.005 0.01453,-0.003 0.723312,-0.18506 0.01453,-0.003 0.01859,-0.005 0.718127,-0.20317 0.0081,-0.005 0.01453,-0.003 0.715308,-0.21725 0.01453,-0.003 0.01218,-0.007 0.706026,-0.23328 0.01453,-0.003 0.0081,-0.005 0.707167,-0.24964 0.01859,-0.005 0.01218,-0.007 0.698043,-0.26548 0.01047,-6.3e-4 0.01218,-0.007 0.691127,-0.27747 0.01453,-0.003 0.01218,-0.007 0.685942,-0.29559 0.01624,-0.009 0.01453,-0.003 0.680757,-0.31371 0.01218,-0.007 0.0081,-0.005 0.669862,-0.3234 0.01218,-0.007 0.01859,-0.005 0.664678,-0.34152 0.0081,-0.005 0.01218,-0.007 0.658133,-0.3529 0.01218,-0.007 0.01218,-0.007 0.498056,-0.28214 0.01218,-0.007 0.0081,-0.005 0.645701,-0.38363 0.01624,-0.009 0.01218,-0.007 0.632695,-0.39696 0.0081,-0.005 0.01218,-0.007 0.621819,-0.40666 0.0058,-0.009 0.01218,-0.007 0.618959,-0.42071 0.01624,-0.009 0.0139,-0.0134 0.603531,-0.43833 0.01218,-0.007 0.0081,-0.005 0.596615,-0.45031 0.01218,-0.007 0.0058,-0.009 0.589815,-0.46208 0.01624,-0.009 0.0098,-0.0111 0.572733,-0.47334 0.0041,-0.002 0.125166,-0.10394 0.949506,-0.79158 -0.787506,-0.95183 -14.023109,-16.99869 7.056849,-5.81918 0.627653,-0.51561 -0.225543,-0.78453 -9.862388,-34.290768 -0.220449,-0.766334 -0.792869,-0.118583 -0.738864,-0.107476 -0.01687,-0.0011 -0.01047,6.29e-4 -0.739902,-0.09099 -0.01687,-0.0011 -0.01687,-0.0011 -0.744963,-0.07223 -0.01281,-0.0034 -0.01281,-0.0034 -0.746012,-0.05576 -0.01453,0.003 -0.01281,-0.0034 -0.743101,-0.04157 -0.01687,-0.0011 -0.01047,6.28e-4 -0.74813,-0.0228 -0.01687,-0.0011 -0.01047,6.28e-4 -0.74522,-0.0086 -0.01281,-0.0034 -0.01453,0.003 -0.746278,0.0079 -0.01687,-0.0011 -0.01047,6.28e-4 -0.74737,0.02432 -0.02093,0.0013 -0.01453,0.003 -0.746143,0.04479 -0.01047,6.28e-4 -0.01687,-0.0011 -0.743232,0.05897 -0.01047,6.28e-4 -0.01453,0.003 -0.744282,0.07544 -0.01047,6.29e-4 -0.01453,0.003 -0.741392,0.08964 -0.01687,-0.0011 -0.01859,0.0053 -0.740155,0.110066 -0.01047,6.28e-4 -0.01047,6.28e-4 -0.737254,0.124283 -0.01859,0.0053 -0.01453,0.003 -0.732069,0.142405 -0.01047,6.28e-4 -0.01453,0.003 -0.729228,0.156521 -0.0105,6.28e-4 -0.0122,0.007 -0.72627,0.170786 -0.0145,0.003 -0.0186,0.0053 -0.72506,0.191207 -0.0145,0.003 -0.0145,0.003 -0.7159,0.207032 -0.0145,0.003 -0.008,0.0047 -0.71294,0.221298 -0.0145,0.003 -0.008,0.0047 -0.71001,0.235576 -0.0145,0.003 -0.0186,0.0053 -0.70086,0.251413 -0.0122,0.007 -0.0145,0.003 -0.69568,0.269536 -0.0122,0.007 -0.0122,0.007 -0.69286,0.283611 -0.0145,0.003 -0.0122,0.007 -0.6837,0.299436 -0.0145,0.003 -0.008,0.0047 -0.68075,0.313713 -0.0122,0.007 -0.0162,0.0094 -0.66764,0.327253 -0.0145,0.003 -0.0122,0.007 -0.66247,0.345389 -0.0122,0.007 -0.008,0.0047 -0.65579,0.356962 -0.0162,0.0094 -0.0122,0.007 -0.34899,0.20149 -0.004,0.0023 -0.004,0.0023 z"
         style="opacity:1;fill:#50514f;fill-opacity:1;stroke-width:0.620327;stop-opacity:1"
         id="path1134" />
      <path
         id="path1136"
         style="opacity:1;fill:#f25f5c;fill-opacity:1;stroke-width:0.620327;stop-opacity:1"
         d="m -115.56689,109.85483 a 33.648041,33.648041 0 0 0 4.34006,20.18062 33.648041,33.648041 0 0 0 45.964578,12.31704 33.648041,33.648041 0 0 0 5.00526,-3.53611 l -8.196137,-9.93379 a 36.08043,36.08043 0 0 1 -45.209481,-15.22786 36.08043,36.08043 0 0 1 -1.90428,-3.7999 z"
         inkscape:connector-curvature="0" />
      <path
         sodipodi:nodetypes="ccccc"
         inkscape:connector-curvature="0"
         id="path1138"
         style="opacity:1;fill:#ffd166;fill-opacity:1;stroke-width:0.665172;stop-opacity:1"
         d="m -115.10413,106.73086 c -0.2029,1.03386 -0.35712,2.07667 -0.46216,3.125 7.25873,18.73309 30.088736,28.07604 47.113759,19.02777 l -1.585889,-1.92297 c -18.950383,7.87453 -37.7986,-4.36904 -45.06571,-20.2298 z" />
    </g>
    <g
       id="g1168"
       transform="matrix(1.0375847,0,0,1.0375847,363.22103,-39.205169)">
      <g
         transform="matrix(0.8125718,0,0,0.8125718,-216.67057,126.92167)"
         style="font-style:normal;font-weight:normal;font-size:32.9904px;line-height:1.25;font-family:sans-serif;opacity:1;fill:#50514f;fill-opacity:1;stroke:none;stroke-width:0.729911;stop-opacity:1"
         id="g1156"
         aria-label="erlimar.com">
        <path
           inkscape:connector-curvature="0"
           id="path1142"
           style="font-style:normal;font-variant:normal;font-weight:300;font-stretch:normal;font-family:'Exo 2';-inkscape-font-specification:'Exo 2 Light';letter-spacing:-0.824758px;word-spacing:-0.0020619px;fill:#50514f;fill-opacity:1;stroke-width:0.729911"
           d="m 89.868672,60.270385 q 2.47428,0 5.509396,-0.395884 l 0.230933,1.418587 q -0.956721,0.362894 -2.738203,0.560836 -1.781481,0.230933 -3.29904,0.230933 -2.705212,0 -4.321742,-0.82476 -1.61653,-0.85775 -2.375309,-2.672222 -0.725788,-1.847462 -0.725788,-4.94856 0,-3.134088 0.725788,-4.948559 0.725789,-1.814472 2.276338,-2.606242 1.550549,-0.79177 4.15679,-0.79177 3.431001,0 5.047531,1.286626 1.616529,1.253635 1.616529,3.826886 0,4.321742 -3.661934,4.321742 h -7.950686 q 0.09897,2.177367 0.692799,3.365021 0.626817,1.187654 1.748491,1.68251 1.154664,0.494856 3.068107,0.494856 z M 89.406806,47.107216 q -1.880453,0 -2.969136,0.560837 -1.055692,0.560837 -1.550548,1.847462 -0.494856,1.286626 -0.560837,3.562963 h 7.48882 q 2.045405,0 2.045405,-2.606241 0,-1.781481 -1.055693,-2.573251 -1.022702,-0.79177 -3.398011,-0.79177 z" />
        <path
           sodipodi:nodetypes="ccscccccccsc"
           inkscape:connector-curvature="0"
           id="path1144"
           style="font-style:normal;font-variant:normal;font-weight:300;font-stretch:normal;font-family:'Exo 2';-inkscape-font-specification:'Exo 2 Light';letter-spacing:-0.824758px;word-spacing:-0.0020619px;fill:#50514f;fill-opacity:1;stroke-width:0.729911"
           d="m 107.71922,45.292744 -0.26392,1.979424 h -0.79177 c -0.92373,0 -1.85846,0.197943 -2.80419,0.593828 -0.92373,0.373891 -2.13337,0.989711 -3.62894,1.847462 V 61.688972 H 98.119013 V 45.72162 h 1.616527 l 0.23094,2.672222 c 2.59524,-2.067399 4.94855,-3.101098 7.05994,-3.101098 z" />
        <path
           sodipodi:nodetypes="scscccscsccs"
           inkscape:connector-curvature="0"
           id="path1146"
           style="font-style:normal;font-variant:normal;font-weight:300;font-stretch:normal;font-family:'Exo 2';-inkscape-font-specification:'Exo 2 Light';letter-spacing:-0.824758px;word-spacing:-0.0020619px;fill:#50514f;fill-opacity:1;stroke-width:0.729911"
           d="m 110.83389,57.730125 c 0,0.747782 0.19794,1.319615 0.59382,1.7155 0.39589,0.395885 0.97872,0.593828 1.74849,0.593828 h 1.68251 l 0.23094,1.583539 c -0.24193,0.08797 -0.64882,0.164951 -1.22065,0.230932 -0.54984,0.06598 -1.0227,0.09897 -1.41858,0.09897 -1.14367,0 -2.04541,-0.329904 -2.70522,-0.989712 -0.65981,-0.681802 -1.02247,-1.627971 -0.98971,-2.837175 V 38.595694 h 2.0784 z" />
        <path
           sodipodi:nodetypes="sssssssssccccc"
           inkscape:connector-curvature="0"
           id="path1148"
           style="font-style:normal;font-variant:normal;font-weight:300;font-stretch:normal;font-family:'Exo 2';-inkscape-font-specification:'Exo 2 Light';letter-spacing:-0.824758px;word-spacing:-0.0020619px;fill:#50514f;fill-opacity:1;stroke-width:0.729911"
           d="m 118.48994,38.991578 c 0.46187,0 0.6928,0.230933 0.6928,0.692799 v 1.913443 c 0,0.461865 -0.23093,0.692798 -0.6928,0.692798 h -0.95672 c -0.46186,0 -0.6928,-0.230933 -0.6928,-0.692798 v -1.913443 c 0,-0.461866 0.23094,-0.692799 0.6928,-0.692799 z m 0.56084,22.697394 h -2.0784 V 45.72162 h 2.0784 z" />
        <path
           sodipodi:nodetypes="sssccccsccccscscccccccscs"
           inkscape:connector-curvature="0"
           id="path1150"
           style="font-style:normal;font-variant:normal;font-weight:300;font-stretch:normal;font-family:'Exo 2';-inkscape-font-specification:'Exo 2 Light';letter-spacing:-0.824758px;word-spacing:-0.0020619px;fill:#50514f;fill-opacity:1;stroke-width:0.729911"
           d="m 141.05938,45.292744 c 1.3636,0 2.4083,0.373891 3.13409,1.121674 0.72578,0.747783 1.02574,1.837852 1.08868,3.266049 v 12.008505 h -2.07839 V 50.241304 c -0.022,-1.09968 -0.26393,-1.891449 -0.72579,-2.375308 -0.43988,-0.505853 -1.14367,-0.75878 -2.11139,-0.75878 -0.87974,0 -1.7265,0.208939 -2.54026,0.626818 -0.79177,0.395885 -1.89145,1.121673 -3.29904,2.177366 v 11.777572 h -2.01241 V 50.241304 c 0,-1.09968 -0.23094,-1.891449 -0.6928,-2.375308 -0.46187,-0.505853 -1.17666,-0.75878 -2.14438,-0.75878 -0.85775,0 -1.7045,0.208939 -2.54026,0.626818 -0.81376,0.395885 -1.91344,1.110677 -3.29904,2.144376 V 61.688972 H 121.76 V 45.72162 h 1.7155 l 0.13196,2.672222 c 2.30932,-2.067399 4.55267,-3.101098 6.73004,-3.101098 2.26534,0 3.61794,1.011706 4.05782,3.035117 2.28733,-2.023411 4.50868,-3.035117 6.66406,-3.035117 z" />
        <path
           sodipodi:nodetypes="scsccccscsscscscsccssccccsscs"
           inkscape:connector-curvature="0"
           id="path1152"
           style="font-style:normal;font-variant:normal;font-weight:300;font-stretch:normal;font-family:'Exo 2';-inkscape-font-specification:'Exo 2 Light';letter-spacing:-0.824758px;word-spacing:-0.0020619px;fill:#50514f;fill-opacity:1;stroke-width:0.729911"
           d="m 155.7346,45.292744 c 1.7155,0 2.99113,0.384888 3.82689,1.154664 0.85774,0.747783 1.2056,2.003284 1.28662,3.760906 v 11.480658 h -1.64952 l -0.26392,-2.804183 c -0.79177,0.791769 -1.81447,1.506561 -3.06811,2.144376 -1.25364,0.615821 -2.56225,0.923731 -3.92585,0.923731 -1.4076,0 -2.51827,-0.373891 -3.33203,-1.121674 -0.81377,-0.747782 -1.22065,-1.814472 -1.22065,-3.200069 v -1.847462 c 0,-1.231641 0.36289,-2.188363 1.08868,-2.870165 0.72579,-0.681801 1.75949,-1.022702 3.1011,-1.022702 h 7.15892 v -1.68251 c 0,-1.055693 -0.25293,-1.836465 -0.75878,-2.342318 -0.48386,-0.505853 -1.36361,-0.75878 -2.63923,-0.75878 -1.89146,0 -4.25577,0.153955 -7.09294,0.461866 l -0.19794,-1.550549 c 3.18907,-0.483859 5.75132,-0.725789 7.68676,-0.725789 z m -3.33203,14.812689 c 0.94572,0 2.00142,-0.241929 3.16708,-0.725788 1.18765,-0.483859 2.24334,-1.132671 3.16708,-1.946434 v -3.925857 l -6.82901,0.06598 c -1.60554,0.06598 -2.4083,0.89074 -2.4083,2.47428 v 1.385597 c 0,0.923731 0.23093,1.605533 0.6928,2.045405 0.48385,0.417878 1.22063,0.626817 2.21035,0.626817 z" />
        <path
           sodipodi:nodetypes="ccscccccccsc"
           inkscape:connector-curvature="0"
           id="path1154"
           style="font-style:normal;font-variant:normal;font-weight:300;font-stretch:normal;font-family:'Exo 2';-inkscape-font-specification:'Exo 2 Light';letter-spacing:-0.824758px;word-spacing:-0.0020619px;fill:#50514f;fill-opacity:1;stroke-width:0.729911"
           d="m 172.38557,45.292744 -0.26392,1.979424 h -0.79177 c -0.92373,0 -1.85846,0.197943 -2.80418,0.593828 -0.92373,0.373891 -2.13338,0.989711 -3.62895,1.847462 v 11.975514 h -2.11138 V 45.72162 h 1.61653 l 0.23093,2.672222 c 2.59525,-2.067399 4.94857,-3.101098 7.05995,-3.101098 z" />
      </g>
      <g
         transform="matrix(0.8125718,0,0,0.8125718,-229.57014,126.92167)"
         aria-label="erlimar.com"
         id="g1166"
         style="font-style:normal;font-weight:normal;font-size:32.9904px;line-height:1.25;font-family:sans-serif;opacity:1;fill:#ffd166;fill-opacity:1;stroke:none;stroke-width:0.729911;stop-opacity:1">
        <path
           inkscape:connector-curvature="0"
           d="m 184.447,58.159 q 0.46187,0 0.62682,0.197942 0.19794,0.164952 0.19794,0.626818 v 1.880453 q 0,0.428875 -0.19794,0.626817 -0.16495,0.197942 -0.62682,0.197942 h -0.72579 q -0.42887,0 -0.62682,-0.197942 -0.16495,-0.197942 -0.16495,-0.626817 V 58.98376 q 0,-0.428875 0.16495,-0.626818 0.19795,-0.197942 0.62682,-0.197942 z"
           style="font-style:normal;font-variant:normal;font-weight:300;font-stretch:normal;font-family:'Exo 2';-inkscape-font-specification:'Exo 2 Light';letter-spacing:-0.824758px;word-spacing:-0.0020619px;fill:#ffd166;fill-opacity:1;stroke-width:0.729911"
           id="path1158" />
        <path
           inkscape:connector-curvature="0"
           d="m 196.37974,45.292744 q 1.18765,0 2.54026,0.164952 1.3526,0.164952 2.37531,0.560837 l -0.32991,1.352607 q -1.74849,-0.263924 -4.25576,-0.263924 -2.14438,0 -3.36502,0.593828 -1.18766,0.593827 -1.74849,2.012414 -0.52785,1.418587 -0.52785,3.991838 0,2.573251 0.52785,3.991838 0.56083,1.418587 1.74849,2.012415 1.22064,0.560836 3.36502,0.560836 2.77119,0 4.65165,-0.362894 l 0.23093,1.451577 q -2.44129,0.725789 -5.21248,0.725789 -2.7712,0 -4.42072,-0.791769 -1.61653,-0.82476 -2.34232,-2.639232 -0.72578,-1.814472 -0.72578,-4.94856 0,-3.134088 0.72578,-4.94856 0.72579,-1.814472 2.34232,-2.639232 1.64952,-0.82476 4.42072,-0.82476 z"
           style="font-style:normal;font-variant:normal;font-weight:300;font-stretch:normal;font-family:'Exo 2';-inkscape-font-specification:'Exo 2 Light';letter-spacing:-0.824758px;word-spacing:-0.0020619px;fill:#ffd166;fill-opacity:1;stroke-width:0.729911"
           id="path1160" />
        <path
           inkscape:connector-curvature="0"
           d="m 211.08057,45.292744 q 2.70521,0 4.28875,0.82476 1.61653,0.82476 2.30933,2.672223 0.72579,1.814472 0.72579,4.915569 0,3.101098 -0.72579,4.915569 -0.6928,1.814472 -2.30933,2.639232 -1.58354,0.82476 -4.28875,0.82476 -2.7382,0 -4.32174,-0.82476 -1.58354,-0.82476 -2.30933,-2.639232 -0.72579,-1.814471 -0.72579,-4.915569 0,-3.101097 0.72579,-4.915569 0.72579,-1.847463 2.30933,-2.672223 1.61653,-0.82476 4.32174,-0.82476 z m 0,1.814472 q -1.97943,0 -3.1011,0.626818 -1.08868,0.593827 -1.58354,2.012414 -0.46186,1.385597 -0.46186,3.958848 0,2.573251 0.46186,3.991838 0.49486,1.385597 1.58354,2.012415 1.12167,0.593827 3.1011,0.593827 1.97942,0 3.06811,-0.593827 1.12167,-0.626818 1.58353,-2.012415 0.49486,-1.418587 0.49486,-3.991838 0,-2.573251 -0.49486,-3.958848 -0.46186,-1.418587 -1.58353,-2.012414 -1.08869,-0.626818 -3.06811,-0.626818 z"
           style="font-style:normal;font-variant:normal;font-weight:300;font-stretch:normal;font-family:'Exo 2';-inkscape-font-specification:'Exo 2 Light';letter-spacing:-0.824758px;word-spacing:-0.0020619px;fill:#ffd166;fill-opacity:1;stroke-width:0.729911"
           id="path1162" />
        <path
           inkscape:connector-curvature="0"
           d="m 241.61164,45.292744 q 2.0454,0 3.13409,1.121674 1.08868,1.121674 1.08868,3.266049 v 12.008505 h -2.0784 V 50.241304 q -0.033,-1.64952 -0.72578,-2.375308 -0.65981,-0.75878 -2.11139,-0.75878 -1.31962,0 -2.54026,0.626818 -1.18766,0.593827 -3.29904,2.177366 v 11.777572 h -2.01242 V 50.241304 q 0,-1.64952 -0.69279,-2.375308 -0.6928,-0.75878 -2.14438,-0.75878 -1.28663,0 -2.54026,0.626818 -1.22064,0.593827 -3.29904,2.144376 v 11.810562 h -2.0784 V 45.72162 h 1.71551 l 0.13196,2.672222 q 3.46399,-3.101098 6.73004,-3.101098 3.39801,0 4.05782,3.035117 3.431,-3.035117 6.66406,-3.035117 z"
           style="font-style:normal;font-variant:normal;font-weight:300;font-stretch:normal;font-family:'Exo 2';-inkscape-font-specification:'Exo 2 Light';letter-spacing:-0.824758px;word-spacing:-0.0020619px;fill:#ffd166;fill-opacity:1;stroke-width:0.729911"
           id="path1164" />
      </g>
    </g>
    <text
       id="text2984"
       y="157.03697"
       x="207.08376"
       style="font-style:normal;font-variant:normal;font-weight:300;font-stretch:normal;font-size:6.04308px;line-height:1.25;font-family:'Exo 2';-inkscape-font-specification:'Exo 2 Light';letter-spacing:0px;word-spacing:0px;fill:#50514f;fill-opacity:1;stroke:none;stroke-width:0.264583"
       xml:space="preserve"><tspan
         style="font-style:normal;font-variant:normal;font-weight:300;font-stretch:normal;font-family:'Exo 2';-inkscape-font-specification:'Exo 2 Light';fill:#50514f;fill-opacity:1;stroke-width:0.264583"
         y="157.03697"
         x="207.08376"
         id="tspan2982"
         sodipodi:role="line">aprendendo a ensinar, e ensinando a aprender</tspan></text>
    <path
       style="fill:none;fill-opacity:1;stroke:#50514f;stroke-width:0.264583px;stroke-linecap:butt;stroke-linejoin:miter;stroke-opacity:1"
       d="M 207.69791,149.51582 H 332.31193"
       id="path863"
       inkscape:connector-curvature="0" />
  </g>
</svg>
